<ttFont>
    <TTGlyph name=".notdef" xMin="47" yMin="23" xMax="465" yMax="458">
      <contour>
        <pt x="47" y="458" on="1"/>
        <pt x="465" y="458" on="1"/>
        <pt x="465" y="23" on="1"/>
        <pt x="47" y="23" on="1"/>
      </contour>
      <contour>
        <pt x="409" y="89" on="1"/>
        <pt x="409" y="393" on="1"/>
        <pt x="105" y="393" on="1"/>
        <pt x="105" y="89" on="1"/>
      </contour>
    </TTGlyph>
    <TTGlyph name="A" xMin="-20" yMin="0" xMax="696" yMax="674">
      <contour>
        <pt x="-20" y="32" on="1"/>
        <pt x="-1" y="41" on="0"/>
        <pt x="41" y="55" on="0"/>
        <pt x="63" y="62" on="1"/>
        <pt x="297" y="629" on="1"/>
        <pt x="290" y="647" on="1"/>
        <pt x="369" y="674" on="1"/>
        <pt x="623" y="55" on="1"/>
        <pt x="696" y="47" on="1"/>
        <pt x="695" y="0" on="1"/>
        <pt x="427" y="0" on="1"/>
        <pt x="421" y="32" on="1"/>
        <pt x="443" y="42" on="0"/>
        <pt x="495" y="60" on="0"/>
        <pt x="519" y="67" on="1"/>
        <pt x="466" y="201" on="1"/>
        <pt x="196" y="201" on="1"/>
        <pt x="140" y="59" on="1"/>
        <pt x="245" y="47" on="1"/>
        <pt x="244" y="0" on="1"/>
        <pt x="-14" y="0" on="1"/>
      </contour>
      <contour>
        <pt x="220" y="262" on="1"/>
        <pt x="442" y="262" on="1"/>
        <pt x="330" y="544" on="1"/>
      </contour>
    </TTGlyph>
    <TTGlyph name="AE" xMin="-20" yMin="0" xMax="830" yMax="650">
      <contour>
        <pt x="-20" y="35" on="1"/>
        <pt x="-11" y="39" on="0"/>
        <pt x="15" y="50" on="0"/>
        <pt x="43" y="59" on="0"/>
        <pt x="68" y="67" on="0"/>
        <pt x="74" y="69" on="1"/>
        <pt x="361" y="599" on="1"/>
        <pt x="306" y="602" on="1"/>
        <pt x="307" y="650" on="1"/>
        <pt x="818" y="650" on="1"/>
        <pt x="820" y="625" on="0"/>
        <pt x="816" y="531" on="0"/>
        <pt x="808" y="485" on="1"/>
        <pt x="754" y="485" on="1"/>
        <pt x="742" y="576" on="1"/>
        <pt x="524" y="585" on="1"/>
        <pt x="524" y="354" on="1"/>
        <pt x="753" y="371" on="1"/>
        <pt x="753" y="284" on="1"/>
        <pt x="524" y="294" on="1"/>
        <pt x="524" y="65" on="1"/>
        <pt x="751" y="75" on="1"/>
        <pt x="777" y="183" on="1"/>
        <pt x="830" y="179" on="1"/>
        <pt x="831" y="159" on="0"/>
        <pt x="829" y="110" on="0"/>
        <pt x="826" y="61" on="0"/>
        <pt x="821" y="16" on="0"/>
        <pt x="818" y="0" on="1"/>
        <pt x="352" y="0" on="1"/>
        <pt x="346" y="35" on="1"/>
        <pt x="361" y="42" on="0"/>
        <pt x="415" y="61" on="0"/>
        <pt x="431" y="66" on="1"/>
        <pt x="431" y="201" on="1"/>
        <pt x="223" y="201" on="1"/>
        <pt x="223" y="202" on="1"/>
        <pt x="148" y="58" on="1"/>
        <pt x="245" y="47" on="1"/>
        <pt x="244" y="0" on="1"/>
        <pt x="-14" y="0" on="1"/>
      </contour>
      <contour>
        <pt x="255" y="262" on="1"/>
        <pt x="431" y="262" on="1"/>
        <pt x="431" y="597" on="1"/>
      </contour>
    </TTGlyph>
    <TTGlyph name="Aacute" xMin="-20" yMin="0" xMax="696" yMax="874">
      <component glyphName="A" x="0" y="0" flags="0x204"/>
      <component glyphName="acutecomb.case" x="333" y="0" flags="0x4"/>
    </TTGlyph>
    <TTGlyph name="Abreve" xMin="-20" yMin="0" xMax="696" yMax="853">
      <component glyphName="A" x="0" y="0" flags="0x204"/>
      <component glyphName="uni0306.case" x="335" y="0" flags="0x4"/>
    </TTGlyph>
    <TTGlyph name="Acircumflex" xMin="-20" yMin="0" xMax="696" yMax="873">
      <component glyphName="A" x="0" y="0" flags="0x204"/>
      <component glyphName="uni0302.case" x="335" y="0" flags="0x4"/>
    </TTGlyph>
    <TTGlyph name="Adieresis" xMin="-20" yMin="0" xMax="696" yMax="859">
      <component glyphName="A" x="0" y="0" flags="0x204"/>
      <component glyphName="uni0308.case" x="334" y="182" flags="0x4"/>
    </TTGlyph>
    <TTGlyph name="Agrave" xMin="-20" yMin="0" xMax="696" yMax="874">
      <component glyphName="A" x="0" y="0" flags="0x204"/>
      <component glyphName="gravecomb.case" x="336" y="0" flags="0x4"/>
    </TTGlyph>
    <TTGlyph name="Alpha" xMin="-20" yMin="0" xMax="696" yMax="674">
      <component glyphName="A" x="0" y="0" flags="0x204"/>
    </TTGlyph>
    <TTGlyph name="Alphaacute" xMin="-20" yMin="0" xMax="696" yMax="674">
      <component glyphName="Alpha" x="0" y="0" flags="0x204"/>
      <component glyphName="grAcute.case" x="0" y="0" flags="0x4"/>
    </TTGlyph>
    <TTGlyph name="Alphaasper" xMin="-20" yMin="0" xMax="696" yMax="674">
      <component glyphName="Alpha" x="0" y="0" flags="0x204"/>
      <component glyphName="asper.case" x="0" y="0" flags="0x4"/>
    </TTGlyph>
    <TTGlyph name="Alphaasperacute" xMin="-131" yMin="0" xMax="696" yMax="674">
      <component glyphName="Alpha" x="0" y="0" flags="0x204"/>
      <component glyphName="asperacute.case" x="0" y="0" flags="0x4"/>
    </TTGlyph>
    <TTGlyph name="Alphaasperacuteiotasub" xMin="-131" yMin="-225" xMax="696" yMax="674">
      <component glyphName="Alpha" x="0" y="0" flags="0x204"/>
      <component glyphName="asperacute.case" x="0" y="0" flags="0x4"/>
      <component glyphName="iotaadscript.case" x="216" y="0" flags="0x4"/>
    </TTGlyph>
    <TTGlyph name="Alphaaspergrave" xMin="-137" yMin="0" xMax="696" yMax="674">
      <component glyphName="Alpha" x="0" y="0" flags="0x204"/>
      <component glyphName="aspergrave.case" x="0" y="0" flags="0x4"/>
    </TTGlyph>
    <TTGlyph name="Alphaaspergraveiotasub" xMin="-137" yMin="-225" xMax="696" yMax="674">
      <component glyphName="Alpha" x="0" y="0" flags="0x204"/>
      <component glyphName="aspergrave.case" x="0" y="0" flags="0x4"/>
      <component glyphName="iotaadscript.case" x="216" y="0" flags="0x4"/>
    </TTGlyph>
    <TTGlyph name="Alphaasperiotasub" xMin="-20" yMin="-225" xMax="696" yMax="674">
      <component glyphName="Alpha" x="0" y="0" flags="0x204"/>
      <component glyphName="asper.case" x="0" y="0" flags="0x4"/>
      <component glyphName="iotaadscript.case" x="216" y="0" flags="0x4"/>
    </TTGlyph>
    <TTGlyph name="Alphaaspertilde" xMin="-124" yMin="0" xMax="696" yMax="674">
      <component glyphName="Alpha" x="0" y="0" flags="0x204"/>
      <component glyphName="aspertilde.case" x="0" y="0" flags="0x4"/>
    </TTGlyph>
    <TTGlyph name="Alphaaspertildeiotasub" xMin="-124" yMin="-225" xMax="696" yMax="674">
      <component glyphName="Alpha" x="0" y="0" flags="0x204"/>
      <component glyphName="aspertilde.case" x="0" y="0" flags="0x4"/>
      <component glyphName="iotaadscript.case" x="216" y="0" flags="0x4"/>
    </TTGlyph>
    <TTGlyph name="Alphabreve" xMin="-20" yMin="0" xMax="696" yMax="853">
      <component glyphName="Alpha" x="0" y="0" flags="0x204"/>
      <component glyphName="uni0306.case" x="335" y="0" flags="0x4"/>
    </TTGlyph>
    <TTGlyph name="Alphagrave" xMin="-20" yMin="0" xMax="696" yMax="674">
      <component glyphName="Alpha" x="0" y="0" flags="0x204"/>
      <component glyphName="grGrave.case" x="0" y="0" flags="0x4"/>
    </TTGlyph>
    <TTGlyph name="Alphaiotasub" xMin="-20" yMin="-225" xMax="696" yMax="674">
      <component glyphName="Alpha" x="0" y="0" flags="0x204"/>
      <component glyphName="iotaadscript.case" x="216" y="0" flags="0x4"/>
    </TTGlyph>
    <TTGlyph name="Alphalenis" xMin="-20" yMin="0" xMax="696" yMax="674">
      <component glyphName="Alpha" x="0" y="0" flags="0x204"/>
      <component glyphName="lenis.case" x="0" y="0" flags="0x4"/>
    </TTGlyph>
    <TTGlyph name="Alphalenisacute" xMin="-117" yMin="0" xMax="696" yMax="674">
      <component glyphName="Alpha" x="0" y="0" flags="0x204"/>
      <component glyphName="lenisacute.case" x="0" y="0" flags="0x4"/>
    </TTGlyph>
    <TTGlyph name="Alphalenisacuteiotasub" xMin="-117" yMin="-225" xMax="696" yMax="674">
      <component glyphName="Alpha" x="0" y="0" flags="0x204"/>
      <component glyphName="lenisacute.case" x="0" y="0" flags="0x4"/>
      <component glyphName="iotaadscript.case" x="216" y="0" flags="0x4"/>
    </TTGlyph>
    <TTGlyph name="Alphalenisgrave" xMin="-136" yMin="0" xMax="696" yMax="674">
      <component glyphName="Alpha" x="0" y="0" flags="0x204"/>
      <component glyphName="lenisgrave.case" x="0" y="0" flags="0x4"/>
    </TTGlyph>
    <TTGlyph name="Alphalenisgraveiotasub" xMin="-136" yMin="-225" xMax="696" yMax="674">
      <component glyphName="Alpha" x="0" y="0" flags="0x204"/>
      <component glyphName="lenisgrave.case" x="0" y="0" flags="0x4"/>
      <component glyphName="iotaadscript.case" x="216" y="0" flags="0x4"/>
    </TTGlyph>
    <TTGlyph name="Alphalenisiotasub" xMin="-20" yMin="-225" xMax="696" yMax="674">
      <component glyphName="Alpha" x="0" y="0" flags="0x204"/>
      <component glyphName="lenis.case" x="0" y="0" flags="0x4"/>
      <component glyphName="iotaadscript.case" x="216" y="0" flags="0x4"/>
    </TTGlyph>
    <TTGlyph name="Alphalenistilde" xMin="-124" yMin="0" xMax="696" yMax="674">
      <component glyphName="Alpha" x="0" y="0" flags="0x204"/>
      <component glyphName="lenistilde.case" x="0" y="0" flags="0x4"/>
    </TTGlyph>
    <TTGlyph name="Alphalenistildeiotasub" xMin="-124" yMin="-225" xMax="696" yMax="674">
      <component glyphName="Alpha" x="0" y="0" flags="0x204"/>
      <component glyphName="lenistilde.case" x="0" y="0" flags="0x4"/>
      <component glyphName="iotaadscript.case" x="216" y="0" flags="0x4"/>
    </TTGlyph>
    <TTGlyph name="Alphawithmacron" xMin="-20" yMin="0" xMax="696" yMax="811">
      <component glyphName="Alpha" x="0" y="0" flags="0x204"/>
      <component glyphName="uni0304.case" x="333" y="0" flags="0x4"/>
    </TTGlyph>
    <TTGlyph name="Alphawithtonos" xMin="-20" yMin="0" xMax="696" yMax="674">
      <component glyphName="Alpha" x="0" y="0" flags="0x204"/>
      <component glyphName="tonos.case" x="0" y="0" flags="0x4"/>
    </TTGlyph>
    <TTGlyph name="Amacron" xMin="-20" yMin="0" xMax="696" yMax="811">
      <component glyphName="A" x="0" y="0" flags="0x204"/>
      <component glyphName="uni0304.case" x="333" y="0" flags="0x4"/>
    </TTGlyph>
    <TTGlyph name="Aogonek" xMin="-20" yMin="-254" xMax="696" yMax="674">
      <component glyphName="A" x="0" y="0" flags="0x204"/>
      <component glyphName="uni0328.case" x="629" y="-9" flags="0x4"/>
    </TTGlyph>
    <TTGlyph name="Aring" xMin="-20" yMin="0" xMax="696" yMax="928">
      <component glyphName="A" x="0" y="0" flags="0x204"/>
      <component glyphName="uni030A.case" x="334" y="0" flags="0x4"/>
    </TTGlyph>
    <TTGlyph name="Atilde" xMin="-20" yMin="0" xMax="696" yMax="862">
      <component glyphName="A" x="0" y="0" flags="0x204"/>
      <component glyphName="tildecomb.case" x="335" y="0" flags="0x4"/>
    </TTGlyph>
    <TTGlyph name="B" xMin="30" yMin="0" xMax="584" yMax="658">
      <contour>
        <pt x="30" y="32" on="1"/>
        <pt x="49" y="41" on="0"/>
        <pt x="93" y="56" on="0"/>
        <pt x="115" y="63" on="1"/>
        <pt x="115" y="598" on="1"/>
        <pt x="44" y="602" on="1"/>
        <pt x="45" y="650" on="1"/>
        <pt x="107" y="653" on="0"/>
        <pt x="245" y="658" on="0"/>
        <pt x="306" y="658" on="1"/>
        <pt x="371" y="658" on="0"/>
        <pt x="464" y="630" on="0"/>
        <pt x="522" y="584" on="0"/>
        <pt x="549" y="524" on="0"/>
        <pt x="549" y="492" on="1"/>
        <pt x="549" y="442" on="0"/>
        <pt x="481" y="355" on="0"/>
        <pt x="406" y="347" on="1"/>
        <pt x="493" y="337" on="0"/>
        <pt x="584" y="239" on="0"/>
        <pt x="584" y="179" on="1"/>
        <pt x="584" y="144" on="0"/>
        <pt x="551" y="78" on="0"/>
        <pt x="486" y="29" on="0"/>
        <pt x="385" y="0" on="0"/>
        <pt x="318" y="0" on="1"/>
        <pt x="36" y="0" on="1"/>
      </contour>
      <contour>
        <pt x="345" y="599" on="1"/>
        <pt x="208" y="584" on="1"/>
        <pt x="208" y="368" on="1"/>
        <pt x="258" y="368" on="1"/>
        <pt x="360" y="368" on="0"/>
        <pt x="446" y="441" on="0"/>
        <pt x="446" y="485" on="1"/>
        <pt x="446" y="525" on="0"/>
        <pt x="389" y="592" on="0"/>
      </contour>
      <contour>
        <pt x="308" y="61" on="1"/>
        <pt x="351" y="58" on="0"/>
        <pt x="414" y="75" on="0"/>
        <pt x="455" y="108" on="0"/>
        <pt x="476" y="153" on="0"/>
        <pt x="476" y="177" on="1"/>
        <pt x="476" y="202" on="0"/>
        <pt x="454" y="251" on="0"/>
        <pt x="412" y="290" on="0"/>
        <pt x="348" y="314" on="0"/>
        <pt x="306" y="314" on="1"/>
        <pt x="208" y="314" on="1"/>
        <pt x="208" y="69" on="1"/>
      </contour>
    </TTGlyph>
    <TTGlyph name="Beta" xMin="30" yMin="0" xMax="584" yMax="658">
      <component glyphName="B" x="0" y="0" flags="0x204"/>
    </TTGlyph>
    <TTGlyph name="C" xMin="20" yMin="-15" xMax="538" yMax="670">
      <contour>
        <pt x="342" y="-15" on="1"/>
        <pt x="260" y="-16" on="0"/>
        <pt x="138" y="39" on="0"/>
        <pt x="59" y="130" on="0"/>
        <pt x="20" y="252" on="0"/>
        <pt x="20" y="317" on="1"/>
        <pt x="20" y="382" on="0"/>
        <pt x="59" y="509" on="0"/>
        <pt x="135" y="608" on="0"/>
        <pt x="252" y="670" on="0"/>
        <pt x="329" y="670" on="1"/>
        <pt x="398" y="670" on="0"/>
        <pt x="497" y="628" on="0"/>
        <pt x="522" y="609" on="1"/>
        <pt x="524" y="584" on="0"/>
        <pt x="519" y="497" on="0"/>
        <pt x="505" y="454" on="1"/>
        <pt x="445" y="454" on="1"/>
        <pt x="438" y="556" on="1"/>
        <pt x="395" y="581" on="0"/>
        <pt x="298" y="604" on="0"/>
        <pt x="241" y="597" on="1"/>
        <pt x="208" y="578" on="0"/>
        <pt x="162" y="520" on="0"/>
        <pt x="134" y="450" on="0"/>
        <pt x="122" y="375" on="0"/>
        <pt x="122" y="340" on="1"/>
        <pt x="122" y="282" on="0"/>
        <pt x="153" y="178" on="0"/>
        <pt x="215" y="104" on="0"/>
        <pt x="306" y="64" on="0"/>
        <pt x="366" y="68" on="1"/>
        <pt x="520" y="122" on="1"/>
        <pt x="538" y="73" on="1"/>
      </contour>
    </TTGlyph>
    <TTGlyph name="Cacute" xMin="20" yMin="-15" xMax="538" yMax="874">
      <component glyphName="C" x="0" y="0" flags="0x204"/>
      <component glyphName="acutecomb.case" x="318" y="0" flags="0x4"/>
    </TTGlyph>
    <TTGlyph name="Ccaron" xMin="20" yMin="-15" xMax="538" yMax="877">
      <component glyphName="C" x="0" y="0" flags="0x204"/>
      <component glyphName="uni030C.case" x="320" y="0" flags="0x4"/>
    </TTGlyph>
    <TTGlyph name="Ccedilla" xMin="20" yMin="-265" xMax="538" yMax="670">
      <component glyphName="C" x="0" y="0" flags="0x204"/>
      <component glyphName="uni0327.case" x="319" y="0" flags="0x4"/>
    </TTGlyph>
    <TTGlyph name="Chi" xMin="10" yMin="0" xMax="660" yMax="650">
      <component glyphName="X" x="0" y="0" flags="0x204"/>
    </TTGlyph>
    <TTGlyph name="D" xMin="30" yMin="0" xMax="635" yMax="658">
      <contour>
        <pt x="30" y="32" on="1"/>
        <pt x="49" y="41" on="0"/>
        <pt x="93" y="56" on="0"/>
        <pt x="115" y="63" on="1"/>
        <pt x="115" y="598" on="1"/>
        <pt x="44" y="602" on="1"/>
        <pt x="45" y="650" on="1"/>
        <pt x="119" y="654" on="0"/>
        <pt x="268" y="658" on="0"/>
        <pt x="342" y="658" on="1"/>
        <pt x="410" y="658" on="0"/>
        <pt x="520" y="601" on="0"/>
        <pt x="595" y="509" on="0"/>
        <pt x="635" y="390" on="0"/>
        <pt x="635" y="329" on="1"/>
        <pt x="635" y="268" on="0"/>
        <pt x="597" y="149" on="0"/>
        <pt x="516" y="57" on="0"/>
        <pt x="389" y="0" on="0"/>
        <pt x="302" y="0" on="1"/>
        <pt x="36" y="0" on="1"/>
      </contour>
      <contour>
        <pt x="392" y="599" on="1"/>
        <pt x="208" y="584" on="1"/>
        <pt x="208" y="79" on="1"/>
        <pt x="233" y="72" on="0"/>
        <pt x="280" y="66" on="0"/>
        <pt x="301" y="66" on="1"/>
        <pt x="360" y="66" on="0"/>
        <pt x="447" y="111" on="0"/>
        <pt x="503" y="185" on="0"/>
        <pt x="531" y="280" on="0"/>
        <pt x="531" y="329" on="1"/>
        <pt x="531" y="419" on="0"/>
        <pt x="451" y="568" on="0"/>
      </contour>
    </TTGlyph>
    <TTGlyph name="Dcaron" xMin="30" yMin="0" xMax="635" yMax="877">
      <component glyphName="D" x="0" y="0" flags="0x204"/>
      <component glyphName="uni030C.case" x="303" y="0" flags="0x4"/>
    </TTGlyph>
    <TTGlyph name="Dcroat" xMin="17" yMin="0" xMax="635" yMax="658">
      <contour>
        <pt x="30" y="32" on="1"/>
        <pt x="49" y="41" on="0"/>
        <pt x="93" y="56" on="0"/>
        <pt x="115" y="63" on="1"/>
        <pt x="115" y="286" on="1"/>
        <pt x="23" y="286" on="1"/>
        <pt x="17" y="315" on="1"/>
        <pt x="60" y="358" on="1"/>
        <pt x="115" y="358" on="1"/>
        <pt x="115" y="598" on="1"/>
        <pt x="44" y="602" on="1"/>
        <pt x="45" y="650" on="1"/>
        <pt x="119" y="654" on="0"/>
        <pt x="268" y="658" on="0"/>
        <pt x="342" y="658" on="1"/>
        <pt x="410" y="658" on="0"/>
        <pt x="520" y="601" on="0"/>
        <pt x="595" y="509" on="0"/>
        <pt x="635" y="390" on="0"/>
        <pt x="635" y="329" on="1"/>
        <pt x="635" y="268" on="0"/>
        <pt x="597" y="149" on="0"/>
        <pt x="516" y="57" on="0"/>
        <pt x="389" y="0" on="0"/>
        <pt x="302" y="0" on="1"/>
        <pt x="36" y="0" on="1"/>
      </contour>
      <contour>
        <pt x="325" y="286" on="1"/>
        <pt x="208" y="286" on="1"/>
        <pt x="208" y="79" on="1"/>
        <pt x="233" y="72" on="0"/>
        <pt x="280" y="66" on="0"/>
        <pt x="301" y="66" on="1"/>
        <pt x="360" y="66" on="0"/>
        <pt x="447" y="111" on="0"/>
        <pt x="503" y="185" on="0"/>
        <pt x="531" y="280" on="0"/>
        <pt x="531" y="329" on="1"/>
        <pt x="531" y="419" on="0"/>
        <pt x="451" y="568" on="0"/>
        <pt x="392" y="599" on="1"/>
        <pt x="208" y="584" on="1"/>
        <pt x="208" y="358" on="1"/>
        <pt x="362" y="358" on="1"/>
        <pt x="368" y="329" on="1"/>
      </contour>
    </TTGlyph>
    <TTGlyph name="Delta" xMin="30" yMin="0" xMax="588" yMax="674">
      <contour>
        <pt x="30" y="64" on="1"/>
        <pt x="267" y="630" on="1"/>
        <pt x="260" y="647" on="1"/>
        <pt x="339" y="674" on="1"/>
        <pt x="588" y="68" on="1"/>
        <pt x="564" y="0" on="1"/>
        <pt x="49" y="0" on="1"/>
      </contour>
      <contour>
        <pt x="300" y="545" on="1"/>
        <pt x="114" y="74" on="1"/>
        <pt x="485" y="76" on="1"/>
      </contour>
    </TTGlyph>
    <TTGlyph name="E" xMin="30" yMin="0" xMax="514" yMax="650">
      <contour>
        <pt x="30" y="32" on="1"/>
        <pt x="49" y="41" on="0"/>
        <pt x="93" y="56" on="0"/>
        <pt x="115" y="63" on="1"/>
        <pt x="115" y="598" on="1"/>
        <pt x="44" y="602" on="1"/>
        <pt x="45" y="650" on="1"/>
        <pt x="502" y="650" on="1"/>
        <pt x="504" y="625" on="0"/>
        <pt x="500" y="531" on="0"/>
        <pt x="492" y="485" on="1"/>
        <pt x="438" y="485" on="1"/>
        <pt x="426" y="577" on="1"/>
        <pt x="208" y="592" on="1"/>
        <pt x="208" y="354" on="1"/>
        <pt x="437" y="371" on="1"/>
        <pt x="437" y="284" on="1"/>
        <pt x="208" y="294" on="1"/>
        <pt x="208" y="65" on="1"/>
        <pt x="435" y="75" on="1"/>
        <pt x="461" y="183" on="1"/>
        <pt x="514" y="179" on="1"/>
        <pt x="515" y="159" on="0"/>
        <pt x="513" y="110" on="0"/>
        <pt x="510" y="61" on="0"/>
        <pt x="505" y="16" on="0"/>
        <pt x="502" y="0" on="1"/>
        <pt x="36" y="0" on="1"/>
      </contour>
    </TTGlyph>
    <TTGlyph name="Eacute" xMin="30" yMin="0" xMax="514" yMax="874">
      <component glyphName="E" x="0" y="0" flags="0x204"/>
      <component glyphName="acutecomb.case" x="289" y="0" flags="0x4"/>
    </TTGlyph>
    <TTGlyph name="Ecaron" xMin="30" yMin="0" xMax="514" yMax="877">
      <component glyphName="E" x="0" y="0" flags="0x204"/>
      <component glyphName="uni030C.case" x="291" y="0" flags="0x4"/>
    </TTGlyph>
    <TTGlyph name="Ecircumflex" xMin="30" yMin="0" xMax="514" yMax="873">
      <component glyphName="E" x="0" y="0" flags="0x204"/>
      <component glyphName="uni0302.case" x="291" y="0" flags="0x4"/>
    </TTGlyph>
    <TTGlyph name="Edieresis" xMin="30" yMin="0" xMax="514" yMax="859">
      <component glyphName="E" x="0" y="0" flags="0x204"/>
      <component glyphName="uni0308.case" x="290" y="182" flags="0x4"/>
    </TTGlyph>
    <TTGlyph name="Edotaccent" xMin="30" yMin="0" xMax="514" yMax="859">
      <component glyphName="E" x="0" y="0" flags="0x204"/>
      <component glyphName="uni0307.case" x="290" y="182" flags="0x4"/>
    </TTGlyph>
    <TTGlyph name="Egrave" xMin="30" yMin="0" xMax="514" yMax="874">
      <component glyphName="E" x="0" y="0" flags="0x204"/>
      <component glyphName="gravecomb.case" x="292" y="0" flags="0x4"/>
    </TTGlyph>
    <TTGlyph name="Emacron" xMin="30" yMin="0" xMax="514" yMax="811">
      <component glyphName="E" x="0" y="0" flags="0x204"/>
      <component glyphName="uni0304.case" x="289" y="0" flags="0x4"/>
    </TTGlyph>
    <TTGlyph name="Eogonek" xMin="30" yMin="-254" xMax="544" yMax="650">
      <component glyphName="E" x="0" y="0" flags="0x204"/>
      <component glyphName="uni0328.case" x="503" y="-9" flags="0x4"/>
    </TTGlyph>
    <TTGlyph name="Epsilon" xMin="30" yMin="0" xMax="514" yMax="650">
      <component glyphName="E" x="0" y="0" flags="0x204"/>
    </TTGlyph>
    <TTGlyph name="Epsilonacute" xMin="-166" yMin="0" xMax="514" yMax="654">
      <component glyphName="Epsilon" x="0" y="0" flags="0x204"/>
      <component glyphName="grAcute.case" x="-185" y="0" flags="0x4"/>
    </TTGlyph>
    <TTGlyph name="Epsilonasper" xMin="-160" yMin="0" xMax="514" yMax="654">
      <component glyphName="Epsilon" x="0" y="0" flags="0x204"/>
      <component glyphName="asper.case" x="-185" y="0" flags="0x4"/>
    </TTGlyph>
    <TTGlyph name="Epsilonasperacute" xMin="-316" yMin="0" xMax="514" yMax="654">
      <component glyphName="Epsilon" x="0" y="0" flags="0x204"/>
      <component glyphName="asperacute.case" x="-185" y="0" flags="0x4"/>
    </TTGlyph>
    <TTGlyph name="Epsilonaspergrave" xMin="-322" yMin="0" xMax="514" yMax="654">
      <component glyphName="Epsilon" x="0" y="0" flags="0x204"/>
      <component glyphName="aspergrave.case" x="-185" y="0" flags="0x4"/>
    </TTGlyph>
    <TTGlyph name="Epsilongrave" xMin="-176" yMin="0" xMax="514" yMax="654">
      <component glyphName="Epsilon" x="0" y="0" flags="0x204"/>
      <component glyphName="grGrave.case" x="-185" y="0" flags="0x4"/>
    </TTGlyph>
    <TTGlyph name="Epsilonlenis" xMin="-150" yMin="0" xMax="514" yMax="654">
      <component glyphName="Epsilon" x="0" y="0" flags="0x204"/>
      <component glyphName="lenis.case" x="-185" y="0" flags="0x4"/>
    </TTGlyph>
    <TTGlyph name="Epsilonlenisacute" xMin="-302" yMin="0" xMax="514" yMax="654">
      <component glyphName="Epsilon" x="0" y="0" flags="0x204"/>
      <component glyphName="lenisacute.case" x="-185" y="0" flags="0x4"/>
    </TTGlyph>
    <TTGlyph name="Epsilonlenisgrave" xMin="-321" yMin="0" xMax="514" yMax="654">
      <component glyphName="Epsilon" x="0" y="0" flags="0x204"/>
      <component glyphName="lenisgrave.case" x="-185" y="0" flags="0x4"/>
    </TTGlyph>
    <TTGlyph name="Epsilonwithtonos" xMin="-166" yMin="0" xMax="514" yMax="654">
      <component glyphName="Epsilon" x="0" y="0" flags="0x204"/>
      <component glyphName="tonos.case" x="-185" y="0" flags="0x4"/>
    </TTGlyph>
    <TTGlyph name="Eta" xMin="30" yMin="0" xMax="721" yMax="650">
      <component glyphName="H" x="0" y="0" flags="0x204"/>
    </TTGlyph>
    <TTGlyph name="Etaacute" xMin="-171" yMin="0" xMax="721" yMax="654">
      <component glyphName="Eta" x="0" y="0" flags="0x204"/>
      <component glyphName="grAcute.case" x="-190" y="0" flags="0x4"/>
    </TTGlyph>
    <TTGlyph name="Etaasper" xMin="-165" yMin="0" xMax="721" yMax="654">
      <component glyphName="Eta" x="0" y="0" flags="0x204"/>
      <component glyphName="asper.case" x="-190" y="0" flags="0x4"/>
    </TTGlyph>
    <TTGlyph name="Etaasperacute" xMin="-321" yMin="0" xMax="721" yMax="654">
      <component glyphName="Eta" x="0" y="0" flags="0x204"/>
      <component glyphName="asperacute.case" x="-190" y="0" flags="0x4"/>
    </TTGlyph>
    <TTGlyph name="Etaasperacuteiotasub" xMin="-321" yMin="-225" xMax="721" yMax="654">
      <component glyphName="Eta" x="0" y="0" flags="0x204"/>
      <component glyphName="asperacute.case" x="-190" y="0" flags="0x4"/>
      <component glyphName="iotaadscript.case" x="264" y="0" flags="0x4"/>
    </TTGlyph>
    <TTGlyph name="Etaaspergrave" xMin="-327" yMin="0" xMax="721" yMax="654">
      <component glyphName="Eta" x="0" y="0" flags="0x204"/>
      <component glyphName="aspergrave.case" x="-190" y="0" flags="0x4"/>
    </TTGlyph>
    <TTGlyph name="Etaaspergraveiotasub" xMin="-327" yMin="-225" xMax="721" yMax="654">
      <component glyphName="Eta" x="0" y="0" flags="0x204"/>
      <component glyphName="aspergrave.case" x="-190" y="0" flags="0x4"/>
      <component glyphName="iotaadscript.case" x="264" y="0" flags="0x4"/>
    </TTGlyph>
    <TTGlyph name="Etaasperiotasub" xMin="-165" yMin="-225" xMax="721" yMax="654">
      <component glyphName="Eta" x="0" y="0" flags="0x204"/>
      <component glyphName="asper.case" x="-190" y="0" flags="0x4"/>
      <component glyphName="iotaadscript.case" x="264" y="0" flags="0x4"/>
    </TTGlyph>
    <TTGlyph name="Etaaspertilde" xMin="-314" yMin="0" xMax="721" yMax="671">
      <component glyphName="Eta" x="0" y="0" flags="0x204"/>
      <component glyphName="aspertilde.case" x="-190" y="0" flags="0x4"/>
    </TTGlyph>
    <TTGlyph name="Etaaspertildeiotasub" xMin="-314" yMin="-225" xMax="721" yMax="671">
      <component glyphName="Eta" x="0" y="0" flags="0x204"/>
      <component glyphName="aspertilde.case" x="-190" y="0" flags="0x4"/>
      <component glyphName="iotaadscript.case" x="264" y="0" flags="0x4"/>
    </TTGlyph>
    <TTGlyph name="Etagrave" xMin="-181" yMin="0" xMax="721" yMax="654">
      <component glyphName="Eta" x="0" y="0" flags="0x204"/>
      <component glyphName="grGrave.case" x="-190" y="0" flags="0x4"/>
    </TTGlyph>
    <TTGlyph name="Etaiotasub" xMin="30" yMin="-225" xMax="721" yMax="650">
      <component glyphName="Eta" x="0" y="0" flags="0x204"/>
      <component glyphName="iotaadscript.case" x="264" y="0" flags="0x4"/>
    </TTGlyph>
    <TTGlyph name="Etalenis" xMin="-155" yMin="0" xMax="721" yMax="654">
      <component glyphName="Eta" x="0" y="0" flags="0x204"/>
      <component glyphName="lenis.case" x="-190" y="0" flags="0x4"/>
    </TTGlyph>
    <TTGlyph name="Etalenisacute" xMin="-307" yMin="0" xMax="721" yMax="654">
      <component glyphName="Eta" x="0" y="0" flags="0x204"/>
      <component glyphName="lenisacute.case" x="-190" y="0" flags="0x4"/>
    </TTGlyph>
    <TTGlyph name="Etalenisacuteiotasub" xMin="-307" yMin="-225" xMax="721" yMax="654">
      <component glyphName="Eta" x="0" y="0" flags="0x204"/>
      <component glyphName="lenisacute.case" x="-190" y="0" flags="0x4"/>
      <component glyphName="iotaadscript.case" x="264" y="0" flags="0x4"/>
    </TTGlyph>
    <TTGlyph name="Etalenisgrave" xMin="-326" yMin="0" xMax="721" yMax="654">
      <component glyphName="Eta" x="0" y="0" flags="0x204"/>
      <component glyphName="lenisgrave.case" x="-190" y="0" flags="0x4"/>
    </TTGlyph>
    <TTGlyph name="Etalenisgraveiotasub" xMin="-326" yMin="-225" xMax="721" yMax="654">
      <component glyphName="Eta" x="0" y="0" flags="0x204"/>
      <component glyphName="lenisgrave.case" x="-190" y="0" flags="0x4"/>
      <component glyphName="iotaadscript.case" x="264" y="0" flags="0x4"/>
    </TTGlyph>
    <TTGlyph name="Etalenisiotasub" xMin="-155" yMin="-225" xMax="721" yMax="654">
      <component glyphName="Eta" x="0" y="0" flags="0x204"/>
      <component glyphName="lenis.case" x="-190" y="0" flags="0x4"/>
      <component glyphName="iotaadscript.case" x="264" y="0" flags="0x4"/>
    </TTGlyph>
    <TTGlyph name="Etalenistilde" xMin="-314" yMin="0" xMax="721" yMax="671">
      <component glyphName="Eta" x="0" y="0" flags="0x204"/>
      <component glyphName="lenistilde.case" x="-190" y="0" flags="0x4"/>
    </TTGlyph>
    <TTGlyph name="Etalenistildeiotasub" xMin="-314" yMin="-225" xMax="721" yMax="671">
      <component glyphName="Eta" x="0" y="0" flags="0x204"/>
      <component glyphName="lenistilde.case" x="-190" y="0" flags="0x4"/>
      <component glyphName="iotaadscript.case" x="264" y="0" flags="0x4"/>
    </TTGlyph>
    <TTGlyph name="Etawithtonos" xMin="-171" yMin="0" xMax="721" yMax="654">
      <component glyphName="Eta" x="0" y="0" flags="0x204"/>
      <component glyphName="tonos.case" x="-190" y="0" flags="0x4"/>
    </TTGlyph>
    <TTGlyph name="Eth" xMin="17" yMin="0" xMax="635" yMax="658">
      <component glyphName="Dcroat" x="0" y="0" flags="0x204"/>
    </TTGlyph>
    <TTGlyph name="Euro" xMin="-32" yMin="-20" xMax="572" yMax="670">
      <contour>
        <pt x="-32" y="228" on="1"/>
        <pt x="1" y="264" on="1"/>
        <pt x="87" y="264" on="1"/>
        <pt x="86" y="276" on="0"/>
        <pt x="84" y="300" on="0"/>
        <pt x="84" y="312" on="1"/>
        <pt x="84" y="323" on="0"/>
        <pt x="85" y="345" on="0"/>
        <pt x="86" y="356" on="1"/>
        <pt x="1" y="356" on="1"/>
        <pt x="-5" y="375" on="1"/>
        <pt x="29" y="411" on="1"/>
        <pt x="94" y="411" on="1"/>
        <pt x="105" y="462" on="0"/>
        <pt x="152" y="556" on="0"/>
        <pt x="224" y="627" on="0"/>
        <pt x="325" y="670" on="0"/>
        <pt x="390" y="670" on="1"/>
        <pt x="445" y="670" on="0"/>
        <pt x="536" y="638" on="0"/>
        <pt x="572" y="609" on="1"/>
        <pt x="571" y="571" on="0"/>
        <pt x="559" y="491" on="0"/>
        <pt x="553" y="468" on="1"/>
        <pt x="498" y="468" on="1"/>
        <pt x="492" y="569" on="1"/>
        <pt x="451" y="594" on="0"/>
        <pt x="365" y="617" on="0"/>
        <pt x="322" y="612" on="1"/>
        <pt x="274" y="584" on="0"/>
        <pt x="209" y="477" on="0"/>
        <pt x="195" y="411" on="1"/>
        <pt x="520" y="411" on="1"/>
        <pt x="526" y="392" on="1"/>
        <pt x="493" y="356" on="1"/>
        <pt x="188" y="356" on="1"/>
        <pt x="187" y="346" on="0"/>
        <pt x="186" y="327" on="0"/>
        <pt x="186" y="317" on="1"/>
        <pt x="186" y="304" on="0"/>
        <pt x="188" y="277" on="0"/>
        <pt x="189" y="264" on="1"/>
        <pt x="480" y="264" on="1"/>
        <pt x="486" y="245" on="1"/>
        <pt x="452" y="209" on="1"/>
        <pt x="201" y="209" on="1"/>
        <pt x="220" y="149" on="0"/>
        <pt x="319" y="67" on="0"/>
        <pt x="409" y="63" on="1"/>
        <pt x="554" y="105" on="1"/>
        <pt x="572" y="57" on="1"/>
        <pt x="387" y="-20" on="1"/>
        <pt x="268" y="-16" on="0"/>
        <pt x="121" y="112" on="0"/>
        <pt x="96" y="209" on="1"/>
        <pt x="-26" y="209" on="1"/>
      </contour>
    </TTGlyph>
    <TTGlyph name="F" xMin="30" yMin="0" xMax="503" yMax="650">
      <contour>
        <pt x="30" y="32" on="1"/>
        <pt x="49" y="41" on="0"/>
        <pt x="93" y="56" on="0"/>
        <pt x="115" y="63" on="1"/>
        <pt x="115" y="598" on="1"/>
        <pt x="44" y="602" on="1"/>
        <pt x="45" y="650" on="1"/>
        <pt x="502" y="650" on="1"/>
        <pt x="504" y="625" on="0"/>
        <pt x="500" y="531" on="0"/>
        <pt x="492" y="485" on="1"/>
        <pt x="438" y="485" on="1"/>
        <pt x="426" y="577" on="1"/>
        <pt x="208" y="592" on="1"/>
        <pt x="208" y="334" on="1"/>
        <pt x="437" y="351" on="1"/>
        <pt x="437" y="264" on="1"/>
        <pt x="208" y="274" on="1"/>
        <pt x="208" y="61" on="1"/>
        <pt x="325" y="47" on="1"/>
        <pt x="324" y="0" on="1"/>
        <pt x="36" y="0" on="1"/>
      </contour>
    </TTGlyph>
    <TTGlyph name="G" xMin="20" yMin="-20" xMax="645" yMax="670">
      <contour>
        <pt x="374" y="-20" on="1"/>
        <pt x="285" y="-25" on="0"/>
        <pt x="151" y="29" on="0"/>
        <pt x="64" y="123" on="0"/>
        <pt x="20" y="246" on="0"/>
        <pt x="20" y="311" on="1"/>
        <pt x="20" y="378" on="0"/>
        <pt x="62" y="508" on="0"/>
        <pt x="147" y="608" on="0"/>
        <pt x="277" y="670" on="0"/>
        <pt x="364" y="670" on="1"/>
        <pt x="437" y="670" on="0"/>
        <pt x="541" y="627" on="0"/>
        <pt x="564" y="609" on="1"/>
        <pt x="566" y="584" on="0"/>
        <pt x="560" y="508" on="0"/>
        <pt x="547" y="464" on="1"/>
        <pt x="488" y="464" on="1"/>
        <pt x="480" y="553" on="1"/>
        <pt x="443" y="573" on="0"/>
        <pt x="323" y="607" on="0"/>
        <pt x="250" y="597" on="1"/>
        <pt x="216" y="578" on="0"/>
        <pt x="167" y="519" on="0"/>
        <pt x="136" y="445" on="0"/>
        <pt x="122" y="362" on="0"/>
        <pt x="122" y="319" on="1"/>
        <pt x="122" y="269" on="0"/>
        <pt x="151" y="173" on="0"/>
        <pt x="207" y="99" on="0"/>
        <pt x="291" y="54" on="0"/>
        <pt x="347" y="54" on="1"/>
        <pt x="380" y="54" on="0"/>
        <pt x="447" y="67" on="0"/>
        <pt x="476" y="76" on="1"/>
        <pt x="476" y="227" on="1"/>
        <pt x="451" y="234" on="0"/>
        <pt x="392" y="254" on="0"/>
        <pt x="366" y="266" on="1"/>
        <pt x="372" y="301" on="1"/>
        <pt x="644" y="301" on="1"/>
        <pt x="645" y="252" on="1"/>
        <pt x="569" y="243" on="1"/>
        <pt x="569" y="71" on="1"/>
      </contour>
    </TTGlyph>
    <TTGlyph name="Gamma" xMin="30" yMin="0" xMax="498" yMax="650">
      <contour>
        <pt x="30" y="32" on="1"/>
        <pt x="49" y="41" on="0"/>
        <pt x="93" y="56" on="0"/>
        <pt x="115" y="63" on="1"/>
        <pt x="115" y="598" on="1"/>
        <pt x="44" y="602" on="1"/>
        <pt x="45" y="650" on="1"/>
        <pt x="497" y="650" on="1"/>
        <pt x="499" y="624" on="0"/>
        <pt x="496" y="525" on="0"/>
        <pt x="487" y="476" on="1"/>
        <pt x="433" y="476" on="1"/>
        <pt x="423" y="577" on="1"/>
        <pt x="208" y="592" on="1"/>
        <pt x="208" y="61" on="1"/>
        <pt x="325" y="47" on="1"/>
        <pt x="324" y="0" on="1"/>
        <pt x="36" y="0" on="1"/>
      </contour>
    </TTGlyph>
    <TTGlyph name="Gbreve" xMin="20" yMin="-20" xMax="645" yMax="853">
      <component glyphName="G" x="0" y="0" flags="0x204"/>
      <component glyphName="uni0306.case" x="345" y="0" flags="0x4"/>
    </TTGlyph>
    <TTGlyph name="Gcommaaccent" xMin="20" yMin="-264" xMax="645" yMax="670">
      <component glyphName="G" x="0" y="0" flags="0x204"/>
      <component glyphName="uni0326.case" x="344" y="0" flags="0x4"/>
    </TTGlyph>
    <TTGlyph name="H" xMin="30" yMin="0" xMax="721" yMax="650">
      <contour>
        <pt x="30" y="32" on="1"/>
        <pt x="49" y="41" on="0"/>
        <pt x="93" y="56" on="0"/>
        <pt x="115" y="63" on="1"/>
        <pt x="115" y="594" on="1"/>
        <pt x="38" y="603" on="1"/>
        <pt x="39" y="650" on="1"/>
        <pt x="287" y="650" on="1"/>
        <pt x="293" y="618" on="1"/>
        <pt x="274" y="609" on="0"/>
        <pt x="230" y="594" on="0"/>
        <pt x="208" y="587" on="1"/>
        <pt x="208" y="357" on="1"/>
        <pt x="531" y="357" on="1"/>
        <pt x="531" y="594" on="1"/>
        <pt x="454" y="603" on="1"/>
        <pt x="455" y="650" on="1"/>
        <pt x="703" y="650" on="1"/>
        <pt x="709" y="618" on="1"/>
        <pt x="690" y="609" on="0"/>
        <pt x="646" y="594" on="0"/>
        <pt x="624" y="587" on="1"/>
        <pt x="624" y="58" on="1"/>
        <pt x="721" y="47" on="1"/>
        <pt x="720" y="0" on="1"/>
        <pt x="452" y="0" on="1"/>
        <pt x="446" y="32" on="1"/>
        <pt x="465" y="41" on="0"/>
        <pt x="509" y="56" on="0"/>
        <pt x="531" y="63" on="1"/>
        <pt x="531" y="287" on="1"/>
        <pt x="208" y="287" on="1"/>
        <pt x="208" y="58" on="1"/>
        <pt x="305" y="47" on="1"/>
        <pt x="304" y="0" on="1"/>
        <pt x="36" y="0" on="1"/>
      </contour>
    </TTGlyph>
    <TTGlyph name="I" xMin="30" yMin="0" xMax="305" yMax="650">
      <contour>
        <pt x="30" y="32" on="1"/>
        <pt x="49" y="41" on="0"/>
        <pt x="93" y="56" on="0"/>
        <pt x="115" y="63" on="1"/>
        <pt x="115" y="594" on="1"/>
        <pt x="38" y="603" on="1"/>
        <pt x="39" y="650" on="1"/>
        <pt x="287" y="650" on="1"/>
        <pt x="293" y="618" on="1"/>
        <pt x="274" y="609" on="0"/>
        <pt x="230" y="594" on="0"/>
        <pt x="208" y="587" on="1"/>
        <pt x="208" y="58" on="1"/>
        <pt x="305" y="47" on="1"/>
        <pt x="304" y="0" on="1"/>
        <pt x="36" y="0" on="1"/>
      </contour>
    </TTGlyph>
    <TTGlyph name="Iacute" xMin="30" yMin="0" xMax="327" yMax="874">
      <component glyphName="I" x="0" y="0" flags="0x204"/>
      <component glyphName="acutecomb.case" x="161" y="0" flags="0x4"/>
    </TTGlyph>
    <TTGlyph name="Icircumflex" xMin="-23" yMin="0" xMax="351" yMax="873">
      <component glyphName="I" x="0" y="0" flags="0x204"/>
      <component glyphName="uni0302.case" x="163" y="0" flags="0x4"/>
    </TTGlyph>
    <TTGlyph name="Idieresis" xMin="2" yMin="0" xMax="323" yMax="859">
      <component glyphName="I" x="0" y="0" flags="0x204"/>
      <component glyphName="uni0308.case" x="162" y="182" flags="0x4"/>
    </TTGlyph>
    <TTGlyph name="Idotaccent" xMin="30" yMin="0" xMax="305" yMax="859">
      <component glyphName="I" x="0" y="0" flags="0x204"/>
      <component glyphName="uni0307.case" x="162" y="182" flags="0x4"/>
    </TTGlyph>
    <TTGlyph name="Igrave" xMin="30" yMin="0" xMax="305" yMax="874">
      <component glyphName="I" x="0" y="0" flags="0x204"/>
      <component glyphName="gravecomb.case" x="164" y="0" flags="0x4"/>
    </TTGlyph>
    <TTGlyph name="Imacron" xMin="30" yMin="0" xMax="331" yMax="784">
      <contour>
        <pt x="30" y="759" on="1"/>
        <pt x="59" y="774" on="0"/>
        <pt x="120" y="784" on="0"/>
        <pt x="143" y="784" on="1"/>
        <pt x="326" y="784" on="1"/>
        <pt x="331" y="749" on="1"/>
        <pt x="284" y="715" on="1"/>
        <pt x="36" y="715" on="1"/>
      </contour>
      <contour>
        <pt x="43" y="32" on="1"/>
        <pt x="62" y="41" on="0"/>
        <pt x="106" y="56" on="0"/>
        <pt x="128" y="63" on="1"/>
        <pt x="128" y="594" on="1"/>
        <pt x="51" y="603" on="1"/>
        <pt x="52" y="650" on="1"/>
        <pt x="300" y="650" on="1"/>
        <pt x="306" y="618" on="1"/>
        <pt x="287" y="609" on="0"/>
        <pt x="243" y="594" on="0"/>
        <pt x="221" y="587" on="1"/>
        <pt x="221" y="58" on="1"/>
        <pt x="318" y="47" on="1"/>
        <pt x="317" y="0" on="1"/>
        <pt x="49" y="0" on="1"/>
      </contour>
    </TTGlyph>
    <TTGlyph name="Iogonek" xMin="30" yMin="-254" xMax="305" yMax="650">
      <component glyphName="I" x="0" y="0" flags="0x204"/>
      <component glyphName="uni0328.case" x="233" y="-9" flags="0x4"/>
    </TTGlyph>
    <TTGlyph name="Iota" xMin="30" yMin="0" xMax="305" yMax="650">
      <component glyphName="I" x="0" y="0" flags="0x204"/>
    </TTGlyph>
    <TTGlyph name="Iotaacute" xMin="-171" yMin="0" xMax="305" yMax="654">
      <component glyphName="Iota" x="0" y="0" flags="0x204"/>
      <component glyphName="grAcute.case" x="-190" y="0" flags="0x4"/>
    </TTGlyph>
    <TTGlyph name="Iotaasper" xMin="-165" yMin="0" xMax="305" yMax="654">
      <component glyphName="Iota" x="0" y="0" flags="0x204"/>
      <component glyphName="asper.case" x="-190" y="0" flags="0x4"/>
    </TTGlyph>
    <TTGlyph name="Iotaasperacute" xMin="-321" yMin="0" xMax="305" yMax="654">
      <component glyphName="Iota" x="0" y="0" flags="0x204"/>
      <component glyphName="asperacute.case" x="-190" y="0" flags="0x4"/>
    </TTGlyph>
    <TTGlyph name="Iotaaspergrave" xMin="-327" yMin="0" xMax="305" yMax="654">
      <component glyphName="Iota" x="0" y="0" flags="0x204"/>
      <component glyphName="aspergrave.case" x="-190" y="0" flags="0x4"/>
    </TTGlyph>
    <TTGlyph name="Iotaaspertilde" xMin="-314" yMin="0" xMax="305" yMax="671">
      <component glyphName="Iota" x="0" y="0" flags="0x204"/>
      <component glyphName="aspertilde.case" x="-190" y="0" flags="0x4"/>
    </TTGlyph>
    <TTGlyph name="Iotabreve" xMin="22" yMin="0" xMax="312" yMax="853">
      <component glyphName="Iota" x="0" y="0" flags="0x204"/>
      <component glyphName="uni0306.case" x="167" y="0" flags="0x4"/>
    </TTGlyph>
    <TTGlyph name="Iotadieresis" xMin="6" yMin="0" xMax="327" yMax="859">
      <component glyphName="Iota" x="0" y="0" flags="0x204"/>
      <component glyphName="uni0308" x="166" y="182" flags="0x4"/>
    </TTGlyph>
    <TTGlyph name="Iotagrave" xMin="-181" yMin="0" xMax="305" yMax="654">
      <component glyphName="Iota" x="0" y="0" flags="0x204"/>
      <component glyphName="grGrave.case" x="-190" y="0" flags="0x4"/>
    </TTGlyph>
    <TTGlyph name="Iotalenis" xMin="-155" yMin="0" xMax="305" yMax="654">
      <component glyphName="Iota" x="0" y="0" flags="0x204"/>
      <component glyphName="lenis.case" x="-190" y="0" flags="0x4"/>
    </TTGlyph>
    <TTGlyph name="Iotalenisacute" xMin="-307" yMin="0" xMax="305" yMax="654">
      <component glyphName="Iota" x="0" y="0" flags="0x204"/>
      <component glyphName="lenisacute.case" x="-190" y="0" flags="0x4"/>
    </TTGlyph>
    <TTGlyph name="Iotalenisgrave" xMin="-326" yMin="0" xMax="305" yMax="654">
      <component glyphName="Iota" x="0" y="0" flags="0x204"/>
      <component glyphName="lenisgrave.case" x="-190" y="0" flags="0x4"/>
    </TTGlyph>
    <TTGlyph name="Iotalenistilde" xMin="-314" yMin="0" xMax="305" yMax="671">
      <component glyphName="Iota" x="0" y="0" flags="0x204"/>
      <component glyphName="lenistilde.case" x="-190" y="0" flags="0x4"/>
    </TTGlyph>
    <TTGlyph name="Iotawithmacron" xMin="-20" yMin="0" xMax="371" yMax="811">
      <component glyphName="Iota" x="0" y="0" flags="0x204"/>
      <component glyphName="uni0304.case" x="165" y="0" flags="0x4"/>
    </TTGlyph>
    <TTGlyph name="Iotawithtonos" xMin="-171" yMin="0" xMax="305" yMax="654">
      <component glyphName="Iota" x="0" y="0" flags="0x204"/>
      <component glyphName="tonos.case" x="-190" y="0" flags="0x4"/>
    </TTGlyph>
    <TTGlyph name="J" xMin="-4" yMin="-182" xMax="317" yMax="650">
      <contour>
        <pt x="-4" y="-131" on="1"/>
        <pt x="59" y="-91" on="0"/>
        <pt x="139" y="21" on="0"/>
        <pt x="139" y="128" on="1"/>
        <pt x="139" y="592" on="1"/>
        <pt x="42" y="603" on="1"/>
        <pt x="43" y="650" on="1"/>
        <pt x="311" y="650" on="1"/>
        <pt x="317" y="618" on="1"/>
        <pt x="298" y="609" on="0"/>
        <pt x="254" y="594" on="0"/>
        <pt x="232" y="587" on="1"/>
        <pt x="232" y="81" on="1"/>
        <pt x="232" y="33" on="0"/>
        <pt x="197" y="-45" on="0"/>
        <pt x="141" y="-108" on="0"/>
        <pt x="69" y="-160" on="0"/>
        <pt x="32" y="-182" on="1"/>
      </contour>
    </TTGlyph>
    <TTGlyph name="K" xMin="30" yMin="0" xMax="638" yMax="650">
      <contour>
        <pt x="30" y="32" on="1"/>
        <pt x="49" y="41" on="0"/>
        <pt x="93" y="56" on="0"/>
        <pt x="115" y="63" on="1"/>
        <pt x="115" y="594" on="1"/>
        <pt x="37" y="603" on="1"/>
        <pt x="38" y="650" on="1"/>
        <pt x="287" y="650" on="1"/>
        <pt x="293" y="618" on="1"/>
        <pt x="274" y="609" on="0"/>
        <pt x="230" y="594" on="0"/>
        <pt x="208" y="587" on="1"/>
        <pt x="208" y="330" on="1"/>
        <pt x="455" y="595" on="1"/>
        <pt x="385" y="603" on="1"/>
        <pt x="386" y="650" on="1"/>
        <pt x="603" y="650" on="1"/>
        <pt x="609" y="618" on="1"/>
        <pt x="593" y="611" on="0"/>
        <pt x="557" y="598" on="0"/>
        <pt x="539" y="592" on="1"/>
        <pt x="337" y="376" on="1"/>
        <pt x="580" y="52" on="1"/>
        <pt x="638" y="48" on="1"/>
        <pt x="637" y="0" on="1"/>
        <pt x="499" y="0" on="1"/>
        <pt x="274" y="309" on="1"/>
        <pt x="208" y="238" on="1"/>
        <pt x="208" y="58" on="1"/>
        <pt x="305" y="47" on="1"/>
        <pt x="304" y="0" on="1"/>
        <pt x="36" y="0" on="1"/>
      </contour>
    </TTGlyph>
    <TTGlyph name="KORONIS" xMin="123" yMin="529" xMax="247" yMax="765">
      <component glyphName="lenis" x="0" y="0" flags="0x204"/>
    </TTGlyph>
    <TTGlyph name="Kappa" xMin="30" yMin="0" xMax="638" yMax="650">
      <component glyphName="K" x="0" y="0" flags="0x204"/>
    </TTGlyph>
    <TTGlyph name="Kcommaaccent" xMin="30" yMin="-264" xMax="638" yMax="650">
      <component glyphName="K" x="0" y="0" flags="0x204"/>
      <component glyphName="uni0326.case" x="365" y="0" flags="0x4"/>
    </TTGlyph>
    <TTGlyph name="L" xMin="30" yMin="0" xMax="534" yMax="650">
      <contour>
        <pt x="30" y="32" on="1"/>
        <pt x="49" y="41" on="0"/>
        <pt x="93" y="56" on="0"/>
        <pt x="115" y="63" on="1"/>
        <pt x="115" y="594" on="1"/>
        <pt x="38" y="603" on="1"/>
        <pt x="39" y="650" on="1"/>
        <pt x="287" y="650" on="1"/>
        <pt x="293" y="618" on="1"/>
        <pt x="274" y="609" on="0"/>
        <pt x="230" y="594" on="0"/>
        <pt x="208" y="587" on="1"/>
        <pt x="208" y="67" on="1"/>
        <pt x="452" y="77" on="1"/>
        <pt x="478" y="203" on="1"/>
        <pt x="534" y="199" on="1"/>
        <pt x="534" y="176" on="0"/>
        <pt x="533" y="121" on="0"/>
        <pt x="530" y="67" on="0"/>
        <pt x="525" y="18" on="0"/>
        <pt x="522" y="0" on="1"/>
        <pt x="36" y="0" on="1"/>
      </contour>
    </TTGlyph>
    <TTGlyph name="Lacute" xMin="30" yMin="0" xMax="534" yMax="874">
      <component glyphName="L" x="0" y="0" flags="0x204"/>
      <component glyphName="acutecomb.case" x="159" y="0" flags="0x4"/>
    </TTGlyph>
    <TTGlyph name="Lamda" xMin="-20" yMin="0" xMax="696" yMax="674">
      <contour>
        <pt x="-20" y="32" on="1"/>
        <pt x="-1" y="41" on="0"/>
        <pt x="41" y="55" on="0"/>
        <pt x="63" y="62" on="1"/>
        <pt x="297" y="629" on="1"/>
        <pt x="290" y="647" on="1"/>
        <pt x="369" y="674" on="1"/>
        <pt x="623" y="55" on="1"/>
        <pt x="696" y="47" on="1"/>
        <pt x="695" y="0" on="1"/>
        <pt x="427" y="0" on="1"/>
        <pt x="421" y="32" on="1"/>
        <pt x="443" y="42" on="0"/>
        <pt x="495" y="60" on="0"/>
        <pt x="519" y="67" on="1"/>
        <pt x="330" y="544" on="1"/>
        <pt x="140" y="59" on="1"/>
        <pt x="245" y="47" on="1"/>
        <pt x="244" y="0" on="1"/>
        <pt x="-14" y="0" on="1"/>
      </contour>
    </TTGlyph>
    <TTGlyph name="Lcaron" xMin="30" yMin="0" xMax="534" yMax="763">
      <component glyphName="L" x="0" y="0" flags="0x204"/>
      <component glyphName="uni030C.calt" x="406" y="1" flags="0x4"/>
    </TTGlyph>
    <TTGlyph name="Lcommaaccent" xMin="30" yMin="-264" xMax="534" yMax="650">
      <component glyphName="L" x="0" y="0" flags="0x204"/>
      <component glyphName="uni0326.case" x="272" y="0" flags="0x4"/>
    </TTGlyph>
    <TTGlyph name="Lslash" xMin="30" yMin="0" xMax="550" yMax="650">
      <contour>
        <pt x="46" y="32" on="1"/>
        <pt x="65" y="41" on="0"/>
        <pt x="109" y="56" on="0"/>
        <pt x="131" y="63" on="1"/>
        <pt x="131" y="239" on="1"/>
        <pt x="63" y="199" on="1"/>
        <pt x="30" y="258" on="1"/>
        <pt x="131" y="317" on="1"/>
        <pt x="131" y="594" on="1"/>
        <pt x="54" y="603" on="1"/>
        <pt x="55" y="650" on="1"/>
        <pt x="303" y="650" on="1"/>
        <pt x="309" y="618" on="1"/>
        <pt x="290" y="609" on="0"/>
        <pt x="246" y="594" on="0"/>
        <pt x="224" y="587" on="1"/>
        <pt x="224" y="372" on="1"/>
        <pt x="367" y="456" on="1"/>
        <pt x="385" y="433" on="1"/>
        <pt x="374" y="380" on="1"/>
        <pt x="224" y="293" on="1"/>
        <pt x="224" y="67" on="1"/>
        <pt x="468" y="77" on="1"/>
        <pt x="494" y="203" on="1"/>
        <pt x="550" y="199" on="1"/>
        <pt x="550" y="176" on="0"/>
        <pt x="549" y="121" on="0"/>
        <pt x="546" y="67" on="0"/>
        <pt x="541" y="18" on="0"/>
        <pt x="538" y="0" on="1"/>
        <pt x="52" y="0" on="1"/>
      </contour>
    </TTGlyph>
    <TTGlyph name="M" xMin="30" yMin="-7" xMax="871" yMax="650">
      <contour>
        <pt x="30" y="32" on="1"/>
        <pt x="50" y="42" on="0"/>
        <pt x="97" y="57" on="0"/>
        <pt x="119" y="64" on="1"/>
        <pt x="138" y="594" on="1"/>
        <pt x="59" y="603" on="1"/>
        <pt x="60" y="650" on="1"/>
        <pt x="261" y="650" on="1"/>
        <pt x="456" y="108" on="1"/>
        <pt x="648" y="650" on="1"/>
        <pt x="831" y="650" on="1"/>
        <pt x="837" y="618" on="1"/>
        <pt x="820" y="610" on="0"/>
        <pt x="782" y="597" on="0"/>
        <pt x="763" y="591" on="1"/>
        <pt x="772" y="58" on="1"/>
        <pt x="871" y="47" on="1"/>
        <pt x="870" y="0" on="1"/>
        <pt x="602" y="0" on="1"/>
        <pt x="596" y="32" on="1"/>
        <pt x="615" y="41" on="0"/>
        <pt x="660" y="56" on="0"/>
        <pt x="682" y="63" on="1"/>
        <pt x="676" y="420" on="1"/>
        <pt x="690" y="585" on="1"/>
        <pt x="485" y="16" on="1"/>
        <pt x="398" y="-7" on="1"/>
        <pt x="187" y="577" on="1"/>
        <pt x="206" y="420" on="1"/>
        <pt x="197" y="57" on="1"/>
        <pt x="281" y="47" on="1"/>
        <pt x="280" y="0" on="1"/>
        <pt x="36" y="0" on="1"/>
      </contour>
    </TTGlyph>
    <TTGlyph name="Mu" xMin="30" yMin="-7" xMax="871" yMax="650">
      <component glyphName="M" x="0" y="0" flags="0x204"/>
    </TTGlyph>
    <TTGlyph name="N" xMin="30" yMin="-11" xMax="715" yMax="650">
      <contour>
        <pt x="30" y="32" on="1"/>
        <pt x="49" y="41" on="0"/>
        <pt x="93" y="56" on="0"/>
        <pt x="115" y="63" on="1"/>
        <pt x="115" y="595" on="1"/>
        <pt x="50" y="603" on="1"/>
        <pt x="51" y="650" on="1"/>
        <pt x="229" y="650" on="1"/>
        <pt x="573" y="96" on="1"/>
        <pt x="554" y="232" on="1"/>
        <pt x="554" y="592" on="1"/>
        <pt x="457" y="603" on="1"/>
        <pt x="458" y="650" on="1"/>
        <pt x="709" y="650" on="1"/>
        <pt x="715" y="618" on="1"/>
        <pt x="696" y="609" on="0"/>
        <pt x="652" y="594" on="0"/>
        <pt x="630" y="587" on="1"/>
        <pt x="630" y="0" on="1"/>
        <pt x="527" y="-11" on="1"/>
        <pt x="172" y="557" on="1"/>
        <pt x="190" y="418" on="1"/>
        <pt x="190" y="57" on="1"/>
        <pt x="279" y="47" on="1"/>
        <pt x="278" y="0" on="1"/>
        <pt x="36" y="0" on="1"/>
      </contour>
    </TTGlyph>
    <TTGlyph name="Nacute" xMin="30" yMin="-11" xMax="715" yMax="874">
      <component glyphName="N" x="0" y="0" flags="0x204"/>
      <component glyphName="acutecomb.case" x="352" y="0" flags="0x4"/>
    </TTGlyph>
    <TTGlyph name="Ncaron" xMin="30" yMin="-11" xMax="715" yMax="877">
      <component glyphName="N" x="0" y="0" flags="0x204"/>
      <component glyphName="uni030C.case" x="354" y="0" flags="0x4"/>
    </TTGlyph>
    <TTGlyph name="Ncommaaccent" xMin="30" yMin="-264" xMax="715" yMax="650">
      <component glyphName="N" x="0" y="0" flags="0x204"/>
      <component glyphName="uni0326.case" x="383" y="0" flags="0x4"/>
    </TTGlyph>
    <TTGlyph name="Ntilde" xMin="30" yMin="-11" xMax="715" yMax="862">
      <component glyphName="N" x="0" y="0" flags="0x204"/>
      <component glyphName="tildecomb.case" x="354" y="0" flags="0x4"/>
    </TTGlyph>
    <TTGlyph name="Nu" xMin="30" yMin="-11" xMax="715" yMax="650">
      <component glyphName="N" x="0" y="0" flags="0x204"/>
    </TTGlyph>
    <TTGlyph name="O" xMin="20" yMin="-20" xMax="632" yMax="670">
      <contour>
        <pt x="329" y="-20" on="1"/>
        <pt x="272" y="-20" on="0"/>
        <pt x="160" y="22" on="0"/>
        <pt x="73" y="107" on="0"/>
        <pt x="20" y="236" on="0"/>
        <pt x="20" y="321" on="1"/>
        <pt x="20" y="399" on="0"/>
        <pt x="66" y="528" on="0"/>
        <pt x="146" y="619" on="0"/>
        <pt x="257" y="670" on="0"/>
        <pt x="321" y="670" on="1"/>
        <pt x="382" y="670" on="0"/>
        <pt x="495" y="623" on="0"/>
        <pt x="581" y="534" on="0"/>
        <pt x="632" y="402" on="0"/>
        <pt x="632" y="317" on="1"/>
        <pt x="632" y="231" on="0"/>
        <pt x="580" y="104" on="0"/>
        <pt x="495" y="21" on="0"/>
        <pt x="385" y="-20" on="0"/>
      </contour>
      <contour>
        <pt x="347" y="51" on="1"/>
        <pt x="365" y="51" on="0"/>
        <pt x="403" y="56" on="0"/>
        <pt x="424" y="61" on="1"/>
        <pt x="470" y="91" on="0"/>
        <pt x="529" y="226" on="0"/>
        <pt x="529" y="312" on="1"/>
        <pt x="529" y="366" on="0"/>
        <pt x="503" y="471" on="0"/>
        <pt x="449" y="552" on="0"/>
        <pt x="365" y="601" on="0"/>
        <pt x="309" y="601" on="1"/>
        <pt x="287" y="601" on="0"/>
        <pt x="239" y="593" on="0"/>
        <pt x="213" y="584" on="1"/>
        <pt x="192" y="568" on="0"/>
        <pt x="159" y="516" on="0"/>
        <pt x="135" y="450" on="0"/>
        <pt x="122" y="374" on="0"/>
        <pt x="122" y="335" on="1"/>
        <pt x="122" y="282" on="0"/>
        <pt x="148" y="179" on="0"/>
        <pt x="202" y="100" on="0"/>
        <pt x="288" y="51" on="0"/>
      </contour>
    </TTGlyph>
    <TTGlyph name="OE" xMin="20" yMin="-11" xMax="832" yMax="663">
      <contour>
        <pt x="328" y="-11" on="1"/>
        <pt x="271" y="-11" on="0"/>
        <pt x="159" y="28" on="0"/>
        <pt x="73" y="111" on="0"/>
        <pt x="20" y="243" on="0"/>
        <pt x="20" y="334" on="1"/>
        <pt x="20" y="423" on="0"/>
        <pt x="83" y="549" on="0"/>
        <pt x="179" y="627" on="0"/>
        <pt x="298" y="663" on="0"/>
        <pt x="353" y="663" on="1"/>
        <pt x="378" y="663" on="0"/>
        <pt x="428" y="657" on="0"/>
        <pt x="453" y="650" on="1"/>
        <pt x="820" y="650" on="1"/>
        <pt x="822" y="625" on="0"/>
        <pt x="818" y="531" on="0"/>
        <pt x="810" y="485" on="1"/>
        <pt x="756" y="485" on="1"/>
        <pt x="744" y="576" on="1"/>
        <pt x="532" y="585" on="1"/>
        <pt x="532" y="354" on="1"/>
        <pt x="753" y="371" on="1"/>
        <pt x="753" y="284" on="1"/>
        <pt x="532" y="293" on="1"/>
        <pt x="532" y="65" on="1"/>
        <pt x="753" y="75" on="1"/>
        <pt x="779" y="183" on="1"/>
        <pt x="832" y="179" on="1"/>
        <pt x="833" y="159" on="0"/>
        <pt x="831" y="110" on="0"/>
        <pt x="828" y="61" on="0"/>
        <pt x="823" y="16" on="0"/>
        <pt x="820" y="0" on="1"/>
        <pt x="429" y="0" on="1"/>
        <pt x="405" y="-6" on="0"/>
        <pt x="353" y="-11" on="0"/>
      </contour>
      <contour>
        <pt x="122" y="326" on="1"/>
        <pt x="122" y="276" on="0"/>
        <pt x="148" y="179" on="0"/>
        <pt x="201" y="105" on="0"/>
        <pt x="284" y="59" on="0"/>
        <pt x="341" y="59" on="1"/>
        <pt x="367" y="59" on="0"/>
        <pt x="418" y="62" on="0"/>
        <pt x="439" y="72" on="1"/>
        <pt x="439" y="576" on="1"/>
        <pt x="416" y="584" on="0"/>
        <pt x="361" y="593" on="0"/>
        <pt x="333" y="593" on="1"/>
        <pt x="304" y="593" on="0"/>
        <pt x="248" y="584" on="0"/>
        <pt x="223" y="575" on="1"/>
        <pt x="199" y="557" on="0"/>
        <pt x="161" y="503" on="0"/>
        <pt x="136" y="438" on="0"/>
        <pt x="122" y="363" on="0"/>
      </contour>
    </TTGlyph>
    <TTGlyph name="Oacute" xMin="20" yMin="-20" xMax="632" yMax="874">
      <component glyphName="O" x="0" y="0" flags="0x204"/>
      <component glyphName="acutecomb.case" x="323" y="0" flags="0x4"/>
    </TTGlyph>
    <TTGlyph name="Ocircumflex" xMin="20" yMin="-20" xMax="632" yMax="873">
      <component glyphName="O" x="0" y="0" flags="0x204"/>
      <component glyphName="uni0302.case" x="325" y="0" flags="0x4"/>
    </TTGlyph>
    <TTGlyph name="Odieresis" xMin="20" yMin="-20" xMax="632" yMax="859">
      <component glyphName="O" x="0" y="0" flags="0x204"/>
      <component glyphName="uni0308.case" x="324" y="182" flags="0x4"/>
    </TTGlyph>
    <TTGlyph name="Ograve" xMin="20" yMin="-20" xMax="632" yMax="874">
      <component glyphName="O" x="0" y="0" flags="0x204"/>
      <component glyphName="gravecomb.case" x="326" y="0" flags="0x4"/>
    </TTGlyph>
    <TTGlyph name="Ohungarumlaut" xMin="20" yMin="-20" xMax="632" yMax="915">
      <component glyphName="O" x="0" y="0" flags="0x204"/>
      <component glyphName="uni030B.case" x="324" y="182" flags="0x4"/>
    </TTGlyph>
    <TTGlyph name="Omacron" xMin="20" yMin="-20" xMax="632" yMax="811">
      <component glyphName="O" x="0" y="0" flags="0x204"/>
      <component glyphName="uni0304.case" x="323" y="0" flags="0x4"/>
    </TTGlyph>
    <TTGlyph name="Omega" xMin="19" yMin="0" xMax="764" yMax="670">
      <contour>
        <pt x="32" y="0" on="1"/>
        <pt x="29" y="19" on="0"/>
        <pt x="24" y="67" on="0"/>
        <pt x="21" y="116" on="0"/>
        <pt x="19" y="162" on="0"/>
        <pt x="20" y="179" on="1"/>
        <pt x="73" y="183" on="1"/>
        <pt x="99" y="75" on="1"/>
        <pt x="258" y="67" on="1"/>
        <pt x="177" y="115" on="0"/>
        <pt x="86" y="269" on="0"/>
        <pt x="86" y="361" on="1"/>
        <pt x="86" y="426" on="0"/>
        <pt x="133" y="539" on="0"/>
        <pt x="215" y="622" on="0"/>
        <pt x="326" y="670" on="0"/>
        <pt x="390" y="670" on="1"/>
        <pt x="453" y="670" on="0"/>
        <pt x="564" y="623" on="0"/>
        <pt x="644" y="541" on="0"/>
        <pt x="690" y="429" on="0"/>
        <pt x="690" y="365" on="1"/>
        <pt x="690" y="282" on="0"/>
        <pt x="599" y="120" on="0"/>
        <pt x="527" y="67" on="1"/>
        <pt x="685" y="75" on="1"/>
        <pt x="711" y="183" on="1"/>
        <pt x="764" y="179" on="1"/>
        <pt x="765" y="162" on="0"/>
        <pt x="763" y="116" on="0"/>
        <pt x="760" y="67" on="0"/>
        <pt x="755" y="19" on="0"/>
        <pt x="752" y="0" on="1"/>
        <pt x="460" y="0" on="1"/>
        <pt x="441" y="60" on="1"/>
        <pt x="518" y="127" on="0"/>
        <pt x="587" y="261" on="0"/>
        <pt x="587" y="345" on="1"/>
        <pt x="587" y="459" on="0"/>
        <pt x="466" y="601" on="0"/>
        <pt x="369" y="601" on="1"/>
        <pt x="344" y="601" on="0"/>
        <pt x="298" y="592" on="0"/>
        <pt x="275" y="584" on="1"/>
        <pt x="235" y="556" on="0"/>
        <pt x="189" y="442" on="0"/>
        <pt x="189" y="376" on="1"/>
        <pt x="189" y="279" on="0"/>
        <pt x="262" y="128" on="0"/>
        <pt x="343" y="60" on="1"/>
        <pt x="324" y="0" on="1"/>
      </contour>
    </TTGlyph>
    <TTGlyph name="Omegaacute" xMin="-74" yMin="0" xMax="764" yMax="670">
      <component glyphName="Omega" x="0" y="0" flags="0x204"/>
      <component glyphName="grAcute.case" x="-93" y="0" flags="0x4"/>
    </TTGlyph>
    <TTGlyph name="Omegaasper" xMin="-68" yMin="0" xMax="764" yMax="670">
      <component glyphName="Omega" x="0" y="0" flags="0x204"/>
      <component glyphName="asper.case" x="-93" y="0" flags="0x4"/>
    </TTGlyph>
    <TTGlyph name="Omegaasperacute" xMin="-224" yMin="0" xMax="764" yMax="670">
      <component glyphName="Omega" x="0" y="0" flags="0x204"/>
      <component glyphName="asperacute.case" x="-93" y="0" flags="0x4"/>
    </TTGlyph>
    <TTGlyph name="Omegaasperacuteiotasub" xMin="-224" yMin="-225" xMax="764" yMax="670">
      <component glyphName="Omega" x="0" y="0" flags="0x204"/>
      <component glyphName="asperacute.case" x="-93" y="0" flags="0x4"/>
      <component glyphName="iotaadscript.case" x="281" y="0" flags="0x4"/>
    </TTGlyph>
    <TTGlyph name="Omegaaspergrave" xMin="-230" yMin="0" xMax="764" yMax="670">
      <component glyphName="Omega" x="0" y="0" flags="0x204"/>
      <component glyphName="aspergrave.case" x="-93" y="0" flags="0x4"/>
    </TTGlyph>
    <TTGlyph name="Omegaaspergraveiotasub" xMin="-230" yMin="-225" xMax="764" yMax="670">
      <component glyphName="Omega" x="0" y="0" flags="0x204"/>
      <component glyphName="aspergrave.case" x="-93" y="0" flags="0x4"/>
      <component glyphName="iotaadscript.case" x="281" y="0" flags="0x4"/>
    </TTGlyph>
    <TTGlyph name="Omegaasperiotasub" xMin="-68" yMin="-225" xMax="764" yMax="670">
      <component glyphName="Omega" x="0" y="0" flags="0x204"/>
      <component glyphName="asper.case" x="-93" y="0" flags="0x4"/>
      <component glyphName="iotaadscript.case" x="281" y="0" flags="0x4"/>
    </TTGlyph>
    <TTGlyph name="Omegaaspertilde" xMin="-217" yMin="0" xMax="764" yMax="671">
      <component glyphName="Omega" x="0" y="0" flags="0x204"/>
      <component glyphName="aspertilde.case" x="-93" y="0" flags="0x4"/>
    </TTGlyph>
    <TTGlyph name="Omegaaspertildeiotasub" xMin="-217" yMin="-225" xMax="764" yMax="671">
      <component glyphName="Omega" x="0" y="0" flags="0x204"/>
      <component glyphName="aspertilde.case" x="-93" y="0" flags="0x4"/>
      <component glyphName="iotaadscript.case" x="281" y="0" flags="0x4"/>
    </TTGlyph>
    <TTGlyph name="Omegagrave" xMin="-84" yMin="0" xMax="764" yMax="670">
      <component glyphName="Omega" x="0" y="0" flags="0x204"/>
      <component glyphName="grGrave.case" x="-93" y="0" flags="0x4"/>
    </TTGlyph>
    <TTGlyph name="Omegaiotasub" xMin="19" yMin="-225" xMax="764" yMax="670">
      <component glyphName="Omega" x="0" y="0" flags="0x204"/>
      <component glyphName="iotaadscript.case" x="281" y="0" flags="0x4"/>
    </TTGlyph>
    <TTGlyph name="Omegalenis" xMin="-58" yMin="0" xMax="764" yMax="670">
      <component glyphName="Omega" x="0" y="0" flags="0x204"/>
      <component glyphName="lenis.case" x="-93" y="0" flags="0x4"/>
    </TTGlyph>
    <TTGlyph name="Omegalenisacute" xMin="-210" yMin="0" xMax="764" yMax="670">
      <component glyphName="Omega" x="0" y="0" flags="0x204"/>
      <component glyphName="lenisacute.case" x="-93" y="0" flags="0x4"/>
    </TTGlyph>
    <TTGlyph name="Omegalenisacuteiotasub" xMin="-210" yMin="-225" xMax="764" yMax="670">
      <component glyphName="Omega" x="0" y="0" flags="0x204"/>
      <component glyphName="lenisacute.case" x="-93" y="0" flags="0x4"/>
      <component glyphName="iotaadscript.case" x="281" y="0" flags="0x4"/>
    </TTGlyph>
    <TTGlyph name="Omegalenisgrave" xMin="-229" yMin="0" xMax="764" yMax="670">
      <component glyphName="Omega" x="0" y="0" flags="0x204"/>
      <component glyphName="lenisgrave.case" x="-93" y="0" flags="0x4"/>
    </TTGlyph>
    <TTGlyph name="Omegalenisgraveiotasub" xMin="-229" yMin="-225" xMax="764" yMax="670">
      <component glyphName="Omega" x="0" y="0" flags="0x204"/>
      <component glyphName="lenisgrave.case" x="-93" y="0" flags="0x4"/>
      <component glyphName="iotaadscript.case" x="281" y="0" flags="0x4"/>
    </TTGlyph>
    <TTGlyph name="Omegalenisiotasub" xMin="-58" yMin="-225" xMax="764" yMax="670">
      <component glyphName="Omega" x="0" y="0" flags="0x204"/>
      <component glyphName="lenis.case" x="-93" y="0" flags="0x4"/>
      <component glyphName="iotaadscript.case" x="281" y="0" flags="0x4"/>
    </TTGlyph>
    <TTGlyph name="Omegalenistilde" xMin="-217" yMin="0" xMax="764" yMax="671">
      <component glyphName="Omega" x="0" y="0" flags="0x204"/>
      <component glyphName="lenistilde.case" x="-93" y="0" flags="0x4"/>
    </TTGlyph>
    <TTGlyph name="Omegalenistildeiotasub" xMin="-217" yMin="-225" xMax="764" yMax="671">
      <component glyphName="Omega" x="0" y="0" flags="0x204"/>
      <component glyphName="lenistilde.case" x="-93" y="0" flags="0x4"/>
      <component glyphName="iotaadscript.case" x="281" y="0" flags="0x4"/>
    </TTGlyph>
    <TTGlyph name="Omegawithtonos" xMin="-74" yMin="0" xMax="764" yMax="670">
      <component glyphName="Omega" x="0" y="0" flags="0x204"/>
      <component glyphName="tonos.case" x="-93" y="0" flags="0x4"/>
    </TTGlyph>
    <TTGlyph name="Omicron" xMin="20" yMin="-20" xMax="632" yMax="670">
      <component glyphName="O" x="0" y="0" flags="0x204"/>
    </TTGlyph>
    <TTGlyph name="Omicronacute" xMin="-134" yMin="-20" xMax="632" yMax="670">
      <component glyphName="Omicron" x="0" y="0" flags="0x204"/>
      <component glyphName="grAcute.case" x="-153" y="0" flags="0x4"/>
    </TTGlyph>
    <TTGlyph name="Omicronasper" xMin="-128" yMin="-20" xMax="632" yMax="670">
      <component glyphName="Omicron" x="0" y="0" flags="0x204"/>
      <component glyphName="asper.case" x="-153" y="0" flags="0x4"/>
    </TTGlyph>
    <TTGlyph name="Omicronasperacute" xMin="-284" yMin="-20" xMax="632" yMax="670">
      <component glyphName="Omicron" x="0" y="0" flags="0x204"/>
      <component glyphName="asperacute.case" x="-153" y="0" flags="0x4"/>
    </TTGlyph>
    <TTGlyph name="Omicronaspergrave" xMin="-290" yMin="-20" xMax="632" yMax="670">
      <component glyphName="Omicron" x="0" y="0" flags="0x204"/>
      <component glyphName="aspergrave.case" x="-153" y="0" flags="0x4"/>
    </TTGlyph>
    <TTGlyph name="Omicrongrave" xMin="-144" yMin="-20" xMax="632" yMax="670">
      <component glyphName="Omicron" x="0" y="0" flags="0x204"/>
      <component glyphName="grGrave.case" x="-153" y="0" flags="0x4"/>
    </TTGlyph>
    <TTGlyph name="Omicronlenis" xMin="-118" yMin="-20" xMax="632" yMax="670">
      <component glyphName="Omicron" x="0" y="0" flags="0x204"/>
      <component glyphName="lenis.case" x="-153" y="0" flags="0x4"/>
    </TTGlyph>
    <TTGlyph name="Omicronlenisacute" xMin="-270" yMin="-20" xMax="632" yMax="670">
      <component glyphName="Omicron" x="0" y="0" flags="0x204"/>
      <component glyphName="lenisacute.case" x="-153" y="0" flags="0x4"/>
    </TTGlyph>
    <TTGlyph name="Omicronlenisgrave" xMin="-289" yMin="-20" xMax="632" yMax="670">
      <component glyphName="Omicron" x="0" y="0" flags="0x204"/>
      <component glyphName="lenisgrave.case" x="-153" y="0" flags="0x4"/>
    </TTGlyph>
    <TTGlyph name="Omicronwithtonos" xMin="-134" yMin="-20" xMax="632" yMax="670">
      <component glyphName="Omicron" x="0" y="0" flags="0x204"/>
      <component glyphName="tonos.case" x="-153" y="0" flags="0x4"/>
    </TTGlyph>
    <TTGlyph name="Oslash" xMin="20" yMin="-81" xMax="632" yMax="729">
      <contour>
        <pt x="118" y="-47" on="1"/>
        <pt x="158" y="31" on="1"/>
        <pt x="98" y="71" on="0"/>
        <pt x="20" y="217" on="0"/>
        <pt x="20" y="321" on="1"/>
        <pt x="20" y="399" on="0"/>
        <pt x="66" y="528" on="0"/>
        <pt x="146" y="619" on="0"/>
        <pt x="257" y="670" on="0"/>
        <pt x="321" y="670" on="1"/>
        <pt x="360" y="670" on="0"/>
        <pt x="435" y="651" on="0"/>
        <pt x="469" y="632" on="1"/>
        <pt x="519" y="729" on="1"/>
        <pt x="579" y="693" on="1"/>
        <pt x="526" y="590" on="1"/>
        <pt x="574" y="546" on="0"/>
        <pt x="632" y="407" on="0"/>
        <pt x="632" y="317" on="1"/>
        <pt x="632" y="231" on="0"/>
        <pt x="580" y="104" on="0"/>
        <pt x="495" y="21" on="0"/>
        <pt x="385" y="-20" on="0"/>
        <pt x="329" y="-20" on="1"/>
        <pt x="301" y="-20" on="0"/>
        <pt x="246" y="-11" on="0"/>
        <pt x="220" y="-1" on="1"/>
        <pt x="179" y="-81" on="1"/>
      </contour>
      <contour>
        <pt x="122" y="335" on="1"/>
        <pt x="122" y="272" on="0"/>
        <pt x="159" y="151" on="0"/>
        <pt x="199" y="110" on="1"/>
        <pt x="432" y="560" on="1"/>
        <pt x="407" y="579" on="0"/>
        <pt x="346" y="601" on="0"/>
        <pt x="309" y="601" on="1"/>
        <pt x="287" y="601" on="0"/>
        <pt x="239" y="593" on="0"/>
        <pt x="213" y="584" on="1"/>
        <pt x="192" y="568" on="0"/>
        <pt x="159" y="516" on="0"/>
        <pt x="135" y="450" on="0"/>
        <pt x="122" y="374" on="0"/>
      </contour>
      <contour>
        <pt x="347" y="51" on="1"/>
        <pt x="365" y="51" on="0"/>
        <pt x="403" y="56" on="0"/>
        <pt x="424" y="61" on="1"/>
        <pt x="470" y="91" on="0"/>
        <pt x="529" y="226" on="0"/>
        <pt x="529" y="312" on="1"/>
        <pt x="529" y="363" on="0"/>
        <pt x="505" y="463" on="0"/>
        <pt x="481" y="503" on="1"/>
        <pt x="257" y="69" on="1"/>
        <pt x="276" y="61" on="0"/>
        <pt x="322" y="51" on="0"/>
      </contour>
    </TTGlyph>
    <TTGlyph name="Otilde" xMin="20" yMin="-20" xMax="632" yMax="862">
      <component glyphName="O" x="0" y="0" flags="0x204"/>
      <component glyphName="tildecomb.case" x="325" y="0" flags="0x4"/>
    </TTGlyph>
    <TTGlyph name="P" xMin="30" yMin="0" xMax="561" yMax="658">
      <contour>
        <pt x="30" y="32" on="1"/>
        <pt x="49" y="41" on="0"/>
        <pt x="93" y="56" on="0"/>
        <pt x="115" y="63" on="1"/>
        <pt x="115" y="598" on="1"/>
        <pt x="44" y="602" on="1"/>
        <pt x="45" y="650" on="1"/>
        <pt x="324" y="658" on="1"/>
        <pt x="383" y="658" on="0"/>
        <pt x="473" y="622" on="0"/>
        <pt x="532" y="564" on="0"/>
        <pt x="561" y="489" on="0"/>
        <pt x="561" y="451" on="1"/>
        <pt x="561" y="413" on="0"/>
        <pt x="532" y="339" on="0"/>
        <pt x="476" y="281" on="0"/>
        <pt x="390" y="245" on="0"/>
        <pt x="333" y="245" on="1"/>
        <pt x="208" y="245" on="1"/>
        <pt x="208" y="61" on="1"/>
        <pt x="325" y="47" on="1"/>
        <pt x="324" y="0" on="1"/>
        <pt x="36" y="0" on="1"/>
      </contour>
      <contour>
        <pt x="381" y="599" on="1"/>
        <pt x="208" y="584" on="1"/>
        <pt x="208" y="312" on="1"/>
        <pt x="238" y="308" on="0"/>
        <pt x="296" y="303" on="0"/>
        <pt x="310" y="303" on="1"/>
        <pt x="350" y="303" on="0"/>
        <pt x="407" y="329" on="0"/>
        <pt x="442" y="371" on="0"/>
        <pt x="459" y="426" on="0"/>
        <pt x="459" y="454" on="1"/>
        <pt x="459" y="500" on="0"/>
        <pt x="420" y="580" on="0"/>
      </contour>
    </TTGlyph>
    <TTGlyph name="Phi" xMin="20" yMin="-8" xMax="671" yMax="660">
      <contour>
        <pt x="212" y="24" on="1"/>
        <pt x="228" y="31" on="0"/>
        <pt x="270" y="46" on="0"/>
        <pt x="301" y="56" on="1"/>
        <pt x="301" y="95" on="1"/>
        <pt x="171" y="101" on="0"/>
        <pt x="20" y="220" on="0"/>
        <pt x="20" y="318" on="1"/>
        <pt x="20" y="421" on="0"/>
        <pt x="173" y="552" on="0"/>
        <pt x="301" y="562" on="1"/>
        <pt x="301" y="604" on="1"/>
        <pt x="220" y="613" on="1"/>
        <pt x="221" y="660" on="1"/>
        <pt x="473" y="660" on="1"/>
        <pt x="479" y="628" on="1"/>
        <pt x="463" y="621" on="0"/>
        <pt x="421" y="606" on="0"/>
        <pt x="390" y="596" on="1"/>
        <pt x="390" y="562" on="1"/>
        <pt x="520" y="556" on="0"/>
        <pt x="671" y="437" on="0"/>
        <pt x="671" y="339" on="1"/>
        <pt x="671" y="236" on="0"/>
        <pt x="518" y="105" on="0"/>
        <pt x="390" y="95" on="1"/>
        <pt x="390" y="51" on="1"/>
        <pt x="491" y="39" on="1"/>
        <pt x="490" y="-8" on="1"/>
        <pt x="218" y="-8" on="1"/>
      </contour>
      <contour>
        <pt x="122" y="333" on="1"/>
        <pt x="122" y="259" on="0"/>
        <pt x="218" y="163" on="0"/>
        <pt x="301" y="153" on="1"/>
        <pt x="301" y="505" on="1"/>
        <pt x="263" y="504" on="0"/>
        <pt x="198" y="488" on="0"/>
        <pt x="176" y="476" on="1"/>
        <pt x="150" y="451" on="0"/>
        <pt x="122" y="378" on="0"/>
      </contour>
      <contour>
        <pt x="569" y="324" on="1"/>
        <pt x="569" y="398" on="0"/>
        <pt x="473" y="494" on="0"/>
        <pt x="390" y="504" on="1"/>
        <pt x="390" y="152" on="1"/>
        <pt x="428" y="153" on="0"/>
        <pt x="493" y="169" on="0"/>
        <pt x="515" y="181" on="1"/>
        <pt x="541" y="206" on="0"/>
        <pt x="569" y="279" on="0"/>
      </contour>
    </TTGlyph>
    <TTGlyph name="Pi" xMin="30" yMin="0" xMax="713" yMax="650">
      <contour>
        <pt x="30" y="32" on="1"/>
        <pt x="49" y="41" on="0"/>
        <pt x="93" y="56" on="0"/>
        <pt x="115" y="63" on="1"/>
        <pt x="115" y="594" on="1"/>
        <pt x="38" y="603" on="1"/>
        <pt x="39" y="650" on="1"/>
        <pt x="695" y="650" on="1"/>
        <pt x="701" y="618" on="1"/>
        <pt x="682" y="609" on="0"/>
        <pt x="638" y="594" on="0"/>
        <pt x="616" y="587" on="1"/>
        <pt x="616" y="58" on="1"/>
        <pt x="713" y="47" on="1"/>
        <pt x="712" y="0" on="1"/>
        <pt x="444" y="0" on="1"/>
        <pt x="438" y="32" on="1"/>
        <pt x="457" y="41" on="0"/>
        <pt x="501" y="56" on="0"/>
        <pt x="523" y="63" on="1"/>
        <pt x="523" y="583" on="1"/>
        <pt x="208" y="583" on="1"/>
        <pt x="208" y="58" on="1"/>
        <pt x="305" y="47" on="1"/>
        <pt x="304" y="0" on="1"/>
        <pt x="36" y="0" on="1"/>
      </contour>
    </TTGlyph>
    <TTGlyph name="Psi" xMin="5" yMin="0" xMax="798" yMax="654">
      <contour>
        <pt x="270" y="32" on="1"/>
        <pt x="288" y="39" on="0"/>
        <pt x="327" y="53" on="0"/>
        <pt x="355" y="62" on="1"/>
        <pt x="355" y="211" on="1"/>
        <pt x="259" y="221" on="0"/>
        <pt x="146" y="324" on="0"/>
        <pt x="127" y="420" on="1"/>
        <pt x="95" y="585" on="1"/>
        <pt x="11" y="585" on="1"/>
        <pt x="5" y="618" on="1"/>
        <pt x="27" y="635" on="0"/>
        <pt x="79" y="654" on="0"/>
        <pt x="105" y="654" on="1"/>
        <pt x="142" y="654" on="0"/>
        <pt x="189" y="604" on="0"/>
        <pt x="196" y="556" on="1"/>
        <pt x="213" y="439" on="1"/>
        <pt x="225" y="355" on="0"/>
        <pt x="297" y="277" on="0"/>
        <pt x="355" y="267" on="1"/>
        <pt x="355" y="594" on="1"/>
        <pt x="278" y="603" on="1"/>
        <pt x="279" y="650" on="1"/>
        <pt x="522" y="650" on="1"/>
        <pt x="528" y="618" on="1"/>
        <pt x="500" y="607" on="0"/>
        <pt x="466" y="593" on="0"/>
        <pt x="448" y="587" on="1"/>
        <pt x="448" y="265" on="1"/>
        <pt x="470" y="268" on="0"/>
        <pt x="515" y="280" on="0"/>
        <pt x="535" y="293" on="1"/>
        <pt x="550" y="307" on="0"/>
        <pt x="585" y="392" on="0"/>
        <pt x="592" y="439" on="1"/>
        <pt x="610" y="556" on="1"/>
        <pt x="617" y="603" on="0"/>
        <pt x="663" y="654" on="0"/>
        <pt x="698" y="654" on="1"/>
        <pt x="724" y="654" on="0"/>
        <pt x="776" y="635" on="0"/>
        <pt x="798" y="618" on="1"/>
        <pt x="792" y="585" on="1"/>
        <pt x="708" y="585" on="1"/>
        <pt x="676" y="422" on="1"/>
        <pt x="657" y="326" on="0"/>
        <pt x="544" y="222" on="0"/>
        <pt x="448" y="211" on="1"/>
        <pt x="448" y="58" on="1"/>
        <pt x="545" y="47" on="1"/>
        <pt x="544" y="0" on="1"/>
        <pt x="276" y="0" on="1"/>
      </contour>
    </TTGlyph>
    <TTGlyph name="Q" xMin="20" yMin="-162" xMax="751" yMax="670">
      <contour>
        <pt x="329" y="-20" on="1"/>
        <pt x="272" y="-20" on="0"/>
        <pt x="160" y="22" on="0"/>
        <pt x="73" y="107" on="0"/>
        <pt x="20" y="236" on="0"/>
        <pt x="20" y="321" on="1"/>
        <pt x="20" y="399" on="0"/>
        <pt x="66" y="528" on="0"/>
        <pt x="146" y="619" on="0"/>
        <pt x="257" y="670" on="0"/>
        <pt x="321" y="670" on="1"/>
        <pt x="382" y="670" on="0"/>
        <pt x="495" y="623" on="0"/>
        <pt x="581" y="534" on="0"/>
        <pt x="632" y="402" on="0"/>
        <pt x="632" y="317" on="1"/>
        <pt x="632" y="201" on="0"/>
        <pt x="540" y="51" on="0"/>
        <pt x="472" y="15" on="1"/>
        <pt x="751" y="-64" on="1"/>
        <pt x="712" y="-162" on="1"/>
        <pt x="391" y="-14" on="1"/>
        <pt x="376" y="-17" on="0"/>
        <pt x="345" y="-20" on="0"/>
      </contour>
      <contour>
        <pt x="347" y="51" on="1"/>
        <pt x="365" y="51" on="0"/>
        <pt x="403" y="56" on="0"/>
        <pt x="424" y="61" on="1"/>
        <pt x="470" y="91" on="0"/>
        <pt x="529" y="226" on="0"/>
        <pt x="529" y="312" on="1"/>
        <pt x="529" y="366" on="0"/>
        <pt x="503" y="471" on="0"/>
        <pt x="449" y="552" on="0"/>
        <pt x="365" y="601" on="0"/>
        <pt x="309" y="601" on="1"/>
        <pt x="287" y="601" on="0"/>
        <pt x="239" y="593" on="0"/>
        <pt x="213" y="584" on="1"/>
        <pt x="192" y="568" on="0"/>
        <pt x="159" y="516" on="0"/>
        <pt x="135" y="450" on="0"/>
        <pt x="122" y="374" on="0"/>
        <pt x="122" y="335" on="1"/>
        <pt x="122" y="282" on="0"/>
        <pt x="148" y="179" on="0"/>
        <pt x="202" y="100" on="0"/>
        <pt x="288" y="51" on="0"/>
      </contour>
    </TTGlyph>
    <TTGlyph name="R" xMin="30" yMin="0" xMax="623" yMax="658">
      <contour>
        <pt x="30" y="32" on="1"/>
        <pt x="49" y="41" on="0"/>
        <pt x="93" y="56" on="0"/>
        <pt x="115" y="63" on="1"/>
        <pt x="115" y="598" on="1"/>
        <pt x="44" y="602" on="1"/>
        <pt x="45" y="650" on="1"/>
        <pt x="324" y="658" on="1"/>
        <pt x="383" y="658" on="0"/>
        <pt x="473" y="625" on="0"/>
        <pt x="532" y="571" on="0"/>
        <pt x="561" y="501" on="0"/>
        <pt x="561" y="465" on="1"/>
        <pt x="561" y="437" on="0"/>
        <pt x="543" y="379" on="0"/>
        <pt x="508" y="328" on="0"/>
        <pt x="454" y="286" on="0"/>
        <pt x="419" y="274" on="1"/>
        <pt x="555" y="53" on="1"/>
        <pt x="623" y="47" on="1"/>
        <pt x="622" y="0" on="1"/>
        <pt x="470" y="0" on="1"/>
        <pt x="327" y="260" on="1"/>
        <pt x="208" y="259" on="1"/>
        <pt x="208" y="59" on="1"/>
        <pt x="315" y="47" on="1"/>
        <pt x="314" y="0" on="1"/>
        <pt x="36" y="0" on="1"/>
      </contour>
      <contour>
        <pt x="381" y="599" on="1"/>
        <pt x="208" y="584" on="1"/>
        <pt x="208" y="325" on="1"/>
        <pt x="232" y="321" on="0"/>
        <pt x="276" y="318" on="0"/>
        <pt x="293" y="318" on="1"/>
        <pt x="344" y="318" on="0"/>
        <pt x="409" y="346" on="0"/>
        <pt x="446" y="389" on="0"/>
        <pt x="459" y="441" on="0"/>
        <pt x="459" y="465" on="1"/>
        <pt x="459" y="508" on="0"/>
        <pt x="421" y="580" on="0"/>
      </contour>
    </TTGlyph>
    <TTGlyph name="Racute" xMin="30" yMin="0" xMax="623" yMax="874">
      <component glyphName="R" x="0" y="0" flags="0x204"/>
      <component glyphName="acutecomb.case" x="278" y="0" flags="0x4"/>
    </TTGlyph>
    <TTGlyph name="Rcaron" xMin="30" yMin="0" xMax="623" yMax="877">
      <component glyphName="R" x="0" y="0" flags="0x204"/>
      <component glyphName="uni030C.case" x="280" y="0" flags="0x4"/>
    </TTGlyph>
    <TTGlyph name="Rcommaaccent" xMin="30" yMin="-264" xMax="623" yMax="658">
      <component glyphName="R" x="0" y="0" flags="0x204"/>
      <component glyphName="uni0326.case" x="302" y="0" flags="0x4"/>
    </TTGlyph>
    <TTGlyph name="Rho" xMin="30" yMin="0" xMax="561" yMax="658">
      <component glyphName="P" x="0" y="0" flags="0x204"/>
    </TTGlyph>
    <TTGlyph name="Rhoasper" xMin="-133" yMin="0" xMax="561" yMax="658">
      <component glyphName="Rho" x="0" y="0" flags="0x204"/>
      <component glyphName="asper.case" x="-158" y="0" flags="0x4"/>
    </TTGlyph>
    <TTGlyph name="S" xMin="54" yMin="-20" xMax="488" yMax="670">
      <contour>
        <pt x="56" y="49" on="1"/>
        <pt x="54" y="74" on="0"/>
        <pt x="58" y="172" on="0"/>
        <pt x="66" y="218" on="1"/>
        <pt x="120" y="218" on="1"/>
        <pt x="134" y="98" on="1"/>
        <pt x="182" y="62" on="0"/>
        <pt x="292" y="44" on="0"/>
        <pt x="335" y="48" on="1"/>
        <pt x="365" y="64" on="0"/>
        <pt x="393" y="122" on="0"/>
        <pt x="393" y="150" on="1"/>
        <pt x="393" y="202" on="0"/>
        <pt x="309" y="261" on="0"/>
        <pt x="243" y="292" on="1"/>
        <pt x="211" y="307" on="0"/>
        <pt x="145" y="342" on="0"/>
        <pt x="93" y="388" on="0"/>
        <pt x="60" y="448" on="0"/>
        <pt x="60" y="489" on="1"/>
        <pt x="60" y="533" on="0"/>
        <pt x="100" y="601" on="0"/>
        <pt x="164" y="647" on="0"/>
        <pt x="249" y="670" on="0"/>
        <pt x="293" y="670" on="1"/>
        <pt x="341" y="670" on="0"/>
        <pt x="428" y="649" on="0"/>
        <pt x="458" y="639" on="1"/>
        <pt x="460" y="614" on="0"/>
        <pt x="456" y="516" on="0"/>
        <pt x="448" y="470" on="1"/>
        <pt x="394" y="470" on="1"/>
        <pt x="384" y="561" on="1"/>
        <pt x="344" y="592" on="0"/>
        <pt x="247" y="608" on="0"/>
        <pt x="201" y="601" on="1"/>
        <pt x="177" y="587" on="0"/>
        <pt x="153" y="535" on="0"/>
        <pt x="153" y="510" on="1"/>
        <pt x="153" y="461" on="0"/>
        <pt x="238" y="405" on="0"/>
        <pt x="302" y="375" on="1"/>
        <pt x="337" y="359" on="0"/>
        <pt x="404" y="323" on="0"/>
        <pt x="456" y="276" on="0"/>
        <pt x="488" y="214" on="0"/>
        <pt x="488" y="172" on="1"/>
        <pt x="488" y="126" on="0"/>
        <pt x="451" y="55" on="0"/>
        <pt x="390" y="6" on="0"/>
        <pt x="310" y="-20" on="0"/>
        <pt x="267" y="-20" on="1"/>
        <pt x="243" y="-20" on="0"/>
        <pt x="183" y="-11" on="0"/>
        <pt x="125" y="6" on="0"/>
        <pt x="73" y="32" on="0"/>
      </contour>
    </TTGlyph>
    <TTGlyph name="Sacute" xMin="54" yMin="-20" xMax="488" yMax="874">
      <component glyphName="S" x="0" y="0" flags="0x204"/>
      <component glyphName="acutecomb.case" x="269" y="0" flags="0x4"/>
    </TTGlyph>
    <TTGlyph name="Scaron" xMin="54" yMin="-20" xMax="488" yMax="877">
      <component glyphName="S" x="0" y="0" flags="0x204"/>
      <component glyphName="uni030C.case" x="271" y="0" flags="0x4"/>
    </TTGlyph>
    <TTGlyph name="Scedilla" xMin="54" yMin="-265" xMax="488" yMax="670">
      <component glyphName="S" x="0" y="0" flags="0x204"/>
      <component glyphName="uni0327.case" x="257" y="0" flags="0x4"/>
    </TTGlyph>
    <TTGlyph name="Scommaaccent" xMin="54" yMin="-264" xMax="488" yMax="670">
      <component glyphName="S" x="0" y="0" flags="0x204"/>
      <component glyphName="uni0326.case" x="257" y="0" flags="0x4"/>
    </TTGlyph>
    <TTGlyph name="Sigma" xMin="38" yMin="0" xMax="531" yMax="650">
      <contour>
        <pt x="38" y="42" on="1"/>
        <pt x="249" y="323" on="1"/>
        <pt x="46" y="605" on="1"/>
        <pt x="68" y="650" on="1"/>
        <pt x="515" y="650" on="1"/>
        <pt x="517" y="625" on="0"/>
        <pt x="513" y="531" on="0"/>
        <pt x="505" y="485" on="1"/>
        <pt x="451" y="485" on="1"/>
        <pt x="439" y="578" on="1"/>
        <pt x="169" y="589" on="1"/>
        <pt x="345" y="346" on="1"/>
        <pt x="148" y="79" on="1"/>
        <pt x="450" y="81" on="1"/>
        <pt x="478" y="195" on="1"/>
        <pt x="531" y="191" on="1"/>
        <pt x="532" y="171" on="0"/>
        <pt x="529" y="118" on="0"/>
        <pt x="524" y="65" on="0"/>
        <pt x="518" y="16" on="0"/>
        <pt x="515" y="0" on="1"/>
        <pt x="54" y="0" on="1"/>
      </contour>
    </TTGlyph>
    <TTGlyph name="T" xMin="9" yMin="0" xMax="587" yMax="656">
      <contour>
        <pt x="143" y="32" on="1"/>
        <pt x="165" y="42" on="0"/>
        <pt x="227" y="59" on="0"/>
        <pt x="252" y="66" on="1"/>
        <pt x="252" y="593" on="1"/>
        <pt x="88" y="587" on="1"/>
        <pt x="75" y="487" on="1"/>
        <pt x="21" y="487" on="1"/>
        <pt x="13" y="533" on="0"/>
        <pt x="9" y="631" on="0"/>
        <pt x="11" y="656" on="1"/>
        <pt x="80" y="654" on="0"/>
        <pt x="226" y="652" on="0"/>
        <pt x="372" y="652" on="0"/>
        <pt x="518" y="654" on="0"/>
        <pt x="586" y="656" on="1"/>
        <pt x="588" y="631" on="0"/>
        <pt x="584" y="533" on="0"/>
        <pt x="576" y="487" on="1"/>
        <pt x="522" y="487" on="1"/>
        <pt x="509" y="587" on="1"/>
        <pt x="345" y="593" on="1"/>
        <pt x="345" y="60" on="1"/>
        <pt x="459" y="47" on="1"/>
        <pt x="458" y="0" on="1"/>
        <pt x="149" y="0" on="1"/>
      </contour>
    </TTGlyph>
    <TTGlyph name="Tau" xMin="9" yMin="0" xMax="587" yMax="656">
      <component glyphName="T" x="0" y="0" flags="0x204"/>
    </TTGlyph>
    <TTGlyph name="Tcaron" xMin="9" yMin="0" xMax="587" yMax="877">
      <component glyphName="T" x="0" y="0" flags="0x204"/>
      <component glyphName="uni030C.case" x="300" y="0" flags="0x4"/>
    </TTGlyph>
    <TTGlyph name="Theta" xMin="20" yMin="-20" xMax="632" yMax="670">
      <contour>
        <pt x="329" y="-20" on="1"/>
        <pt x="272" y="-20" on="0"/>
        <pt x="160" y="22" on="0"/>
        <pt x="73" y="107" on="0"/>
        <pt x="20" y="236" on="0"/>
        <pt x="20" y="321" on="1"/>
        <pt x="20" y="399" on="0"/>
        <pt x="66" y="528" on="0"/>
        <pt x="146" y="619" on="0"/>
        <pt x="257" y="670" on="0"/>
        <pt x="321" y="670" on="1"/>
        <pt x="382" y="670" on="0"/>
        <pt x="495" y="623" on="0"/>
        <pt x="581" y="534" on="0"/>
        <pt x="632" y="402" on="0"/>
        <pt x="632" y="317" on="1"/>
        <pt x="632" y="231" on="0"/>
        <pt x="580" y="104" on="0"/>
        <pt x="495" y="21" on="0"/>
        <pt x="385" y="-20" on="0"/>
      </contour>
      <contour>
        <pt x="347" y="51" on="1"/>
        <pt x="365" y="51" on="0"/>
        <pt x="403" y="56" on="0"/>
        <pt x="424" y="61" on="1"/>
        <pt x="470" y="91" on="0"/>
        <pt x="529" y="226" on="0"/>
        <pt x="529" y="312" on="1"/>
        <pt x="529" y="366" on="0"/>
        <pt x="503" y="471" on="0"/>
        <pt x="449" y="552" on="0"/>
        <pt x="365" y="601" on="0"/>
        <pt x="309" y="601" on="1"/>
        <pt x="287" y="601" on="0"/>
        <pt x="239" y="593" on="0"/>
        <pt x="213" y="584" on="1"/>
        <pt x="192" y="568" on="0"/>
        <pt x="159" y="516" on="0"/>
        <pt x="135" y="450" on="0"/>
        <pt x="122" y="374" on="0"/>
        <pt x="122" y="335" on="1"/>
        <pt x="122" y="282" on="0"/>
        <pt x="148" y="179" on="0"/>
        <pt x="202" y="100" on="0"/>
        <pt x="288" y="51" on="0"/>
      </contour>
      <contour>
        <pt x="183" y="291" on="1"/>
        <pt x="183" y="352" on="1"/>
        <pt x="456" y="374" on="1"/>
        <pt x="456" y="282" on="1"/>
      </contour>
    </TTGlyph>
    <TTGlyph name="Thorn" xMin="30" yMin="0" xMax="549" yMax="650">
      <contour>
        <pt x="30" y="35" on="1"/>
        <pt x="46" y="43" on="0"/>
        <pt x="105" y="63" on="0"/>
        <pt x="120" y="67" on="1"/>
        <pt x="120" y="593" on="1"/>
        <pt x="38" y="603" on="1"/>
        <pt x="39" y="650" on="1"/>
        <pt x="300" y="650" on="1"/>
        <pt x="306" y="615" on="1"/>
        <pt x="298" y="611" on="0"/>
        <pt x="272" y="600" on="0"/>
        <pt x="244" y="591" on="0"/>
        <pt x="220" y="584" on="0"/>
        <pt x="213" y="582" on="1"/>
        <pt x="213" y="517" on="1"/>
        <pt x="320" y="517" on="1"/>
        <pt x="379" y="517" on="0"/>
        <pt x="466" y="484" on="0"/>
        <pt x="522" y="432" on="0"/>
        <pt x="549" y="367" on="0"/>
        <pt x="549" y="335" on="1"/>
        <pt x="549" y="300" on="0"/>
        <pt x="517" y="234" on="0"/>
        <pt x="455" y="185" on="0"/>
        <pt x="362" y="155" on="0"/>
        <pt x="300" y="155" on="1"/>
        <pt x="213" y="155" on="1"/>
        <pt x="213" y="58" on="1"/>
        <pt x="310" y="47" on="1"/>
        <pt x="309" y="0" on="1"/>
        <pt x="36" y="0" on="1"/>
      </contour>
      <contour>
        <pt x="368" y="463" on="1"/>
        <pt x="213" y="436" on="1"/>
        <pt x="213" y="223" on="1"/>
        <pt x="226" y="222" on="0"/>
        <pt x="255" y="219" on="0"/>
        <pt x="273" y="219" on="1"/>
        <pt x="373" y="219" on="0"/>
        <pt x="448" y="292" on="0"/>
        <pt x="448" y="339" on="1"/>
        <pt x="448" y="377" on="0"/>
        <pt x="408" y="443" on="0"/>
      </contour>
    </TTGlyph>
    <TTGlyph name="U" xMin="10" yMin="-18" xMax="690" yMax="650">
      <contour>
        <pt x="364" y="-18" on="1"/>
        <pt x="303" y="-18" on="0"/>
        <pt x="200" y="21" on="0"/>
        <pt x="128" y="97" on="0"/>
        <pt x="87" y="210" on="0"/>
        <pt x="87" y="283" on="1"/>
        <pt x="87" y="594" on="1"/>
        <pt x="10" y="603" on="1"/>
        <pt x="11" y="650" on="1"/>
        <pt x="259" y="650" on="1"/>
        <pt x="265" y="618" on="1"/>
        <pt x="246" y="609" on="0"/>
        <pt x="202" y="594" on="0"/>
        <pt x="180" y="587" on="1"/>
        <pt x="180" y="273" on="1"/>
        <pt x="180" y="170" on="0"/>
        <pt x="279" y="57" on="0"/>
        <pt x="368" y="57" on="1"/>
        <pt x="396" y="57" on="0"/>
        <pt x="442" y="68" on="0"/>
        <pt x="463" y="77" on="1"/>
        <pt x="496" y="100" on="0"/>
        <pt x="531" y="199" on="0"/>
        <pt x="531" y="273" on="1"/>
        <pt x="531" y="593" on="1"/>
        <pt x="442" y="603" on="1"/>
        <pt x="443" y="650" on="1"/>
        <pt x="684" y="650" on="1"/>
        <pt x="690" y="618" on="1"/>
        <pt x="671" y="609" on="0"/>
        <pt x="627" y="594" on="0"/>
        <pt x="605" y="587" on="1"/>
        <pt x="605" y="293" on="1"/>
        <pt x="605" y="129" on="0"/>
        <pt x="478" y="-18" on="0"/>
      </contour>
    </TTGlyph>
    <TTGlyph name="Uacute" xMin="10" yMin="-18" xMax="690" yMax="874">
      <component glyphName="U" x="0" y="0" flags="0x204"/>
      <component glyphName="acutecomb.case" x="354" y="0" flags="0x4"/>
    </TTGlyph>
    <TTGlyph name="Ucircumflex" xMin="10" yMin="-18" xMax="690" yMax="873">
      <component glyphName="U" x="0" y="0" flags="0x204"/>
      <component glyphName="uni0302.case" x="356" y="0" flags="0x4"/>
    </TTGlyph>
    <TTGlyph name="Udieresis" xMin="10" yMin="-18" xMax="690" yMax="859">
      <component glyphName="U" x="0" y="0" flags="0x204"/>
      <component glyphName="uni0308.case" x="355" y="182" flags="0x4"/>
    </TTGlyph>
    <TTGlyph name="Ugrave" xMin="10" yMin="-18" xMax="690" yMax="874">
      <component glyphName="U" x="0" y="0" flags="0x204"/>
      <component glyphName="gravecomb.case" x="357" y="0" flags="0x4"/>
    </TTGlyph>
    <TTGlyph name="Uhungarumlaut" xMin="10" yMin="-18" xMax="690" yMax="915">
      <component glyphName="U" x="0" y="0" flags="0x204"/>
      <component glyphName="uni030B.case" x="355" y="182" flags="0x4"/>
    </TTGlyph>
    <TTGlyph name="Umacron" xMin="10" yMin="-18" xMax="690" yMax="811">
      <component glyphName="U" x="0" y="0" flags="0x204"/>
      <component glyphName="uni0304.case" x="354" y="0" flags="0x4"/>
    </TTGlyph>
    <TTGlyph name="Uogonek" xMin="10" yMin="-254" xMax="690" yMax="650">
      <component glyphName="U" x="0" y="0" flags="0x204"/>
      <component glyphName="uni0328.case" x="458" y="-9" flags="0x4"/>
    </TTGlyph>
    <TTGlyph name="Upsilon" xMin="0" yMin="0" xMax="615" yMax="654">
      <contour>
        <pt x="171" y="32" on="1"/>
        <pt x="190" y="41" on="0"/>
        <pt x="235" y="56" on="0"/>
        <pt x="257" y="63" on="1"/>
        <pt x="257" y="159" on="1"/>
        <pt x="257" y="219" on="0"/>
        <pt x="228" y="355" on="0"/>
        <pt x="180" y="475" on="0"/>
        <pt x="121" y="568" on="0"/>
        <pt x="91" y="586" on="1"/>
        <pt x="10" y="581" on="1"/>
        <pt x="0" y="616" on="1"/>
        <pt x="24" y="633" on="0"/>
        <pt x="82" y="654" on="0"/>
        <pt x="107" y="654" on="1"/>
        <pt x="166" y="654" on="0"/>
        <pt x="259" y="539" on="0"/>
        <pt x="298" y="421" on="1"/>
        <pt x="309" y="318" on="1"/>
        <pt x="310" y="318" on="1"/>
        <pt x="341" y="474" on="0"/>
        <pt x="452" y="654" on="0"/>
        <pt x="518" y="654" on="1"/>
        <pt x="546" y="654" on="0"/>
        <pt x="598" y="635" on="0"/>
        <pt x="615" y="622" on="1"/>
        <pt x="605" y="587" on="1"/>
        <pt x="516" y="587" on="1"/>
        <pt x="487" y="575" on="0"/>
        <pt x="427" y="489" on="0"/>
        <pt x="380" y="370" on="0"/>
        <pt x="350" y="231" on="0"/>
        <pt x="350" y="168" on="1"/>
        <pt x="350" y="58" on="1"/>
        <pt x="444" y="47" on="1"/>
        <pt x="443" y="0" on="1"/>
        <pt x="177" y="0" on="1"/>
      </contour>
    </TTGlyph>
    <TTGlyph name="Upsilonacute" xMin="-185" yMin="0" xMax="615" yMax="654">
      <component glyphName="Upsilon" x="0" y="0" flags="0x204"/>
      <component glyphName="grAcute.case" x="-204" y="0" flags="0x4"/>
    </TTGlyph>
    <TTGlyph name="Upsilonasper" xMin="-179" yMin="0" xMax="615" yMax="654">
      <component glyphName="Upsilon" x="0" y="0" flags="0x204"/>
      <component glyphName="asper.case" x="-204" y="0" flags="0x4"/>
    </TTGlyph>
    <TTGlyph name="Upsilonasperacute" xMin="-335" yMin="0" xMax="615" yMax="654">
      <component glyphName="Upsilon" x="0" y="0" flags="0x204"/>
      <component glyphName="asperacute.case" x="-204" y="0" flags="0x4"/>
    </TTGlyph>
    <TTGlyph name="Upsilonaspergrave" xMin="-326" yMin="0" xMax="615" yMax="654">
      <component glyphName="Upsilon" x="0" y="0" flags="0x204"/>
      <component glyphName="aspergrave.case" x="-189" y="0" flags="0x4"/>
    </TTGlyph>
    <TTGlyph name="Upsilonaspertilde" xMin="-348" yMin="0" xMax="615" yMax="671">
      <component glyphName="Upsilon" x="0" y="0" flags="0x204"/>
      <component glyphName="aspertilde.case" x="-224" y="0" flags="0x4"/>
    </TTGlyph>
    <TTGlyph name="Upsilonbreve" xMin="0" yMin="0" xMax="615" yMax="853">
      <component glyphName="Upsilon" x="0" y="0" flags="0x204"/>
      <component glyphName="uni0306.case" x="314" y="0" flags="0x4"/>
    </TTGlyph>
    <TTGlyph name="Upsilondieresis" xMin="0" yMin="0" xMax="615" yMax="859">
      <component glyphName="Upsilon" x="0" y="0" flags="0x204"/>
      <component glyphName="uni0308" x="313" y="182" flags="0x4"/>
    </TTGlyph>
    <TTGlyph name="Upsilongrave" xMin="-195" yMin="0" xMax="615" yMax="654">
      <component glyphName="Upsilon" x="0" y="0" flags="0x204"/>
      <component glyphName="grGrave.case" x="-204" y="0" flags="0x4"/>
    </TTGlyph>
    <TTGlyph name="Upsilonwithmacron" xMin="0" yMin="0" xMax="615" yMax="811">
      <component glyphName="Upsilon" x="0" y="0" flags="0x204"/>
      <component glyphName="uni0304.case" x="312" y="0" flags="0x4"/>
    </TTGlyph>
    <TTGlyph name="Upsilonwithtonos" xMin="-185" yMin="0" xMax="615" yMax="654">
      <component glyphName="Upsilon" x="0" y="0" flags="0x204"/>
      <component glyphName="tonos.case" x="-204" y="0" flags="0x4"/>
    </TTGlyph>
    <TTGlyph name="Uring" xMin="10" yMin="-18" xMax="690" yMax="928">
      <component glyphName="U" x="0" y="0" flags="0x204"/>
      <component glyphName="uni030A.case" x="355" y="0" flags="0x4"/>
    </TTGlyph>
    <TTGlyph name="V" xMin="0" yMin="-10" xMax="680" yMax="650">
      <contour>
        <pt x="0" y="603" on="1"/>
        <pt x="1" y="650" on="1"/>
        <pt x="268" y="650" on="1"/>
        <pt x="274" y="618" on="1"/>
        <pt x="253" y="608" on="0"/>
        <pt x="206" y="592" on="0"/>
        <pt x="183" y="585" on="1"/>
        <pt x="322" y="177" on="1"/>
        <pt x="335" y="59" on="1"/>
        <pt x="340" y="59" on="1"/>
        <pt x="525" y="592" on="1"/>
        <pt x="434" y="603" on="1"/>
        <pt x="435" y="650" on="1"/>
        <pt x="674" y="650" on="1"/>
        <pt x="680" y="618" on="1"/>
        <pt x="662" y="610" on="0"/>
        <pt x="622" y="596" on="0"/>
        <pt x="602" y="589" on="1"/>
        <pt x="388" y="-2" on="1"/>
        <pt x="365" y="-6" on="0"/>
        <pt x="312" y="-11" on="0"/>
        <pt x="287" y="-10" on="1"/>
        <pt x="79" y="594" on="1"/>
      </contour>
    </TTGlyph>
    <TTGlyph name="W" xMin="0" yMin="-11" xMax="919" yMax="650">
      <contour>
        <pt x="0" y="603" on="1"/>
        <pt x="1" y="650" on="1"/>
        <pt x="258" y="650" on="1"/>
        <pt x="264" y="618" on="1"/>
        <pt x="244" y="609" on="0"/>
        <pt x="198" y="593" on="0"/>
        <pt x="176" y="586" on="1"/>
        <pt x="289" y="175" on="1"/>
        <pt x="300" y="59" on="1"/>
        <pt x="304" y="59" on="1"/>
        <pt x="426" y="478" on="1"/>
        <pt x="388" y="614" on="1"/>
        <pt x="483" y="639" on="1"/>
        <pt x="601" y="173" on="1"/>
        <pt x="615" y="59" on="1"/>
        <pt x="618" y="59" on="1"/>
        <pt x="764" y="591" on="1"/>
        <pt x="663" y="603" on="1"/>
        <pt x="664" y="650" on="1"/>
        <pt x="913" y="650" on="1"/>
        <pt x="919" y="618" on="1"/>
        <pt x="901" y="610" on="0"/>
        <pt x="860" y="595" on="0"/>
        <pt x="840" y="589" on="1"/>
        <pt x="673" y="-3" on="1"/>
        <pt x="647" y="-8" on="0"/>
        <pt x="592" y="-12" on="0"/>
        <pt x="564" y="-10" on="1"/>
        <pt x="456" y="372" on="1"/>
        <pt x="454" y="372" on="1"/>
        <pt x="435" y="259" on="1"/>
        <pt x="353" y="-3" on="1"/>
        <pt x="327" y="-8" on="0"/>
        <pt x="274" y="-12" on="0"/>
        <pt x="246" y="-10" on="1"/>
        <pt x="75" y="594" on="1"/>
      </contour>
    </TTGlyph>
    <TTGlyph name="X" xMin="10" yMin="0" xMax="660" yMax="650">
      <contour>
        <pt x="10" y="32" on="1"/>
        <pt x="28" y="40" on="0"/>
        <pt x="70" y="55" on="0"/>
        <pt x="90" y="61" on="1"/>
        <pt x="284" y="343" on="1"/>
        <pt x="116" y="595" on="1"/>
        <pt x="48" y="603" on="1"/>
        <pt x="49" y="650" on="1"/>
        <pt x="276" y="650" on="1"/>
        <pt x="282" y="618" on="1"/>
        <pt x="269" y="612" on="0"/>
        <pt x="239" y="600" on="0"/>
        <pt x="224" y="596" on="1"/>
        <pt x="356" y="400" on="1"/>
        <pt x="472" y="594" on="1"/>
        <pt x="398" y="603" on="1"/>
        <pt x="399" y="650" on="1"/>
        <pt x="619" y="650" on="1"/>
        <pt x="625" y="618" on="1"/>
        <pt x="608" y="610" on="0"/>
        <pt x="569" y="596" on="0"/>
        <pt x="550" y="590" on="1"/>
        <pt x="391" y="347" on="1"/>
        <pt x="588" y="54" on="1"/>
        <pt x="660" y="47" on="1"/>
        <pt x="659" y="0" on="1"/>
        <pt x="408" y="0" on="1"/>
        <pt x="402" y="32" on="1"/>
        <pt x="418" y="39" on="0"/>
        <pt x="454" y="53" on="0"/>
        <pt x="472" y="58" on="1"/>
        <pt x="322" y="285" on="1"/>
        <pt x="174" y="57" on="1"/>
        <pt x="263" y="47" on="1"/>
        <pt x="262" y="0" on="1"/>
        <pt x="16" y="0" on="1"/>
      </contour>
    </TTGlyph>
    <TTGlyph name="Xi" xMin="39" yMin="0" xMax="576" yMax="656">
      <contour>
        <pt x="67" y="475" on="1"/>
        <pt x="63" y="499" on="0"/>
        <pt x="57" y="552" on="0"/>
        <pt x="55" y="601" on="0"/>
        <pt x="56" y="643" on="0"/>
        <pt x="57" y="656" on="1"/>
        <pt x="179" y="652" on="0"/>
        <pt x="441" y="652" on="0"/>
        <pt x="559" y="656" on="1"/>
        <pt x="560" y="643" on="0"/>
        <pt x="561" y="601" on="0"/>
        <pt x="559" y="552" on="0"/>
        <pt x="553" y="499" on="0"/>
        <pt x="549" y="475" on="1"/>
        <pt x="495" y="475" on="1"/>
        <pt x="484" y="571" on="1"/>
        <pt x="308" y="578" on="1"/>
        <pt x="132" y="570" on="1"/>
        <pt x="121" y="475" on="1"/>
      </contour>
      <contour>
        <pt x="136" y="289" on="1"/>
        <pt x="136" y="349" on="1"/>
        <pt x="484" y="371" on="1"/>
        <pt x="484" y="280" on="1"/>
      </contour>
      <contour>
        <pt x="52" y="0" on="1"/>
        <pt x="49" y="16" on="0"/>
        <pt x="44" y="62" on="0"/>
        <pt x="41" y="112" on="0"/>
        <pt x="39" y="161" on="0"/>
        <pt x="40" y="181" on="1"/>
        <pt x="93" y="185" on="1"/>
        <pt x="117" y="82" on="1"/>
        <pt x="308" y="74" on="1"/>
        <pt x="499" y="82" on="1"/>
        <pt x="523" y="185" on="1"/>
        <pt x="576" y="181" on="1"/>
        <pt x="577" y="161" on="0"/>
        <pt x="575" y="112" on="0"/>
        <pt x="572" y="62" on="0"/>
        <pt x="567" y="16" on="0"/>
        <pt x="564" y="0" on="1"/>
      </contour>
    </TTGlyph>
    <TTGlyph name="Y" xMin="0" yMin="0" xMax="597" yMax="650">
      <contour>
        <pt x="170" y="32" on="1"/>
        <pt x="188" y="40" on="0"/>
        <pt x="228" y="54" on="0"/>
        <pt x="248" y="61" on="1"/>
        <pt x="248" y="252" on="1"/>
        <pt x="62" y="596" on="1"/>
        <pt x="0" y="603" on="1"/>
        <pt x="1" y="650" on="1"/>
        <pt x="228" y="650" on="1"/>
        <pt x="234" y="618" on="1"/>
        <pt x="219" y="611" on="0"/>
        <pt x="184" y="598" on="0"/>
        <pt x="167" y="593" on="1"/>
        <pt x="276" y="388" on="1"/>
        <pt x="302" y="307" on="1"/>
        <pt x="307" y="307" on="1"/>
        <pt x="449" y="594" on="1"/>
        <pt x="370" y="603" on="1"/>
        <pt x="371" y="650" on="1"/>
        <pt x="591" y="650" on="1"/>
        <pt x="597" y="618" on="1"/>
        <pt x="581" y="611" on="0"/>
        <pt x="545" y="597" on="0"/>
        <pt x="526" y="592" on="1"/>
        <pt x="341" y="249" on="1"/>
        <pt x="341" y="57" on="1"/>
        <pt x="423" y="47" on="1"/>
        <pt x="422" y="0" on="1"/>
        <pt x="176" y="0" on="1"/>
      </contour>
    </TTGlyph>
    <TTGlyph name="Yacute" xMin="0" yMin="0" xMax="597" yMax="874">
      <component glyphName="Y" x="0" y="0" flags="0x204"/>
      <component glyphName="acutecomb.case" x="303" y="0" flags="0x4"/>
    </TTGlyph>
    <TTGlyph name="Ydieresis" xMin="0" yMin="0" xMax="597" yMax="859">
      <component glyphName="Y" x="0" y="0" flags="0x204"/>
      <component glyphName="uni0308.case" x="304" y="182" flags="0x4"/>
    </TTGlyph>
    <TTGlyph name="Z" xMin="35" yMin="0" xMax="539" yMax="650">
      <contour>
        <pt x="35" y="45" on="1"/>
        <pt x="413" y="588" on="1"/>
        <pt x="139" y="578" on="1"/>
        <pt x="126" y="468" on="1"/>
        <pt x="72" y="468" on="1"/>
        <pt x="68" y="491" on="0"/>
        <pt x="63" y="544" on="0"/>
        <pt x="61" y="595" on="0"/>
        <pt x="61" y="638" on="0"/>
        <pt x="62" y="650" on="1"/>
        <pt x="509" y="650" on="1"/>
        <pt x="530" y="604" on="1"/>
        <pt x="157" y="74" on="1"/>
        <pt x="449" y="76" on="1"/>
        <pt x="481" y="193" on="1"/>
        <pt x="539" y="185" on="1"/>
        <pt x="535" y="139" on="0"/>
        <pt x="522" y="48" on="0"/>
        <pt x="513" y="0" on="1"/>
        <pt x="56" y="0" on="1"/>
      </contour>
    </TTGlyph>
    <TTGlyph name="Zacute" xMin="35" yMin="0" xMax="539" yMax="874">
      <component glyphName="Z" x="0" y="0" flags="0x204"/>
      <component glyphName="acutecomb.case" x="287" y="0" flags="0x4"/>
    </TTGlyph>
    <TTGlyph name="Zcaron" xMin="35" yMin="0" xMax="539" yMax="877">
      <component glyphName="Z" x="0" y="0" flags="0x204"/>
      <component glyphName="uni030C.case" x="289" y="0" flags="0x4"/>
    </TTGlyph>
    <TTGlyph name="Zdotaccent" xMin="35" yMin="0" xMax="539" yMax="859">
      <component glyphName="Z" x="0" y="0" flags="0x204"/>
      <component glyphName="uni0307.case" x="288" y="182" flags="0x4"/>
    </TTGlyph>
    <TTGlyph name="Zeta" xMin="35" yMin="0" xMax="539" yMax="650">
      <component glyphName="Z" x="0" y="0" flags="0x204"/>
    </TTGlyph>
    <TTGlyph name="a" xMin="50" yMin="-15" xMax="492" yMax="493">
      <contour>
        <pt x="207" y="-14" on="1"/>
        <pt x="166" y="-18" on="0"/>
        <pt x="106" y="1" on="0"/>
        <pt x="68" y="36" on="0"/>
        <pt x="50" y="82" on="0"/>
        <pt x="50" y="104" on="1"/>
        <pt x="50" y="132" on="0"/>
        <pt x="83" y="190" on="0"/>
        <pt x="120" y="211" on="1"/>
        <pt x="315" y="216" on="1"/>
        <pt x="315" y="319" on="1"/>
        <pt x="315" y="365" on="0"/>
        <pt x="293" y="413" on="0"/>
        <pt x="266" y="426" on="1"/>
        <pt x="238" y="425" on="0"/>
        <pt x="173" y="415" on="0"/>
        <pt x="153" y="409" on="1"/>
        <pt x="145" y="305" on="1"/>
        <pt x="92" y="301" on="1"/>
        <pt x="79" y="326" on="0"/>
        <pt x="64" y="390" on="0"/>
        <pt x="63" y="421" on="1"/>
        <pt x="85" y="434" on="0"/>
        <pt x="149" y="459" on="0"/>
        <pt x="214" y="480" on="0"/>
        <pt x="271" y="493" on="0"/>
        <pt x="286" y="493" on="1"/>
        <pt x="318" y="493" on="0"/>
        <pt x="382" y="444" on="0"/>
        <pt x="393" y="423" on="1"/>
        <pt x="400" y="410" on="0"/>
        <pt x="405" y="371" on="0"/>
        <pt x="405" y="319" on="1"/>
        <pt x="405" y="86" on="1"/>
        <pt x="405" y="75" on="0"/>
        <pt x="420" y="66" on="0"/>
        <pt x="431" y="66" on="1"/>
        <pt x="441" y="66" on="0"/>
        <pt x="467" y="72" on="0"/>
        <pt x="477" y="75" on="1"/>
        <pt x="492" y="31" on="1"/>
        <pt x="391" y="-15" on="1"/>
        <pt x="377" y="-14" on="0"/>
        <pt x="330" y="29" on="0"/>
        <pt x="320" y="54" on="1"/>
      </contour>
      <contour>
        <pt x="170" y="58" on="1"/>
        <pt x="207" y="57" on="0"/>
        <pt x="289" y="83" on="0"/>
        <pt x="315" y="95" on="1"/>
        <pt x="315" y="164" on="1"/>
        <pt x="287" y="167" on="0"/>
        <pt x="227" y="166" on="0"/>
        <pt x="177" y="154" on="0"/>
        <pt x="144" y="128" on="0"/>
        <pt x="144" y="104" on="1"/>
        <pt x="144" y="91" on="0"/>
        <pt x="157" y="66" on="0"/>
      </contour>
    </TTGlyph>
    <TTGlyph name="aacute" xMin="50" yMin="-15" xMax="492" yMax="734">
      <component glyphName="a" x="0" y="0" flags="0x204"/>
      <component glyphName="acutecomb" x="246" y="0" flags="0x4"/>
    </TTGlyph>
    <TTGlyph name="abreve" xMin="50" yMin="-15" xMax="492" yMax="715">
      <component glyphName="a" x="0" y="0" flags="0x204"/>
      <component glyphName="uni0306" x="247" y="0" flags="0x4"/>
    </TTGlyph>
    <TTGlyph name="acircumflex" xMin="50" yMin="-15" xMax="492" yMax="717">
      <component glyphName="a" x="0" y="0" flags="0x204"/>
      <component glyphName="uni0302" x="246" y="0" flags="0x4"/>
    </TTGlyph>
    <TTGlyph name="acute" xMin="30" yMin="531" xMax="245" yMax="734">
      <component glyphName="acutecomb" x="113" y="0" flags="0x4"/>
    </TTGlyph>
    <TTGlyph name="acutecomb" xMin="-83" yMin="531" xMax="132" yMax="734">
      <contour>
        <pt x="-83" y="574" on="1"/>
        <pt x="59" y="734" on="1"/>
        <pt x="132" y="674" on="1"/>
        <pt x="87" y="637" on="0"/>
        <pt x="11" y="570" on="0"/>
        <pt x="-31" y="531" on="1"/>
      </contour>
    </TTGlyph>
    <TTGlyph name="acutecomb.case" xMin="-109" yMin="692" xMax="166" yMax="874">
      <contour>
        <pt x="-109" y="749" on="1"/>
        <pt x="116" y="874" on="1"/>
        <pt x="166" y="790" on="1"/>
        <pt x="103" y="766" on="0"/>
        <pt x="-12" y="718" on="0"/>
        <pt x="-74" y="692" on="1"/>
      </contour>
    </TTGlyph>
    <TTGlyph name="adieresis" xMin="50" yMin="-15" xMax="492" yMax="677">
      <component glyphName="a" x="0" y="0" flags="0x204"/>
      <component glyphName="uni0308" x="246" y="0" flags="0x4"/>
    </TTGlyph>
    <TTGlyph name="ae" xMin="50" yMin="-15" xMax="723" yMax="493">
      <contour>
        <pt x="207" y="-14" on="1"/>
        <pt x="166" y="-18" on="0"/>
        <pt x="106" y="1" on="0"/>
        <pt x="68" y="36" on="0"/>
        <pt x="50" y="82" on="0"/>
        <pt x="50" y="104" on="1"/>
        <pt x="50" y="132" on="0"/>
        <pt x="83" y="190" on="0"/>
        <pt x="120" y="211" on="1"/>
        <pt x="315" y="216" on="1"/>
        <pt x="315" y="319" on="1"/>
        <pt x="315" y="365" on="0"/>
        <pt x="293" y="413" on="0"/>
        <pt x="266" y="426" on="1"/>
        <pt x="238" y="425" on="0"/>
        <pt x="173" y="415" on="0"/>
        <pt x="153" y="409" on="1"/>
        <pt x="145" y="305" on="1"/>
        <pt x="92" y="301" on="1"/>
        <pt x="79" y="326" on="0"/>
        <pt x="64" y="390" on="0"/>
        <pt x="63" y="421" on="1"/>
        <pt x="85" y="434" on="0"/>
        <pt x="149" y="459" on="0"/>
        <pt x="214" y="480" on="0"/>
        <pt x="270" y="493" on="0"/>
        <pt x="285" y="493" on="1"/>
        <pt x="317" y="493" on="0"/>
        <pt x="376" y="442" on="0"/>
        <pt x="389" y="420" on="1"/>
        <pt x="418" y="451" on="0"/>
        <pt x="497" y="488" on="0"/>
        <pt x="544" y="488" on="1"/>
        <pt x="622" y="488" on="0"/>
        <pt x="724" y="388" on="0"/>
        <pt x="723" y="313" on="1"/>
        <pt x="666" y="257" on="1"/>
        <pt x="404" y="262" on="1"/>
        <pt x="404" y="259" on="0"/>
        <pt x="404" y="252" on="0"/>
        <pt x="404" y="249" on="1"/>
        <pt x="404" y="197" on="0"/>
        <pt x="431" y="125" on="0"/>
        <pt x="476" y="81" on="0"/>
        <pt x="536" y="61" on="0"/>
        <pt x="569" y="61" on="1"/>
        <pt x="603" y="61" on="0"/>
        <pt x="667" y="79" on="0"/>
        <pt x="701" y="94" on="1"/>
        <pt x="716" y="51" on="1"/>
        <pt x="560" y="-15" on="1"/>
        <pt x="494" y="-15" on="0"/>
        <pt x="399" y="31" on="0"/>
        <pt x="368" y="68" on="1"/>
      </contour>
      <contour>
        <pt x="494" y="427" on="1"/>
        <pt x="460" y="409" on="0"/>
        <pt x="419" y="351" on="0"/>
        <pt x="411" y="314" on="1"/>
        <pt x="636" y="325" on="1"/>
        <pt x="626" y="372" on="0"/>
        <pt x="548" y="431" on="0"/>
      </contour>
      <contour>
        <pt x="170" y="58" on="1"/>
        <pt x="188" y="57" on="0"/>
        <pt x="234" y="66" on="0"/>
        <pt x="281" y="81" on="0"/>
        <pt x="326" y="99" on="0"/>
        <pt x="343" y="106" on="1"/>
        <pt x="336" y="119" on="0"/>
        <pt x="326" y="149" on="0"/>
        <pt x="322" y="164" on="1"/>
        <pt x="320" y="164" on="1"/>
        <pt x="292" y="167" on="0"/>
        <pt x="230" y="167" on="0"/>
        <pt x="178" y="155" on="0"/>
        <pt x="144" y="128" on="0"/>
        <pt x="144" y="104" on="1"/>
        <pt x="144" y="91" on="0"/>
        <pt x="157" y="66" on="0"/>
      </contour>
    </TTGlyph>
    <TTGlyph name="agrave" xMin="50" yMin="-15" xMax="492" yMax="734">
      <component glyphName="a" x="0" y="0" flags="0x204"/>
      <component glyphName="gravecomb" x="246" y="0" flags="0x4"/>
    </TTGlyph>
    <TTGlyph name="alpha" xMin="32" yMin="-14" xMax="539" yMax="495">
      <contour>
        <pt x="202" y="-14" on="1"/>
        <pt x="166" y="-14" on="0"/>
        <pt x="104" y="24" on="0"/>
        <pt x="58" y="90" on="0"/>
        <pt x="32" y="181" on="0"/>
        <pt x="32" y="233" on="1"/>
        <pt x="32" y="286" on="0"/>
        <pt x="62" y="380" on="0"/>
        <pt x="113" y="448" on="0"/>
        <pt x="183" y="488" on="0"/>
        <pt x="223" y="488" on="1"/>
        <pt x="268" y="488" on="0"/>
        <pt x="346" y="435" on="0"/>
        <pt x="368" y="391" on="1"/>
        <pt x="380" y="482" on="1"/>
        <pt x="404" y="495" on="1"/>
        <pt x="427" y="493" on="0"/>
        <pt x="468" y="476" on="0"/>
        <pt x="478" y="464" on="1"/>
        <pt x="417" y="85" on="1"/>
        <pt x="526" y="97" on="1"/>
        <pt x="539" y="70" on="1"/>
        <pt x="527" y="36" on="0"/>
        <pt x="472" y="-14" on="0"/>
        <pt x="447" y="-14" on="1"/>
        <pt x="412" y="-14" on="0"/>
        <pt x="364" y="66" on="0"/>
        <pt x="361" y="128" on="1"/>
        <pt x="359" y="128" on="1"/>
        <pt x="327" y="58" on="0"/>
        <pt x="248" y="-14" on="0"/>
      </contour>
      <contour>
        <pt x="110" y="102" on="1"/>
        <pt x="125" y="91" on="0"/>
        <pt x="165" y="79" on="0"/>
        <pt x="189" y="79" on="1"/>
        <pt x="252" y="79" on="0"/>
        <pt x="346" y="200" on="0"/>
        <pt x="361" y="299" on="1"/>
        <pt x="369" y="353" on="1"/>
        <pt x="344" y="374" on="0"/>
        <pt x="283" y="398" on="0"/>
        <pt x="253" y="398" on="1"/>
        <pt x="182" y="398" on="0"/>
        <pt x="98" y="285" on="0"/>
        <pt x="98" y="190" on="1"/>
        <pt x="98" y="163" on="0"/>
        <pt x="104" y="117" on="0"/>
      </contour>
    </TTGlyph>
    <TTGlyph name="alphaacute" xMin="32" yMin="-14" xMax="539" yMax="765">
      <component glyphName="alpha" x="0" y="0" flags="0x204"/>
      <component glyphName="grAcute" x="133" y="0" flags="0x4"/>
    </TTGlyph>
    <TTGlyph name="alphaacuteiotasub" xMin="32" yMin="-235" xMax="539" yMax="765">
      <component glyphName="alpha" x="0" y="0" flags="0x204"/>
      <component glyphName="grAcute" x="133" y="0" flags="0x4"/>
      <component glyphName="iotaadscript" x="123" y="0" flags="0x4"/>
    </TTGlyph>
    <TTGlyph name="alphaasper" xMin="32" yMin="-14" xMax="539" yMax="765">
      <component glyphName="alpha" x="0" y="0" flags="0x204"/>
      <component glyphName="asper" x="57" y="0" flags="0x4"/>
    </TTGlyph>
    <TTGlyph name="alphaasperacute" xMin="32" yMin="-14" xMax="539" yMax="765">
      <component glyphName="alpha" x="0" y="0" flags="0x204"/>
      <component glyphName="asperacute" x="68" y="0" flags="0x4"/>
    </TTGlyph>
    <TTGlyph name="alphaasperacuteiotasub" xMin="32" yMin="-235" xMax="539" yMax="765">
      <component glyphName="alpha" x="0" y="0" flags="0x204"/>
      <component glyphName="asperacute" x="68" y="0" flags="0x4"/>
      <component glyphName="iotaadscript" x="123" y="0" flags="0x4"/>
    </TTGlyph>
    <TTGlyph name="alphaaspergrave" xMin="32" yMin="-14" xMax="539" yMax="765">
      <component glyphName="alpha" x="0" y="0" flags="0x204"/>
      <component glyphName="aspergrave" x="65" y="0" flags="0x4"/>
    </TTGlyph>
    <TTGlyph name="alphaaspergraveiotasub" xMin="32" yMin="-235" xMax="539" yMax="765">
      <component glyphName="alpha" x="0" y="0" flags="0x204"/>
      <component glyphName="aspergrave" x="65" y="0" flags="0x4"/>
      <component glyphName="iotaadscript" x="123" y="0" flags="0x4"/>
    </TTGlyph>
    <TTGlyph name="alphaasperiotasub" xMin="32" yMin="-235" xMax="539" yMax="765">
      <component glyphName="alpha" x="0" y="0" flags="0x204"/>
      <component glyphName="asper" x="67" y="0" flags="0x4"/>
      <component glyphName="iotaadscript" x="123" y="0" flags="0x4"/>
    </TTGlyph>
    <TTGlyph name="alphaaspertilde" xMin="32" yMin="-14" xMax="539" yMax="900">
      <component glyphName="alpha" x="0" y="0" flags="0x204"/>
      <component glyphName="aspertilde" x="70" y="0" flags="0x4"/>
    </TTGlyph>
    <TTGlyph name="alphaaspertildeiotasub" xMin="32" yMin="-235" xMax="539" yMax="900">
      <component glyphName="alpha" x="0" y="0" flags="0x204"/>
      <component glyphName="aspertilde" x="70" y="0" flags="0x4"/>
      <component glyphName="iotaadscript" x="123" y="0" flags="0x4"/>
    </TTGlyph>
    <TTGlyph name="alphabreve" xMin="32" yMin="-14" xMax="539" yMax="715">
      <component glyphName="alpha" x="0" y="0" flags="0x204"/>
      <component glyphName="uni0306" x="284" y="0" flags="0x4"/>
    </TTGlyph>
    <TTGlyph name="alphagrave" xMin="32" yMin="-14" xMax="539" yMax="765">
      <component glyphName="alpha" x="0" y="0" flags="0x204"/>
      <component glyphName="grGrave" x="42" y="0" flags="0x4"/>
    </TTGlyph>
    <TTGlyph name="alphagraveiotasub" xMin="32" yMin="-235" xMax="539" yMax="765">
      <component glyphName="alpha" x="0" y="0" flags="0x204"/>
      <component glyphName="grGrave" x="42" y="0" flags="0x4"/>
      <component glyphName="iotaadscript" x="123" y="0" flags="0x4"/>
    </TTGlyph>
    <TTGlyph name="alphaiotasub" xMin="32" yMin="-235" xMax="539" yMax="495">
      <component glyphName="alpha" x="0" y="0" flags="0x204"/>
      <component glyphName="iotaadscript" x="123" y="0" flags="0x4"/>
    </TTGlyph>
    <TTGlyph name="alphalenis" xMin="32" yMin="-14" xMax="539" yMax="765">
      <component glyphName="alpha" x="0" y="0" flags="0x204"/>
      <component glyphName="lenis" x="84" y="0" flags="0x4"/>
    </TTGlyph>
    <TTGlyph name="alphalenisacute" xMin="32" yMin="-14" xMax="539" yMax="765">
      <component glyphName="alpha" x="0" y="0" flags="0x204"/>
      <component glyphName="lenisacute" x="100" y="0" flags="0x4"/>
    </TTGlyph>
    <TTGlyph name="alphalenisacuteiotasub" xMin="32" yMin="-235" xMax="539" yMax="765">
      <component glyphName="alpha" x="0" y="0" flags="0x204"/>
      <component glyphName="lenisacute" x="100" y="0" flags="0x4"/>
      <component glyphName="iotaadscript" x="123" y="0" flags="0x4"/>
    </TTGlyph>
    <TTGlyph name="alphalenisgrave" xMin="32" yMin="-14" xMax="539" yMax="765">
      <component glyphName="alpha" x="0" y="0" flags="0x204"/>
      <component glyphName="lenisgrave" x="63" y="0" flags="0x4"/>
    </TTGlyph>
    <TTGlyph name="alphalenisgraveiotasub" xMin="32" yMin="-235" xMax="539" yMax="765">
      <component glyphName="alpha" x="0" y="0" flags="0x204"/>
      <component glyphName="lenisgrave" x="63" y="0" flags="0x4"/>
      <component glyphName="iotaadscript" x="123" y="0" flags="0x4"/>
    </TTGlyph>
    <TTGlyph name="alphalenisiotasub" xMin="32" yMin="-235" xMax="539" yMax="765">
      <component glyphName="alpha" x="0" y="0" flags="0x204"/>
      <component glyphName="lenis" x="84" y="0" flags="0x4"/>
      <component glyphName="iotaadscript" x="123" y="0" flags="0x4"/>
    </TTGlyph>
    <TTGlyph name="alphalenistilde" xMin="32" yMin="-14" xMax="539" yMax="900">
      <component glyphName="alpha" x="0" y="0" flags="0x204"/>
      <component glyphName="lenistilde" x="70" y="0" flags="0x4"/>
    </TTGlyph>
    <TTGlyph name="alphalenistildeiotasub" xMin="32" yMin="-235" xMax="539" yMax="900">
      <component glyphName="alpha" x="0" y="0" flags="0x204"/>
      <component glyphName="lenistilde" x="70" y="0" flags="0x4"/>
      <component glyphName="iotaadscript" x="123" y="0" flags="0x4"/>
    </TTGlyph>
    <TTGlyph name="alphatilde" xMin="32" yMin="-14" xMax="539" yMax="703">
      <component glyphName="alpha" x="0" y="0" flags="0x204"/>
      <component glyphName="grTilde" x="90" y="0" flags="0x4"/>
    </TTGlyph>
    <TTGlyph name="alphatildeiotasub" xMin="32" yMin="-235" xMax="539" yMax="703">
      <component glyphName="alpha" x="0" y="0" flags="0x204"/>
      <component glyphName="grTilde" x="90" y="0" flags="0x4"/>
      <component glyphName="iotaadscript" x="123" y="0" flags="0x4"/>
    </TTGlyph>
    <TTGlyph name="alphawithmacron" xMin="32" yMin="-14" xMax="539" yMax="631">
      <component glyphName="alpha" x="0" y="0" flags="0x204"/>
      <component glyphName="uni0304" x="269" y="0" flags="0x4"/>
    </TTGlyph>
    <TTGlyph name="alphawithtonos" xMin="32" yMin="-14" xMax="539" yMax="765">
      <component glyphName="alpha" x="0" y="0" flags="0x204"/>
      <component glyphName="tonos" x="133" y="0" flags="0x4"/>
    </TTGlyph>
    <TTGlyph name="amacron" xMin="50" yMin="-15" xMax="492" yMax="631">
      <component glyphName="a" x="0" y="0" flags="0x204"/>
      <component glyphName="uni0304" x="245" y="0" flags="0x4"/>
    </TTGlyph>
    <TTGlyph name="ampersand" xMin="23" yMin="-25" xMax="686" yMax="668">
      <contour>
        <pt x="292" y="-25" on="1"/>
        <pt x="237" y="-25" on="0"/>
        <pt x="138" y="6" on="0"/>
        <pt x="66" y="63" on="0"/>
        <pt x="23" y="144" on="0"/>
        <pt x="23" y="193" on="1"/>
        <pt x="23" y="250" on="0"/>
        <pt x="82" y="342" on="0"/>
        <pt x="133" y="364" on="1"/>
        <pt x="89" y="387" on="0"/>
        <pt x="44" y="464" on="0"/>
        <pt x="44" y="504" on="1"/>
        <pt x="44" y="535" on="0"/>
        <pt x="70" y="594" on="0"/>
        <pt x="121" y="640" on="0"/>
        <pt x="199" y="668" on="0"/>
        <pt x="251" y="668" on="1"/>
        <pt x="289" y="668" on="0"/>
        <pt x="381" y="650" on="0"/>
        <pt x="434" y="630" on="1"/>
        <pt x="405" y="543" on="1"/>
        <pt x="211" y="606" on="1"/>
        <pt x="174" y="588" on="0"/>
        <pt x="138" y="524" on="0"/>
        <pt x="138" y="490" on="1"/>
        <pt x="138" y="462" on="0"/>
        <pt x="162" y="408" on="0"/>
        <pt x="185" y="389" on="1"/>
        <pt x="291" y="363" on="1"/>
        <pt x="282" y="313" on="1"/>
        <pt x="241" y="313" on="0"/>
        <pt x="180" y="289" on="0"/>
        <pt x="139" y="250" on="0"/>
        <pt x="118" y="198" on="0"/>
        <pt x="118" y="170" on="1"/>
        <pt x="118" y="137" on="0"/>
        <pt x="146" y="86" on="0"/>
        <pt x="193" y="52" on="0"/>
        <pt x="254" y="35" on="0"/>
        <pt x="288" y="35" on="1"/>
        <pt x="307" y="35" on="0"/>
        <pt x="362" y="43" on="0"/>
        <pt x="391" y="55" on="1"/>
        <pt x="431" y="82" on="0"/>
        <pt x="468" y="163" on="0"/>
        <pt x="468" y="208" on="1"/>
        <pt x="468" y="242" on="0"/>
        <pt x="448" y="314" on="0"/>
        <pt x="430" y="346" on="1"/>
        <pt x="414" y="339" on="0"/>
        <pt x="377" y="319" on="0"/>
        <pt x="357" y="306" on="1"/>
        <pt x="330" y="355" on="1"/>
        <pt x="406" y="398" on="0"/>
        <pt x="514" y="446" on="0"/>
        <pt x="594" y="461" on="0"/>
        <pt x="656" y="445" on="0"/>
        <pt x="686" y="425" on="1"/>
        <pt x="663" y="332" on="1"/>
        <pt x="632" y="348" on="0"/>
        <pt x="565" y="378" on="0"/>
        <pt x="518" y="372" on="1"/>
        <pt x="538" y="334" on="0"/>
        <pt x="558" y="257" on="0"/>
        <pt x="558" y="220" on="1"/>
        <pt x="558" y="170" on="0"/>
        <pt x="522" y="80" on="0"/>
        <pt x="454" y="14" on="0"/>
        <pt x="355" y="-25" on="0"/>
      </contour>
    </TTGlyph>
    <TTGlyph name="anoteleia" xMin="50" yMin="319" xMax="169" yMax="437">
      <component glyphName="period" x="-31" y="352" flags="0x4"/>
    </TTGlyph>
    <TTGlyph name="aogonek" xMin="50" yMin="-242" xMax="492" yMax="493">
      <component glyphName="a" x="0" y="0" flags="0x204"/>
      <component glyphName="uni0328" x="449" y="3" flags="0x4"/>
    </TTGlyph>
    <TTGlyph name="approxequal" xMin="61" yMin="80" xMax="486" yMax="409">
      <component glyphName="tildecomb.case" x="265" y="-453" flags="0x4"/>
      <component glyphName="tildecomb.case" x="265" y="-623" flags="0x4"/>
    </TTGlyph>
    <TTGlyph name="aring" xMin="50" yMin="-15" xMax="492" yMax="746">
      <component glyphName="a" x="0" y="0" flags="0x204"/>
      <component glyphName="uni030A" x="246" y="-182" flags="0x4"/>
    </TTGlyph>
    <TTGlyph name="asciicircum" xMin="40" yMin="325" xMax="509" yMax="648">
      <contour>
        <pt x="40" y="358" on="1"/>
        <pt x="236" y="648" on="1"/>
        <pt x="301" y="648" on="1"/>
        <pt x="509" y="365" on="1"/>
        <pt x="462" y="331" on="1"/>
        <pt x="274" y="595" on="1"/>
        <pt x="267" y="595" on="1"/>
        <pt x="88" y="325" on="1"/>
      </contour>
    </TTGlyph>
    <TTGlyph name="asciitilde" xMin="91" yMin="180" xMax="516" yMax="339">
      <component glyphName="tildecomb.case" x="295" y="-523" flags="0x4"/>
    </TTGlyph>
    <TTGlyph name="asper" xMin="118" yMin="529" xMax="242" yMax="765">
      <contour>
        <pt x="242" y="558" on="1"/>
        <pt x="222" y="529" on="1"/>
        <pt x="171" y="554" on="0"/>
        <pt x="118" y="640" on="0"/>
        <pt x="118" y="680" on="1"/>
        <pt x="118" y="710" on="0"/>
        <pt x="155" y="758" on="0"/>
        <pt x="184" y="765" on="1"/>
        <pt x="210" y="752" on="0"/>
        <pt x="234" y="715" on="0"/>
        <pt x="238" y="689" on="1"/>
        <pt x="186" y="649" on="1"/>
        <pt x="189" y="623" on="0"/>
        <pt x="214" y="583" on="0"/>
      </contour>
    </TTGlyph>
    <TTGlyph name="asper.case" xMin="25" yMin="418" xMax="149" yMax="654">
      <contour>
        <pt x="129" y="418" on="1"/>
        <pt x="78" y="443" on="0"/>
        <pt x="25" y="529" on="0"/>
        <pt x="25" y="569" on="1"/>
        <pt x="25" y="599" on="0"/>
        <pt x="62" y="647" on="0"/>
        <pt x="91" y="654" on="1"/>
        <pt x="117" y="641" on="0"/>
        <pt x="141" y="604" on="0"/>
        <pt x="145" y="578" on="1"/>
        <pt x="93" y="538" on="1"/>
        <pt x="96" y="512" on="0"/>
        <pt x="121" y="472" on="0"/>
        <pt x="149" y="447" on="1"/>
      </contour>
    </TTGlyph>
    <TTGlyph name="asperacute" xMin="35" yMin="529" xMax="330" yMax="765">
      <contour>
        <pt x="185" y="546" on="1"/>
        <pt x="249" y="765" on="1"/>
        <pt x="273" y="764" on="0"/>
        <pt x="314" y="745" on="0"/>
        <pt x="330" y="732" on="1"/>
        <pt x="330" y="714" on="1"/>
        <pt x="220" y="529" on="1"/>
      </contour>
      <contour>
        <pt x="139" y="529" on="1"/>
        <pt x="88" y="554" on="0"/>
        <pt x="35" y="640" on="0"/>
        <pt x="35" y="680" on="1"/>
        <pt x="35" y="710" on="0"/>
        <pt x="72" y="758" on="0"/>
        <pt x="101" y="765" on="1"/>
        <pt x="127" y="752" on="0"/>
        <pt x="151" y="715" on="0"/>
        <pt x="155" y="689" on="1"/>
        <pt x="103" y="649" on="1"/>
        <pt x="106" y="623" on="0"/>
        <pt x="131" y="583" on="0"/>
        <pt x="159" y="558" on="1"/>
      </contour>
    </TTGlyph>
    <TTGlyph name="asperacute.case" xMin="-131" yMin="418" xMax="164" yMax="654">
      <contour>
        <pt x="19" y="435" on="1"/>
        <pt x="83" y="654" on="1"/>
        <pt x="107" y="653" on="0"/>
        <pt x="148" y="634" on="0"/>
        <pt x="164" y="621" on="1"/>
        <pt x="164" y="603" on="1"/>
        <pt x="54" y="418" on="1"/>
      </contour>
      <contour>
        <pt x="-27" y="418" on="1"/>
        <pt x="-78" y="443" on="0"/>
        <pt x="-131" y="529" on="0"/>
        <pt x="-131" y="569" on="1"/>
        <pt x="-131" y="599" on="0"/>
        <pt x="-94" y="647" on="0"/>
        <pt x="-65" y="654" on="1"/>
        <pt x="-39" y="641" on="0"/>
        <pt x="-15" y="604" on="0"/>
        <pt x="-11" y="578" on="1"/>
        <pt x="-63" y="538" on="1"/>
        <pt x="-60" y="512" on="0"/>
        <pt x="-35" y="472" on="0"/>
        <pt x="-7" y="447" on="1"/>
      </contour>
    </TTGlyph>
    <TTGlyph name="aspergrave" xMin="32" yMin="529" xMax="333" yMax="765">
      <contour>
        <pt x="188" y="714" on="1"/>
        <pt x="188" y="732" on="1"/>
        <pt x="204" y="745" on="0"/>
        <pt x="245" y="764" on="0"/>
        <pt x="269" y="765" on="1"/>
        <pt x="333" y="546" on="1"/>
        <pt x="298" y="529" on="1"/>
      </contour>
      <contour>
        <pt x="136" y="529" on="1"/>
        <pt x="85" y="554" on="0"/>
        <pt x="32" y="640" on="0"/>
        <pt x="32" y="680" on="1"/>
        <pt x="32" y="710" on="0"/>
        <pt x="69" y="758" on="0"/>
        <pt x="98" y="765" on="1"/>
        <pt x="124" y="752" on="0"/>
        <pt x="148" y="715" on="0"/>
        <pt x="152" y="689" on="1"/>
        <pt x="100" y="649" on="1"/>
        <pt x="103" y="623" on="0"/>
        <pt x="128" y="583" on="0"/>
        <pt x="156" y="558" on="1"/>
      </contour>
    </TTGlyph>
    <TTGlyph name="aspergrave.case" xMin="-137" yMin="418" xMax="164" yMax="654">
      <contour>
        <pt x="19" y="603" on="1"/>
        <pt x="19" y="621" on="1"/>
        <pt x="35" y="634" on="0"/>
        <pt x="76" y="653" on="0"/>
        <pt x="100" y="654" on="1"/>
        <pt x="164" y="435" on="1"/>
        <pt x="129" y="418" on="1"/>
      </contour>
      <contour>
        <pt x="-33" y="418" on="1"/>
        <pt x="-84" y="443" on="0"/>
        <pt x="-137" y="529" on="0"/>
        <pt x="-137" y="569" on="1"/>
        <pt x="-137" y="599" on="0"/>
        <pt x="-100" y="647" on="0"/>
        <pt x="-71" y="654" on="1"/>
        <pt x="-45" y="641" on="0"/>
        <pt x="-21" y="604" on="0"/>
        <pt x="-17" y="578" on="1"/>
        <pt x="-69" y="538" on="1"/>
        <pt x="-66" y="512" on="0"/>
        <pt x="-41" y="472" on="0"/>
        <pt x="-13" y="447" on="1"/>
      </contour>
    </TTGlyph>
    <TTGlyph name="aspertilde" xMin="18" yMin="529" xMax="347" yMax="900">
      <component glyphName="grTilde" x="0" y="197" flags="0x4"/>
    </TTGlyph>
    <TTGlyph name="aspertilde.case" xMin="-124" yMin="293" xMax="205" yMax="671">
      <contour>
        <pt x="123" y="542" on="1"/>
        <pt x="99" y="542" on="0"/>
        <pt x="44" y="564" on="0"/>
        <pt x="-9" y="588" on="0"/>
        <pt x="-56" y="602" on="0"/>
        <pt x="-72" y="594" on="1"/>
        <pt x="-96" y="553" on="1"/>
        <pt x="-124" y="565" on="1"/>
        <pt x="-114" y="619" on="0"/>
        <pt x="-75" y="671" on="0"/>
        <pt x="-42" y="671" on="1"/>
        <pt x="-18" y="671" on="0"/>
        <pt x="37" y="649" on="0"/>
        <pt x="90" y="625" on="0"/>
        <pt x="136" y="609" on="0"/>
        <pt x="152" y="615" on="1"/>
        <pt x="177" y="658" on="1"/>
        <pt x="205" y="648" on="1"/>
        <pt x="195" y="594" on="0"/>
        <pt x="156" y="542" on="0"/>
      </contour>
      <contour>
        <pt x="79" y="293" on="1"/>
        <pt x="28" y="318" on="0"/>
        <pt x="-25" y="404" on="0"/>
        <pt x="-25" y="444" on="1"/>
        <pt x="-25" y="474" on="0"/>
        <pt x="12" y="522" on="0"/>
        <pt x="41" y="529" on="1"/>
        <pt x="67" y="516" on="0"/>
        <pt x="91" y="479" on="0"/>
        <pt x="95" y="453" on="1"/>
        <pt x="43" y="413" on="1"/>
        <pt x="46" y="387" on="0"/>
        <pt x="71" y="347" on="0"/>
        <pt x="99" y="322" on="1"/>
      </contour>
    </TTGlyph>
    <TTGlyph name="asterisk" xMin="13" yMin="407" xMax="357" yMax="755">
      <contour>
        <pt x="122" y="736" on="1"/>
        <pt x="200" y="755" on="1"/>
        <pt x="187" y="607" on="1"/>
        <pt x="147" y="604" on="1"/>
      </contour>
      <contour>
        <pt x="198" y="616" on="1"/>
        <pt x="315" y="681" on="1"/>
        <pt x="357" y="612" on="1"/>
        <pt x="213" y="579" on="1"/>
      </contour>
      <contour>
        <pt x="13" y="566" on="1"/>
        <pt x="20" y="647" on="1"/>
        <pt x="156" y="589" on="1"/>
        <pt x="147" y="550" on="1"/>
      </contour>
      <contour>
        <pt x="199" y="546" on="1"/>
        <pt x="230" y="572" on="1"/>
        <pt x="329" y="480" on="1"/>
        <pt x="275" y="419" on="1"/>
      </contour>
      <contour>
        <pt x="64" y="439" on="1"/>
        <pt x="161" y="551" on="1"/>
        <pt x="195" y="530" on="1"/>
        <pt x="139" y="407" on="1"/>
      </contour>
    </TTGlyph>
    <TTGlyph name="at" xMin="101" yMin="-22" xMax="939" yMax="668">
      <contour>
        <pt x="232" y="-22" on="1"/>
        <pt x="166" y="49" on="0"/>
        <pt x="101" y="208" on="0"/>
        <pt x="101" y="285" on="1"/>
        <pt x="101" y="361" on="0"/>
        <pt x="161" y="500" on="0"/>
        <pt x="272" y="605" on="0"/>
        <pt x="433" y="668" on="0"/>
        <pt x="533" y="668" on="1"/>
        <pt x="636" y="668" on="0"/>
        <pt x="790" y="603" on="0"/>
        <pt x="890" y="498" on="0"/>
        <pt x="939" y="366" on="0"/>
        <pt x="939" y="299" on="1"/>
        <pt x="939" y="243" on="0"/>
        <pt x="904" y="136" on="0"/>
        <pt x="836" y="50" on="0"/>
        <pt x="734" y="-8" on="0"/>
        <pt x="666" y="-15" on="1"/>
        <pt x="651" y="-14" on="0"/>
        <pt x="606" y="29" on="0"/>
        <pt x="596" y="54" on="1"/>
        <pt x="483" y="-14" on="1"/>
        <pt x="442" y="-18" on="0"/>
        <pt x="382" y="1" on="0"/>
        <pt x="344" y="36" on="0"/>
        <pt x="326" y="82" on="0"/>
        <pt x="326" y="104" on="1"/>
        <pt x="326" y="132" on="0"/>
        <pt x="359" y="190" on="0"/>
        <pt x="396" y="211" on="1"/>
        <pt x="591" y="217" on="1"/>
        <pt x="591" y="319" on="1"/>
        <pt x="591" y="365" on="0"/>
        <pt x="568" y="413" on="0"/>
        <pt x="541" y="426" on="1"/>
        <pt x="513" y="425" on="0"/>
        <pt x="448" y="415" on="0"/>
        <pt x="428" y="409" on="1"/>
        <pt x="420" y="306" on="1"/>
        <pt x="367" y="302" on="1"/>
        <pt x="354" y="334" on="0"/>
        <pt x="339" y="390" on="0"/>
        <pt x="338" y="421" on="1"/>
        <pt x="360" y="434" on="0"/>
        <pt x="424" y="459" on="0"/>
        <pt x="489" y="480" on="0"/>
        <pt x="546" y="493" on="0"/>
        <pt x="561" y="493" on="1"/>
        <pt x="593" y="493" on="0"/>
        <pt x="657" y="444" on="0"/>
        <pt x="668" y="423" on="1"/>
        <pt x="675" y="410" on="0"/>
        <pt x="680" y="371" on="0"/>
        <pt x="680" y="319" on="1"/>
        <pt x="680" y="89" on="1"/>
        <pt x="680" y="51" on="0"/>
        <pt x="726" y="57" on="0"/>
        <pt x="745" y="70" on="1"/>
        <pt x="794" y="102" on="0"/>
        <pt x="844" y="229" on="0"/>
        <pt x="844" y="298" on="1"/>
        <pt x="844" y="354" on="0"/>
        <pt x="809" y="465" on="0"/>
        <pt x="736" y="553" on="0"/>
        <pt x="619" y="608" on="0"/>
        <pt x="538" y="608" on="1"/>
        <pt x="460" y="608" on="0"/>
        <pt x="334" y="555" on="0"/>
        <pt x="247" y="465" on="0"/>
        <pt x="200" y="345" on="0"/>
        <pt x="200" y="279" on="1"/>
        <pt x="200" y="214" on="0"/>
        <pt x="246" y="79" on="0"/>
        <pt x="293" y="18" on="1"/>
      </contour>
      <contour>
        <pt x="446" y="58" on="1"/>
        <pt x="483" y="57" on="0"/>
        <pt x="565" y="83" on="0"/>
        <pt x="591" y="95" on="1"/>
        <pt x="591" y="164" on="1"/>
        <pt x="563" y="167" on="0"/>
        <pt x="503" y="166" on="0"/>
        <pt x="453" y="154" on="0"/>
        <pt x="420" y="128" on="0"/>
        <pt x="420" y="104" on="1"/>
        <pt x="420" y="91" on="0"/>
        <pt x="433" y="66" on="0"/>
      </contour>
    </TTGlyph>
    <TTGlyph name="atilde" xMin="50" yMin="-15" xMax="492" yMax="704">
      <component glyphName="a" x="0" y="0" flags="0x204"/>
      <component glyphName="tildecomb" x="246" y="0" flags="0x4"/>
    </TTGlyph>
    <TTGlyph name="b" xMin="-20" yMin="-19" xMax="495" yMax="735">
      <contour>
        <pt x="237" y="-19" on="1"/>
        <pt x="197" y="-19" on="0"/>
        <pt x="112" y="3" on="0"/>
        <pt x="66" y="24" on="1"/>
        <pt x="66" y="663" on="1"/>
        <pt x="-8" y="657" on="1"/>
        <pt x="-20" y="704" on="1"/>
        <pt x="10" y="717" on="0"/>
        <pt x="85" y="734" on="0"/>
        <pt x="116" y="735" on="1"/>
        <pt x="155" y="699" on="1"/>
        <pt x="155" y="406" on="1"/>
        <pt x="273" y="481" on="1"/>
        <pt x="323" y="491" on="0"/>
        <pt x="405" y="461" on="0"/>
        <pt x="463" y="396" on="0"/>
        <pt x="495" y="302" on="0"/>
        <pt x="495" y="250" on="1"/>
        <pt x="495" y="193" on="0"/>
        <pt x="457" y="94" on="0"/>
        <pt x="389" y="22" on="0"/>
        <pt x="293" y="-19" on="0"/>
      </contour>
      <contour>
        <pt x="278" y="403" on="1"/>
        <pt x="249" y="403" on="0"/>
        <pt x="186" y="374" on="0"/>
        <pt x="155" y="353" on="1"/>
        <pt x="155" y="84" on="1"/>
        <pt x="179" y="66" on="0"/>
        <pt x="262" y="42" on="0"/>
        <pt x="316" y="50" on="1"/>
        <pt x="356" y="75" on="0"/>
        <pt x="401" y="176" on="0"/>
        <pt x="401" y="230" on="1"/>
        <pt x="401" y="264" on="0"/>
        <pt x="383" y="326" on="0"/>
        <pt x="351" y="374" on="0"/>
        <pt x="306" y="403" on="0"/>
      </contour>
    </TTGlyph>
    <TTGlyph name="backslash" xMin="4" yMin="-126" xMax="378" yMax="707">
      <contour>
        <pt x="4" y="681" on="1"/>
        <pt x="70" y="707" on="1"/>
        <pt x="378" y="-102" on="1"/>
        <pt x="310" y="-126" on="1"/>
      </contour>
    </TTGlyph>
    <TTGlyph name="bar" xMin="107" yMin="-225" xMax="184" yMax="735">
      <contour>
        <pt x="107" y="735" on="1"/>
        <pt x="184" y="735" on="1"/>
        <pt x="184" y="-225" on="1"/>
        <pt x="107" y="-225" on="1"/>
      </contour>
    </TTGlyph>
    <TTGlyph name="beta" xMin="50" yMin="-225" xMax="483" yMax="735">
      <contour>
        <pt x="50" y="-213" on="1"/>
        <pt x="57" y="-4" on="1"/>
        <pt x="59" y="58" on="0"/>
        <pt x="61" y="165" on="0"/>
        <pt x="61" y="238" on="1"/>
        <pt x="61" y="468" on="1"/>
        <pt x="61" y="592" on="0"/>
        <pt x="176" y="735" on="0"/>
        <pt x="275" y="735" on="1"/>
        <pt x="352" y="735" on="0"/>
        <pt x="451" y="634" on="0"/>
        <pt x="451" y="556" on="1"/>
        <pt x="451" y="500" on="0"/>
        <pt x="390" y="410" on="0"/>
        <pt x="337" y="385" on="1"/>
        <pt x="406" y="359" on="0"/>
        <pt x="483" y="259" on="0"/>
        <pt x="483" y="195" on="1"/>
        <pt x="483" y="149" on="0"/>
        <pt x="452" y="70" on="0"/>
        <pt x="399" y="13" on="0"/>
        <pt x="326" y="-20" on="0"/>
        <pt x="284" y="-20" on="1"/>
        <pt x="244" y="-20" on="0"/>
        <pt x="156" y="19" on="0"/>
        <pt x="124" y="50" on="1"/>
        <pt x="166" y="-201" on="1"/>
        <pt x="154" y="-209" on="0"/>
        <pt x="102" y="-224" on="0"/>
        <pt x="74" y="-225" on="1"/>
      </contour>
      <contour>
        <pt x="175" y="320" on="1"/>
        <pt x="171" y="336" on="0"/>
        <pt x="167" y="394" on="0"/>
        <pt x="170" y="414" on="1"/>
        <pt x="286" y="407" on="1"/>
        <pt x="332" y="429" on="0"/>
        <pt x="381" y="512" on="0"/>
        <pt x="381" y="568" on="1"/>
        <pt x="381" y="586" on="0"/>
        <pt x="376" y="614" on="0"/>
        <pt x="372" y="626" on="1"/>
        <pt x="356" y="636" on="0"/>
        <pt x="310" y="645" on="0"/>
        <pt x="287" y="645" on="1"/>
        <pt x="206" y="645" on="0"/>
        <pt x="117" y="518" on="0"/>
        <pt x="117" y="402" on="1"/>
        <pt x="117" y="182" on="1"/>
        <pt x="117" y="157" on="0"/>
        <pt x="120" y="115" on="0"/>
        <pt x="121" y="101" on="1"/>
        <pt x="142" y="86" on="0"/>
        <pt x="209" y="70" on="0"/>
        <pt x="249" y="70" on="1"/>
        <pt x="292" y="70" on="0"/>
        <pt x="356" y="97" on="0"/>
        <pt x="398" y="139" on="0"/>
        <pt x="421" y="195" on="0"/>
        <pt x="422" y="225" on="1"/>
        <pt x="411" y="260" on="0"/>
        <pt x="334" y="316" on="0"/>
        <pt x="281" y="329" on="1"/>
        <pt x="196" y="306" on="1"/>
      </contour>
    </TTGlyph>
    <TTGlyph name="braceleft" xMin="69" yMin="-145" xMax="332" yMax="729">
      <contour>
        <pt x="319" y="-145" on="1"/>
        <pt x="279" y="-141" on="0"/>
        <pt x="214" y="-111" on="0"/>
        <pt x="168" y="-69" on="0"/>
        <pt x="144" y="-16" on="0"/>
        <pt x="144" y="10" on="1"/>
        <pt x="144" y="142" on="1"/>
        <pt x="144" y="202" on="0"/>
        <pt x="121" y="264" on="0"/>
        <pt x="69" y="268" on="1"/>
        <pt x="75" y="327" on="1"/>
        <pt x="121" y="331" on="0"/>
        <pt x="144" y="392" on="0"/>
        <pt x="144" y="443" on="1"/>
        <pt x="144" y="561" on="1"/>
        <pt x="144" y="620" on="0"/>
        <pt x="230" y="719" on="0"/>
        <pt x="326" y="729" on="1"/>
        <pt x="332" y="656" on="1"/>
        <pt x="239" y="656" on="1"/>
        <pt x="239" y="449" on="1"/>
        <pt x="239" y="411" on="0"/>
        <pt x="217" y="340" on="0"/>
        <pt x="189" y="304" on="1"/>
        <pt x="189" y="295" on="1"/>
        <pt x="217" y="258" on="0"/>
        <pt x="239" y="188" on="0"/>
        <pt x="239" y="149" on="1"/>
        <pt x="239" y="-60" on="1"/>
        <pt x="329" y="-72" on="1"/>
      </contour>
    </TTGlyph>
    <TTGlyph name="braceright" xMin="89" yMin="-145" xMax="352" yMax="729">
      <contour>
        <pt x="92" y="-72" on="1"/>
        <pt x="182" y="-60" on="1"/>
        <pt x="182" y="149" on="1"/>
        <pt x="182" y="188" on="0"/>
        <pt x="204" y="258" on="0"/>
        <pt x="232" y="295" on="1"/>
        <pt x="232" y="304" on="1"/>
        <pt x="204" y="340" on="0"/>
        <pt x="182" y="411" on="0"/>
        <pt x="182" y="449" on="1"/>
        <pt x="182" y="656" on="1"/>
        <pt x="89" y="656" on="1"/>
        <pt x="95" y="729" on="1"/>
        <pt x="191" y="719" on="0"/>
        <pt x="277" y="620" on="0"/>
        <pt x="277" y="561" on="1"/>
        <pt x="277" y="443" on="1"/>
        <pt x="277" y="392" on="0"/>
        <pt x="300" y="331" on="0"/>
        <pt x="346" y="327" on="1"/>
        <pt x="352" y="268" on="1"/>
        <pt x="300" y="264" on="0"/>
        <pt x="277" y="202" on="0"/>
        <pt x="277" y="142" on="1"/>
        <pt x="277" y="10" on="1"/>
        <pt x="277" y="-16" on="0"/>
        <pt x="253" y="-69" on="0"/>
        <pt x="207" y="-111" on="0"/>
        <pt x="142" y="-141" on="0"/>
        <pt x="102" y="-145" on="1"/>
      </contour>
    </TTGlyph>
    <TTGlyph name="bracketleft" xMin="99" yMin="-122" xMax="312" yMax="712">
      <contour>
        <pt x="99" y="712" on="1"/>
        <pt x="306" y="712" on="1"/>
        <pt x="312" y="656" on="1"/>
        <pt x="182" y="634" on="1"/>
        <pt x="182" y="-44" on="1"/>
        <pt x="312" y="-66" on="1"/>
        <pt x="306" y="-122" on="1"/>
        <pt x="99" y="-122" on="1"/>
      </contour>
    </TTGlyph>
    <TTGlyph name="bracketright" xMin="35" yMin="-122" xMax="248" yMax="712">
      <contour>
        <pt x="35" y="-66" on="1"/>
        <pt x="165" y="-44" on="1"/>
        <pt x="165" y="634" on="1"/>
        <pt x="35" y="656" on="1"/>
        <pt x="41" y="712" on="1"/>
        <pt x="248" y="712" on="1"/>
        <pt x="248" y="-122" on="1"/>
        <pt x="41" y="-122" on="1"/>
      </contour>
    </TTGlyph>
    <TTGlyph name="breve" xMin="40" yMin="551" xMax="330" yMax="715">
      <component glyphName="uni0306" x="184" y="0" flags="0x4"/>
    </TTGlyph>
    <TTGlyph name="brokenbar" xMin="107" yMin="-76" xMax="184" yMax="616">
      <contour>
        <pt x="107" y="616" on="1"/>
        <pt x="184" y="616" on="1"/>
        <pt x="184" y="358" on="1"/>
        <pt x="107" y="358" on="1"/>
      </contour>
      <contour>
        <pt x="107" y="182" on="1"/>
        <pt x="184" y="182" on="1"/>
        <pt x="184" y="-76" on="1"/>
        <pt x="107" y="-76" on="1"/>
      </contour>
    </TTGlyph>
    <TTGlyph name="bullet" xMin="85" yMin="136" xMax="326" yMax="392">
      <contour>
        <pt x="218" y="136" on="1"/>
        <pt x="170" y="147" on="0"/>
        <pt x="102" y="203" on="0"/>
        <pt x="85" y="245" on="1"/>
        <pt x="95" y="296" on="0"/>
        <pt x="152" y="370" on="0"/>
        <pt x="197" y="392" on="1"/>
        <pt x="244" y="376" on="0"/>
        <pt x="310" y="311" on="0"/>
        <pt x="326" y="264" on="1"/>
        <pt x="317" y="221" on="0"/>
        <pt x="262" y="157" on="0"/>
      </contour>
    </TTGlyph>
    <TTGlyph name="bulletoperator" xMin="30" yMin="178" xMax="149" yMax="296">
      <contour>
        <pt x="97" y="178" on="1"/>
        <pt x="81" y="184" on="0"/>
        <pt x="40" y="215" on="0"/>
        <pt x="30" y="230" on="1"/>
        <pt x="40" y="249" on="0"/>
        <pt x="69" y="287" on="0"/>
        <pt x="84" y="296" on="1"/>
        <pt x="102" y="289" on="0"/>
        <pt x="139" y="257" on="0"/>
        <pt x="149" y="244" on="1"/>
        <pt x="142" y="226" on="0"/>
        <pt x="113" y="188" on="0"/>
      </contour>
    </TTGlyph>
    <TTGlyph name="c" xMin="20" yMin="-15" xMax="400" yMax="488">
      <contour>
        <pt x="258" y="-15" on="1"/>
        <pt x="199" y="-16" on="0"/>
        <pt x="110" y="24" on="0"/>
        <pt x="50" y="91" on="0"/>
        <pt x="20" y="183" on="0"/>
        <pt x="20" y="234" on="1"/>
        <pt x="20" y="290" on="0"/>
        <pt x="55" y="384" on="0"/>
        <pt x="115" y="451" on="0"/>
        <pt x="199" y="488" on="0"/>
        <pt x="248" y="488" on="1"/>
        <pt x="294" y="488" on="0"/>
        <pt x="367" y="454" on="0"/>
        <pt x="400" y="422" on="1"/>
        <pt x="347" y="351" on="1"/>
        <pt x="309" y="381" on="0"/>
        <pt x="219" y="422" on="0"/>
        <pt x="175" y="425" on="1"/>
        <pt x="144" y="388" on="0"/>
        <pt x="113" y="303" on="0"/>
        <pt x="113" y="254" on="1"/>
        <pt x="113" y="170" on="0"/>
        <pt x="196" y="59" on="0"/>
        <pt x="273" y="59" on="1"/>
        <pt x="295" y="59" on="0"/>
        <pt x="350" y="70" on="0"/>
        <pt x="377" y="82" on="1"/>
        <pt x="394" y="40" on="1"/>
      </contour>
    </TTGlyph>
    <TTGlyph name="cacute" xMin="20" yMin="-15" xMax="400" yMax="734">
      <component glyphName="c" x="0" y="0" flags="0x204"/>
      <component glyphName="acutecomb" x="236" y="0" flags="0x4"/>
    </TTGlyph>
    <TTGlyph name="caron" xMin="31" yMin="541" xMax="365" yMax="743">
      <component glyphName="uni030C" x="209" y="0" flags="0x4"/>
    </TTGlyph>
    <TTGlyph name="ccaron" xMin="20" yMin="-15" xMax="400" yMax="743">
      <component glyphName="c" x="0" y="0" flags="0x204"/>
      <component glyphName="uni030C" x="236" y="0" flags="0x4"/>
    </TTGlyph>
    <TTGlyph name="ccedilla" xMin="20" yMin="-265" xMax="400" yMax="488">
      <component glyphName="c" x="0" y="0" flags="0x204"/>
      <component glyphName="uni0327" x="236" y="0" flags="0x4"/>
    </TTGlyph>
    <TTGlyph name="cedilla" xMin="30" yMin="-265" xMax="220" yMax="6">
      <component glyphName="uni0327" x="109" y="0" flags="0x4"/>
    </TTGlyph>
    <TTGlyph name="cent" xMin="20" yMin="-115" xMax="400" yMax="605">
      <contour>
        <pt x="210" y="605" on="1"/>
        <pt x="272" y="605" on="1"/>
        <pt x="272" y="475" on="1"/>
        <pt x="309" y="471" on="0"/>
        <pt x="372" y="441" on="0"/>
        <pt x="400" y="416" on="1"/>
        <pt x="347" y="351" on="1"/>
        <pt x="309" y="378" on="0"/>
        <pt x="219" y="416" on="0"/>
        <pt x="175" y="418" on="1"/>
        <pt x="144" y="384" on="0"/>
        <pt x="113" y="307" on="0"/>
        <pt x="113" y="262" on="1"/>
        <pt x="113" y="185" on="0"/>
        <pt x="196" y="83" on="0"/>
        <pt x="273" y="83" on="1"/>
        <pt x="295" y="83" on="0"/>
        <pt x="350" y="93" on="0"/>
        <pt x="377" y="104" on="1"/>
        <pt x="394" y="66" on="1"/>
        <pt x="272" y="20" on="1"/>
        <pt x="272" y="-115" on="1"/>
        <pt x="210" y="-115" on="1"/>
        <pt x="210" y="18" on="1"/>
        <pt x="163" y="25" on="0"/>
        <pt x="92" y="65" on="0"/>
        <pt x="44" y="125" on="0"/>
        <pt x="20" y="201" on="0"/>
        <pt x="20" y="243" on="1"/>
        <pt x="20" y="336" on="0"/>
        <pt x="127" y="461" on="0"/>
        <pt x="210" y="473" on="1"/>
      </contour>
    </TTGlyph>
    <TTGlyph name="chi" xMin="-3" yMin="-230" xMax="527" yMax="487">
      <contour>
        <pt x="108" y="-230" on="1"/>
        <pt x="85" y="-226" on="0"/>
        <pt x="41" y="-195" on="0"/>
        <pt x="32" y="-178" on="1"/>
        <pt x="230" y="144" on="1"/>
        <pt x="213" y="184" on="0"/>
        <pt x="178" y="258" on="0"/>
        <pt x="150" y="309" on="1"/>
        <pt x="134" y="340" on="0"/>
        <pt x="112" y="376" on="0"/>
        <pt x="102" y="389" on="1"/>
        <pt x="32" y="368" on="1"/>
        <pt x="15" y="379" on="1"/>
        <pt x="8" y="391" on="0"/>
        <pt x="-3" y="444" on="0"/>
        <pt x="-3" y="464" on="1"/>
        <pt x="14" y="471" on="0"/>
        <pt x="56" y="480" on="0"/>
        <pt x="72" y="480" on="1"/>
        <pt x="129" y="480" on="0"/>
        <pt x="218" y="375" on="0"/>
        <pt x="263" y="259" on="1"/>
        <pt x="269" y="196" on="1"/>
        <pt x="273" y="195" on="1"/>
        <pt x="402" y="476" on="1"/>
        <pt x="423" y="487" on="1"/>
        <pt x="445" y="480" on="0"/>
        <pt x="495" y="445" on="0"/>
        <pt x="501" y="433" on="1"/>
        <pt x="306" y="137" on="1"/>
        <pt x="408" y="-132" on="1"/>
        <pt x="516" y="-119" on="1"/>
        <pt x="527" y="-149" on="1"/>
        <pt x="517" y="-181" on="0"/>
        <pt x="467" y="-228" on="0"/>
        <pt x="443" y="-228" on="1"/>
        <pt x="412" y="-228" on="0"/>
        <pt x="371" y="-182" on="0"/>
        <pt x="344" y="-119" on="1"/>
        <pt x="259" y="80" on="1"/>
        <pt x="132" y="-215" on="1"/>
      </contour>
    </TTGlyph>
    <TTGlyph name="circumflex" xMin="28" yMin="535" xMax="359" yMax="717">
      <component glyphName="uni0302" x="189" y="0" flags="0x4"/>
    </TTGlyph>
    <TTGlyph name="colon" xMin="81" yMin="-20" xMax="218" yMax="431">
      <contour>
        <pt x="157" y="287" on="1"/>
        <pt x="130" y="292" on="0"/>
        <pt x="91" y="323" on="0"/>
        <pt x="81" y="348" on="1"/>
        <pt x="85" y="376" on="0"/>
        <pt x="118" y="418" on="0"/>
        <pt x="145" y="431" on="1"/>
        <pt x="175" y="420" on="0"/>
        <pt x="214" y="383" on="0"/>
        <pt x="218" y="359" on="1"/>
        <pt x="211" y="334" on="0"/>
        <pt x="179" y="297" on="0"/>
      </contour>
      <contour>
        <pt x="157" y="-20" on="1"/>
        <pt x="130" y="-15" on="0"/>
        <pt x="91" y="16" on="0"/>
        <pt x="81" y="41" on="1"/>
        <pt x="85" y="69" on="0"/>
        <pt x="118" y="111" on="0"/>
        <pt x="145" y="124" on="1"/>
        <pt x="175" y="113" on="0"/>
        <pt x="214" y="76" on="0"/>
        <pt x="218" y="52" on="1"/>
        <pt x="211" y="27" on="0"/>
        <pt x="179" y="-10" on="0"/>
      </contour>
    </TTGlyph>
    <TTGlyph name="comma" xMin="42" yMin="-146" xMax="190" yMax="120">
      <contour>
        <pt x="42" y="-108" on="1"/>
        <pt x="74" y="-81" on="0"/>
        <pt x="108" y="-27" on="0"/>
        <pt x="110" y="0" on="1"/>
        <pt x="58" y="40" on="1"/>
        <pt x="62" y="68" on="0"/>
        <pt x="95" y="108" on="0"/>
        <pt x="119" y="120" on="1"/>
        <pt x="152" y="110" on="0"/>
        <pt x="190" y="58" on="0"/>
        <pt x="190" y="25" on="1"/>
        <pt x="190" y="-19" on="0"/>
        <pt x="128" y="-115" on="0"/>
        <pt x="71" y="-146" on="1"/>
      </contour>
    </TTGlyph>
    <TTGlyph name="copyright" xMin="62" yMin="-19" xMax="767" yMax="686">
      <contour>
        <pt x="415" y="-19" on="1"/>
        <pt x="342" y="-19" on="0"/>
        <pt x="213" y="34" on="0"/>
        <pt x="118" y="128" on="0"/>
        <pt x="62" y="256" on="0"/>
        <pt x="62" y="331" on="1"/>
        <pt x="62" y="405" on="0"/>
        <pt x="118" y="535" on="0"/>
        <pt x="213" y="631" on="0"/>
        <pt x="342" y="686" on="0"/>
        <pt x="414" y="686" on="1"/>
        <pt x="487" y="686" on="0"/>
        <pt x="616" y="631" on="0"/>
        <pt x="711" y="535" on="0"/>
        <pt x="767" y="406" on="0"/>
        <pt x="767" y="332" on="1"/>
        <pt x="767" y="260" on="0"/>
        <pt x="713" y="132" on="0"/>
        <pt x="619" y="37" on="0"/>
        <pt x="490" y="-19" on="0"/>
      </contour>
      <contour>
        <pt x="413" y="42" on="1"/>
        <pt x="474" y="42" on="0"/>
        <pt x="581" y="88" on="0"/>
        <pt x="660" y="167" on="0"/>
        <pt x="706" y="274" on="0"/>
        <pt x="706" y="334" on="1"/>
        <pt x="706" y="394" on="0"/>
        <pt x="660" y="500" on="0"/>
        <pt x="582" y="579" on="0"/>
        <pt x="475" y="625" on="0"/>
        <pt x="415" y="625" on="1"/>
        <pt x="355" y="625" on="0"/>
        <pt x="248" y="579" on="0"/>
        <pt x="169" y="500" on="0"/>
        <pt x="123" y="392" on="0"/>
        <pt x="123" y="331" on="1"/>
        <pt x="123" y="269" on="0"/>
        <pt x="169" y="163" on="0"/>
        <pt x="248" y="86" on="0"/>
        <pt x="354" y="42" on="0"/>
      </contour>
      <contour>
        <pt x="429" y="133" on="1"/>
        <pt x="379" y="134" on="0"/>
        <pt x="304" y="168" on="0"/>
        <pt x="255" y="223" on="0"/>
        <pt x="231" y="293" on="0"/>
        <pt x="231" y="329" on="1"/>
        <pt x="231" y="366" on="0"/>
        <pt x="256" y="439" on="0"/>
        <pt x="305" y="494" on="0"/>
        <pt x="379" y="529" on="0"/>
        <pt x="426" y="529" on="1"/>
        <pt x="469" y="529" on="0"/>
        <pt x="545" y="496" on="0"/>
        <pt x="575" y="457" on="1"/>
        <pt x="516" y="403" on="1"/>
        <pt x="488" y="434" on="0"/>
        <pt x="415" y="471" on="0"/>
        <pt x="367" y="472" on="1"/>
        <pt x="336" y="446" on="0"/>
        <pt x="306" y="376" on="0"/>
        <pt x="306" y="341" on="1"/>
        <pt x="306" y="288" on="0"/>
        <pt x="373" y="205" on="0"/>
        <pt x="439" y="205" on="1"/>
        <pt x="462" y="205" on="0"/>
        <pt x="517" y="218" on="0"/>
        <pt x="548" y="232" on="1"/>
        <pt x="565" y="190" on="1"/>
      </contour>
    </TTGlyph>
    <TTGlyph name="currency" xMin="60" yMin="129" xMax="450" yMax="579">
      <contour>
        <pt x="66" y="170" on="1"/>
        <pt x="121" y="238" on="1"/>
        <pt x="103" y="261" on="0"/>
        <pt x="82" y="322" on="0"/>
        <pt x="82" y="356" on="1"/>
        <pt x="82" y="390" on="0"/>
        <pt x="103" y="448" on="0"/>
        <pt x="120" y="470" on="1"/>
        <pt x="60" y="538" on="1"/>
        <pt x="107" y="579" on="1"/>
        <pt x="168" y="511" on="1"/>
        <pt x="188" y="523" on="0"/>
        <pt x="235" y="536" on="0"/>
        <pt x="260" y="536" on="1"/>
        <pt x="283" y="536" on="0"/>
        <pt x="328" y="524" on="0"/>
        <pt x="347" y="512" on="1"/>
        <pt x="402" y="578" on="1"/>
        <pt x="450" y="539" on="1"/>
        <pt x="393" y="470" on="1"/>
        <pt x="408" y="448" on="0"/>
        <pt x="426" y="392" on="0"/>
        <pt x="426" y="358" on="1"/>
        <pt x="426" y="321" on="0"/>
        <pt x="406" y="261" on="0"/>
        <pt x="388" y="239" on="1"/>
        <pt x="448" y="174" on="1"/>
        <pt x="404" y="131" on="1"/>
        <pt x="342" y="198" on="1"/>
        <pt x="322" y="186" on="0"/>
        <pt x="276" y="174" on="0"/>
        <pt x="253" y="174" on="1"/>
        <pt x="229" y="174" on="0"/>
        <pt x="187" y="186" on="0"/>
        <pt x="168" y="197" on="1"/>
        <pt x="112" y="129" on="1"/>
      </contour>
      <contour>
        <pt x="271" y="233" on="1"/>
        <pt x="279" y="233" on="0"/>
        <pt x="300" y="235" on="0"/>
        <pt x="311" y="237" on="1"/>
        <pt x="327" y="241" on="0"/>
        <pt x="355" y="307" on="0"/>
        <pt x="355" y="347" on="1"/>
        <pt x="355" y="369" on="0"/>
        <pt x="344" y="414" on="0"/>
        <pt x="316" y="451" on="0"/>
        <pt x="268" y="475" on="0"/>
        <pt x="233" y="475" on="1"/>
        <pt x="224" y="475" on="0"/>
        <pt x="206" y="473" on="0"/>
        <pt x="196" y="471" on="1"/>
        <pt x="177" y="457" on="0"/>
        <pt x="152" y="395" on="0"/>
        <pt x="152" y="359" on="1"/>
        <pt x="152" y="336" on="0"/>
        <pt x="165" y="290" on="0"/>
        <pt x="193" y="255" on="0"/>
        <pt x="239" y="233" on="0"/>
      </contour>
    </TTGlyph>
    <TTGlyph name="d" xMin="20" yMin="-15" xMax="531" yMax="735">
      <contour>
        <pt x="249" y="-15" on="1"/>
        <pt x="199" y="-16" on="0"/>
        <pt x="114" y="23" on="0"/>
        <pt x="54" y="91" on="0"/>
        <pt x="20" y="182" on="0"/>
        <pt x="20" y="233" on="1"/>
        <pt x="20" y="291" on="0"/>
        <pt x="62" y="386" on="0"/>
        <pt x="131" y="453" on="0"/>
        <pt x="223" y="490" on="0"/>
        <pt x="272" y="490" on="1"/>
        <pt x="295" y="490" on="0"/>
        <pt x="337" y="482" on="0"/>
        <pt x="355" y="475" on="1"/>
        <pt x="355" y="663" on="1"/>
        <pt x="280" y="657" on="1"/>
        <pt x="268" y="704" on="1"/>
        <pt x="298" y="717" on="0"/>
        <pt x="373" y="734" on="0"/>
        <pt x="404" y="735" on="1"/>
        <pt x="444" y="699" on="1"/>
        <pt x="444" y="86" on="1"/>
        <pt x="444" y="75" on="0"/>
        <pt x="459" y="66" on="0"/>
        <pt x="470" y="66" on="1"/>
        <pt x="480" y="66" on="0"/>
        <pt x="506" y="72" on="0"/>
        <pt x="516" y="75" on="1"/>
        <pt x="531" y="31" on="1"/>
        <pt x="430" y="-15" on="1"/>
        <pt x="415" y="-14" on="0"/>
        <pt x="368" y="31" on="0"/>
        <pt x="358" y="58" on="1"/>
      </contour>
      <contour>
        <pt x="114" y="244" on="1"/>
        <pt x="114" y="169" on="0"/>
        <pt x="188" y="67" on="0"/>
        <pt x="250" y="67" on="1"/>
        <pt x="272" y="67" on="0"/>
        <pt x="325" y="84" on="0"/>
        <pt x="355" y="102" on="1"/>
        <pt x="355" y="380" on="1"/>
        <pt x="324" y="405" on="0"/>
        <pt x="234" y="430" on="0"/>
        <pt x="185" y="420" on="1"/>
        <pt x="151" y="389" on="0"/>
        <pt x="114" y="295" on="0"/>
      </contour>
    </TTGlyph>
    <TTGlyph name="dagger" xMin="50" yMin="-180" xMax="481" yMax="689">
      <contour>
        <pt x="50" y="425" on="1"/>
        <pt x="93" y="468" on="1"/>
        <pt x="211" y="468" on="1"/>
        <pt x="207" y="657" on="1"/>
        <pt x="241" y="689" on="1"/>
        <pt x="303" y="685" on="1"/>
        <pt x="298" y="468" on="1"/>
        <pt x="475" y="468" on="1"/>
        <pt x="481" y="439" on="1"/>
        <pt x="438" y="396" on="1"/>
        <pt x="297" y="396" on="1"/>
        <pt x="284" y="-180" on="1"/>
        <pt x="223" y="-180" on="1"/>
        <pt x="212" y="396" on="1"/>
        <pt x="56" y="396" on="1"/>
      </contour>
    </TTGlyph>
    <TTGlyph name="daggerdbl" xMin="50" yMin="-180" xMax="490" yMax="689">
      <contour>
        <pt x="50" y="148" on="1"/>
        <pt x="93" y="191" on="1"/>
        <pt x="225" y="191" on="1"/>
        <pt x="221" y="396" on="1"/>
        <pt x="65" y="396" on="1"/>
        <pt x="59" y="425" on="1"/>
        <pt x="102" y="468" on="1"/>
        <pt x="220" y="468" on="1"/>
        <pt x="216" y="657" on="1"/>
        <pt x="250" y="689" on="1"/>
        <pt x="312" y="685" on="1"/>
        <pt x="307" y="468" on="1"/>
        <pt x="484" y="468" on="1"/>
        <pt x="490" y="439" on="1"/>
        <pt x="447" y="396" on="1"/>
        <pt x="306" y="396" on="1"/>
        <pt x="301" y="191" on="1"/>
        <pt x="475" y="191" on="1"/>
        <pt x="481" y="162" on="1"/>
        <pt x="438" y="119" on="1"/>
        <pt x="300" y="119" on="1"/>
        <pt x="293" y="-180" on="1"/>
        <pt x="232" y="-180" on="1"/>
        <pt x="226" y="119" on="1"/>
        <pt x="56" y="119" on="1"/>
      </contour>
    </TTGlyph>
    <TTGlyph name="dcaron" xMin="20" yMin="-15" xMax="638" yMax="803">
      <component glyphName="d" x="0" y="0" flags="0x204"/>
      <component glyphName="uni030C.calt" x="525" y="41" flags="0x4"/>
    </TTGlyph>
    <TTGlyph name="dcroat" xMin="20" yMin="-15" xMax="545" yMax="735">
      <contour>
        <pt x="249" y="-15" on="1"/>
        <pt x="199" y="-16" on="0"/>
        <pt x="114" y="23" on="0"/>
        <pt x="54" y="91" on="0"/>
        <pt x="20" y="182" on="0"/>
        <pt x="20" y="233" on="1"/>
        <pt x="20" y="291" on="0"/>
        <pt x="62" y="386" on="0"/>
        <pt x="131" y="453" on="0"/>
        <pt x="223" y="490" on="0"/>
        <pt x="272" y="490" on="1"/>
        <pt x="295" y="490" on="0"/>
        <pt x="337" y="482" on="0"/>
        <pt x="355" y="475" on="1"/>
        <pt x="355" y="548" on="1"/>
        <pt x="229" y="548" on="1"/>
        <pt x="223" y="577" on="1"/>
        <pt x="266" y="602" on="1"/>
        <pt x="355" y="602" on="1"/>
        <pt x="355" y="663" on="1"/>
        <pt x="280" y="657" on="1"/>
        <pt x="268" y="704" on="1"/>
        <pt x="298" y="717" on="0"/>
        <pt x="373" y="734" on="0"/>
        <pt x="404" y="735" on="1"/>
        <pt x="444" y="699" on="1"/>
        <pt x="444" y="602" on="1"/>
        <pt x="539" y="602" on="1"/>
        <pt x="545" y="573" on="1"/>
        <pt x="502" y="548" on="1"/>
        <pt x="444" y="548" on="1"/>
        <pt x="444" y="86" on="1"/>
        <pt x="444" y="75" on="0"/>
        <pt x="459" y="66" on="0"/>
        <pt x="470" y="66" on="1"/>
        <pt x="480" y="66" on="0"/>
        <pt x="506" y="72" on="0"/>
        <pt x="516" y="75" on="1"/>
        <pt x="531" y="31" on="1"/>
        <pt x="430" y="-15" on="1"/>
        <pt x="415" y="-14" on="0"/>
        <pt x="368" y="31" on="0"/>
        <pt x="358" y="58" on="1"/>
      </contour>
      <contour>
        <pt x="114" y="244" on="1"/>
        <pt x="114" y="169" on="0"/>
        <pt x="188" y="67" on="0"/>
        <pt x="250" y="67" on="1"/>
        <pt x="272" y="67" on="0"/>
        <pt x="325" y="84" on="0"/>
        <pt x="355" y="102" on="1"/>
        <pt x="355" y="380" on="1"/>
        <pt x="324" y="405" on="0"/>
        <pt x="234" y="430" on="0"/>
        <pt x="185" y="420" on="1"/>
        <pt x="151" y="389" on="0"/>
        <pt x="114" y="295" on="0"/>
      </contour>
    </TTGlyph>
    <TTGlyph name="degree" xMin="30" yMin="374" xMax="293" yMax="637">
      <contour>
        <pt x="164" y="374" on="1"/>
        <pt x="110" y="374" on="0"/>
        <pt x="30" y="446" on="0"/>
        <pt x="30" y="505" on="1"/>
        <pt x="30" y="560" on="0"/>
        <pt x="106" y="637" on="0"/>
        <pt x="160" y="637" on="1"/>
        <pt x="216" y="637" on="0"/>
        <pt x="293" y="560" on="0"/>
        <pt x="293" y="505" on="1"/>
        <pt x="293" y="445" on="0"/>
        <pt x="220" y="374" on="0"/>
      </contour>
      <contour>
        <pt x="171" y="422" on="1"/>
        <pt x="178" y="422" on="0"/>
        <pt x="196" y="424" on="0"/>
        <pt x="205" y="427" on="1"/>
        <pt x="220" y="440" on="0"/>
        <pt x="234" y="476" on="0"/>
        <pt x="234" y="495" on="1"/>
        <pt x="234" y="529" on="0"/>
        <pt x="190" y="587" on="0"/>
        <pt x="153" y="587" on="1"/>
        <pt x="143" y="587" on="0"/>
        <pt x="123" y="582" on="0"/>
        <pt x="112" y="578" on="1"/>
        <pt x="100" y="564" on="0"/>
        <pt x="88" y="529" on="0"/>
        <pt x="88" y="511" on="1"/>
        <pt x="88" y="477" on="0"/>
        <pt x="131" y="422" on="0"/>
      </contour>
    </TTGlyph>
    <TTGlyph name="delta" xMin="32" yMin="-20" xMax="446" yMax="735">
      <contour>
        <pt x="235" y="-20" on="1"/>
        <pt x="191" y="-20" on="0"/>
        <pt x="117" y="15" on="0"/>
        <pt x="63" y="76" on="0"/>
        <pt x="32" y="161" on="0"/>
        <pt x="32" y="211" on="1"/>
        <pt x="32" y="294" on="0"/>
        <pt x="125" y="412" on="0"/>
        <pt x="195" y="419" on="1"/>
        <pt x="135" y="453" on="0"/>
        <pt x="76" y="542" on="0"/>
        <pt x="76" y="597" on="1"/>
        <pt x="76" y="657" on="0"/>
        <pt x="164" y="735" on="0"/>
        <pt x="233" y="735" on="1"/>
        <pt x="261" y="735" on="0"/>
        <pt x="315" y="724" on="0"/>
        <pt x="347" y="712" on="1"/>
        <pt x="379" y="699" on="0"/>
        <pt x="429" y="669" on="0"/>
        <pt x="446" y="654" on="1"/>
        <pt x="445" y="640" on="0"/>
        <pt x="429" y="589" on="0"/>
        <pt x="422" y="575" on="1"/>
        <pt x="402" y="569" on="1"/>
        <pt x="339" y="612" on="0"/>
        <pt x="249" y="649" on="0"/>
        <pt x="206" y="649" on="1"/>
        <pt x="166" y="649" on="0"/>
        <pt x="116" y="614" on="0"/>
        <pt x="115" y="585" on="1"/>
        <pt x="130" y="551" on="0"/>
        <pt x="237" y="503" on="0"/>
        <pt x="353" y="436" on="0"/>
        <pt x="445" y="328" on="0"/>
        <pt x="445" y="235" on="1"/>
        <pt x="445" y="181" on="0"/>
        <pt x="413" y="87" on="0"/>
        <pt x="357" y="19" on="0"/>
        <pt x="279" y="-20" on="0"/>
      </contour>
      <contour>
        <pt x="119" y="90" on="1"/>
        <pt x="136" y="80" on="0"/>
        <pt x="185" y="70" on="0"/>
        <pt x="213" y="70" on="1"/>
        <pt x="287" y="70" on="0"/>
        <pt x="389" y="186" on="0"/>
        <pt x="392" y="274" on="1"/>
        <pt x="375" y="304" on="0"/>
        <pt x="314" y="354" on="0"/>
        <pt x="255" y="385" on="1"/>
        <pt x="186" y="367" on="0"/>
        <pt x="98" y="253" on="0"/>
        <pt x="98" y="181" on="1"/>
        <pt x="98" y="153" on="0"/>
        <pt x="109" y="106" on="0"/>
      </contour>
    </TTGlyph>
    <TTGlyph name="dieresis" xMin="27" yMin="551" xMax="348" yMax="677">
      <component glyphName="uni0308" x="187" y="0" flags="0x4"/>
    </TTGlyph>
    <TTGlyph name="dieresisacute" xMin="-10" yMin="530" xMax="375" yMax="764">
      <component glyphName="dieresistonos" x="0" y="0" flags="0x204"/>
    </TTGlyph>
    <TTGlyph name="dieresisgrave" xMin="-10" yMin="530" xMax="375" yMax="764">
      <contour>
        <pt x="109" y="724" on="1"/>
        <pt x="111" y="742" on="1"/>
        <pt x="130" y="754" on="0"/>
        <pt x="174" y="765" on="0"/>
        <pt x="196" y="764" on="1"/>
        <pt x="229" y="542" on="1"/>
        <pt x="192" y="530" on="1"/>
      </contour>
      <contour>
        <pt x="55" y="551" on="1"/>
        <pt x="31" y="557" on="0"/>
        <pt x="-1" y="583" on="0"/>
        <pt x="-10" y="604" on="1"/>
        <pt x="-8" y="629" on="0"/>
        <pt x="24" y="667" on="0"/>
        <pt x="45" y="677" on="1"/>
        <pt x="68" y="669" on="0"/>
        <pt x="104" y="636" on="0"/>
        <pt x="108" y="614" on="1"/>
        <pt x="102" y="592" on="0"/>
        <pt x="76" y="560" on="0"/>
      </contour>
      <contour>
        <pt x="322" y="551" on="1"/>
        <pt x="298" y="557" on="0"/>
        <pt x="266" y="583" on="0"/>
        <pt x="257" y="604" on="1"/>
        <pt x="259" y="629" on="0"/>
        <pt x="291" y="667" on="0"/>
        <pt x="312" y="677" on="1"/>
        <pt x="335" y="669" on="0"/>
        <pt x="371" y="636" on="0"/>
        <pt x="375" y="614" on="1"/>
        <pt x="369" y="592" on="0"/>
        <pt x="343" y="560" on="0"/>
      </contour>
    </TTGlyph>
    <TTGlyph name="dieresistilde" xMin="18" yMin="574" xMax="347" yMax="877">
      <component glyphName="grTilde" x="0" y="174" flags="0x4"/>
      <component glyphName="uni0308" x="181" y="23" flags="0x4"/>
    </TTGlyph>
    <TTGlyph name="dieresistonos" xMin="-10" yMin="530" xMax="375" yMax="764">
      <contour>
        <pt x="140" y="542" on="1"/>
        <pt x="173" y="764" on="1"/>
        <pt x="195" y="765" on="0"/>
        <pt x="239" y="754" on="0"/>
        <pt x="258" y="742" on="1"/>
        <pt x="260" y="724" on="1"/>
        <pt x="177" y="530" on="1"/>
      </contour>
      <contour>
        <pt x="55" y="551" on="1"/>
        <pt x="31" y="557" on="0"/>
        <pt x="-1" y="583" on="0"/>
        <pt x="-10" y="604" on="1"/>
        <pt x="-8" y="629" on="0"/>
        <pt x="24" y="667" on="0"/>
        <pt x="45" y="677" on="1"/>
        <pt x="68" y="669" on="0"/>
        <pt x="104" y="636" on="0"/>
        <pt x="108" y="614" on="1"/>
        <pt x="102" y="592" on="0"/>
        <pt x="76" y="560" on="0"/>
      </contour>
      <contour>
        <pt x="322" y="551" on="1"/>
        <pt x="298" y="557" on="0"/>
        <pt x="266" y="583" on="0"/>
        <pt x="257" y="604" on="1"/>
        <pt x="259" y="629" on="0"/>
        <pt x="291" y="667" on="0"/>
        <pt x="312" y="677" on="1"/>
        <pt x="335" y="669" on="0"/>
        <pt x="371" y="636" on="0"/>
        <pt x="375" y="614" on="1"/>
        <pt x="369" y="592" on="0"/>
        <pt x="343" y="560" on="0"/>
      </contour>
    </TTGlyph>
    <TTGlyph name="divide" xMin="60" yMin="-21" xMax="542" yMax="481">
      <contour>
        <pt x="313" y="343" on="1"/>
        <pt x="291" y="347" on="0"/>
        <pt x="263" y="367" on="0"/>
        <pt x="247" y="387" on="0"/>
        <pt x="240" y="402" on="0"/>
        <pt x="240" y="402" on="1"/>
        <pt x="242" y="423" on="0"/>
        <pt x="262" y="453" on="0"/>
        <pt x="284" y="472" on="0"/>
        <pt x="301" y="481" on="0"/>
        <pt x="301" y="481" on="1"/>
        <pt x="351" y="462" on="0"/>
        <pt x="371" y="412" on="0"/>
        <pt x="371" y="412" on="1"/>
        <pt x="371" y="412" on="0"/>
        <pt x="367" y="397" on="0"/>
        <pt x="354" y="375" on="0"/>
        <pt x="331" y="351" on="0"/>
      </contour>
      <contour>
        <pt x="60" y="264" on="1"/>
        <pt x="542" y="264" on="1"/>
        <pt x="542" y="198" on="1"/>
        <pt x="60" y="198" on="1"/>
      </contour>
      <contour>
        <pt x="312" y="-21" on="1"/>
        <pt x="290" y="-17" on="0"/>
        <pt x="262" y="3" on="0"/>
        <pt x="246" y="23" on="0"/>
        <pt x="239" y="38" on="0"/>
        <pt x="239" y="38" on="1"/>
        <pt x="241" y="59" on="0"/>
        <pt x="261" y="89" on="0"/>
        <pt x="283" y="108" on="0"/>
        <pt x="300" y="117" on="0"/>
        <pt x="300" y="117" on="1"/>
        <pt x="350" y="98" on="0"/>
        <pt x="370" y="48" on="0"/>
        <pt x="370" y="48" on="1"/>
        <pt x="370" y="48" on="0"/>
        <pt x="366" y="32" on="0"/>
        <pt x="353" y="10" on="0"/>
        <pt x="330" y="-13" on="0"/>
      </contour>
    </TTGlyph>
    <TTGlyph name="dollar" xMin="54" yMin="-145" xMax="488" yMax="785">
      <contour>
        <pt x="56" y="49" on="1"/>
        <pt x="54" y="74" on="0"/>
        <pt x="58" y="172" on="0"/>
        <pt x="66" y="218" on="1"/>
        <pt x="120" y="218" on="1"/>
        <pt x="134" y="98" on="1"/>
        <pt x="182" y="62" on="0"/>
        <pt x="292" y="44" on="0"/>
        <pt x="335" y="48" on="1"/>
        <pt x="365" y="64" on="0"/>
        <pt x="393" y="122" on="0"/>
        <pt x="393" y="150" on="1"/>
        <pt x="393" y="202" on="0"/>
        <pt x="309" y="261" on="0"/>
        <pt x="243" y="292" on="1"/>
        <pt x="211" y="307" on="0"/>
        <pt x="145" y="342" on="0"/>
        <pt x="93" y="388" on="0"/>
        <pt x="60" y="448" on="0"/>
        <pt x="60" y="489" on="1"/>
        <pt x="60" y="529" on="0"/>
        <pt x="93" y="592" on="0"/>
        <pt x="148" y="637" on="0"/>
        <pt x="220" y="664" on="0"/>
        <pt x="260" y="668" on="1"/>
        <pt x="260" y="785" on="1"/>
        <pt x="322" y="785" on="1"/>
        <pt x="322" y="669" on="1"/>
        <pt x="362" y="666" on="0"/>
        <pt x="433" y="647" on="0"/>
        <pt x="458" y="639" on="1"/>
        <pt x="460" y="614" on="0"/>
        <pt x="456" y="516" on="0"/>
        <pt x="448" y="470" on="1"/>
        <pt x="394" y="470" on="1"/>
        <pt x="384" y="561" on="1"/>
        <pt x="344" y="592" on="0"/>
        <pt x="247" y="608" on="0"/>
        <pt x="201" y="601" on="1"/>
        <pt x="177" y="587" on="0"/>
        <pt x="153" y="535" on="0"/>
        <pt x="153" y="510" on="1"/>
        <pt x="153" y="461" on="0"/>
        <pt x="238" y="405" on="0"/>
        <pt x="302" y="375" on="1"/>
        <pt x="337" y="359" on="0"/>
        <pt x="404" y="323" on="0"/>
        <pt x="456" y="276" on="0"/>
        <pt x="488" y="214" on="0"/>
        <pt x="488" y="172" on="1"/>
        <pt x="488" y="96" on="0"/>
        <pt x="391" y="0" on="0"/>
        <pt x="323" y="-14" on="1"/>
        <pt x="323" y="-145" on="1"/>
        <pt x="260" y="-145" on="1"/>
        <pt x="260" y="-20" on="1"/>
        <pt x="236" y="-19" on="0"/>
        <pt x="178" y="-10" on="0"/>
        <pt x="122" y="7" on="0"/>
        <pt x="72" y="33" on="0"/>
      </contour>
    </TTGlyph>
    <TTGlyph name="dotaccent" xMin="30" yMin="551" xMax="148" yMax="677">
      <component glyphName="uni0307" x="90" y="0" flags="0x4"/>
    </TTGlyph>
    <TTGlyph name="dotbelowcomb" xMin="-60" yMin="-225" xMax="58" yMax="-99">
      <contour>
        <pt x="6" y="-225" on="1"/>
        <pt x="-18" y="-220" on="0"/>
        <pt x="-51" y="-194" on="0"/>
        <pt x="-60" y="-172" on="1"/>
        <pt x="-57" y="-147" on="0"/>
        <pt x="-26" y="-109" on="0"/>
        <pt x="-5" y="-99" on="1"/>
        <pt x="18" y="-107" on="0"/>
        <pt x="57" y="-144" on="0"/>
        <pt x="58" y="-162" on="1"/>
        <pt x="53" y="-184" on="0"/>
        <pt x="26" y="-215" on="0"/>
      </contour>
    </TTGlyph>
    <TTGlyph name="dotbelowcomb.case" xMin="-60" yMin="-225" xMax="58" yMax="-99">
      <component glyphName="dotbelowcomb" x="0" y="0" flags="0x204"/>
    </TTGlyph>
    <TTGlyph name="dotlessi" xMin="15" yMin="0" xMax="256" yMax="484">
      <contour>
        <pt x="31" y="33" on="1"/>
        <pt x="44" y="39" on="0"/>
        <pt x="83" y="53" on="0"/>
        <pt x="102" y="59" on="1"/>
        <pt x="102" y="412" on="1"/>
        <pt x="27" y="406" on="1"/>
        <pt x="15" y="453" on="1"/>
        <pt x="45" y="466" on="0"/>
        <pt x="120" y="483" on="0"/>
        <pt x="151" y="484" on="1"/>
        <pt x="191" y="449" on="1"/>
        <pt x="191" y="63" on="1"/>
        <pt x="210" y="61" on="0"/>
        <pt x="244" y="53" on="0"/>
        <pt x="256" y="48" on="1"/>
        <pt x="250" y="0" on="1"/>
        <pt x="36" y="0" on="1"/>
      </contour>
    </TTGlyph>
    <TTGlyph name="dvKSPLa" xMin="-30" yMin="-47" xMax="2002" yMax="608">
      <component glyphName="uni0915094D" x="0" y="0" flags="0x4"/>
      <component glyphName="uni0938094D" x="575" y="0" flags="0x4"/>
      <component glyphName="uni092A094D" x="969" y="0" flags="0x4"/>
      <component glyphName="uni0932" x="1289" y="0" flags="0x4"/>
    </TTGlyph>
    <TTGlyph name="dvKSPLa.MAR" xMin="-30" yMin="-47" xMax="2021" yMax="608">
      <component glyphName="uni0915094D" x="0" y="0" flags="0x4"/>
      <component glyphName="uni0938094D" x="605" y="0" flags="0x4"/>
      <component glyphName="uni092A094D" x="979" y="0" flags="0x4"/>
      <component glyphName="uni0932.MAR" x="1303" y="0" flags="0x4"/>
    </TTGlyph>
    <TTGlyph name="e" xMin="20" yMin="-15" xMax="428" yMax="488">
      <contour>
        <pt x="265" y="-15" on="1"/>
        <pt x="204" y="-15" on="0"/>
        <pt x="111" y="25" on="0"/>
        <pt x="51" y="92" on="0"/>
        <pt x="20" y="179" on="0"/>
        <pt x="20" y="226" on="1"/>
        <pt x="20" y="276" on="0"/>
        <pt x="53" y="371" on="0"/>
        <pt x="113" y="444" on="0"/>
        <pt x="198" y="488" on="0"/>
        <pt x="249" y="488" on="1"/>
        <pt x="327" y="488" on="0"/>
        <pt x="429" y="388" on="0"/>
        <pt x="428" y="313" on="1"/>
        <pt x="371" y="257" on="1"/>
        <pt x="114" y="262" on="1"/>
        <pt x="114" y="258" on="0"/>
        <pt x="114" y="251" on="0"/>
        <pt x="114" y="247" on="1"/>
        <pt x="114" y="159" on="0"/>
        <pt x="209" y="61" on="0"/>
        <pt x="278" y="61" on="1"/>
        <pt x="308" y="61" on="0"/>
        <pt x="372" y="79" on="0"/>
        <pt x="406" y="94" on="1"/>
        <pt x="421" y="51" on="1"/>
      </contour>
      <contour>
        <pt x="199" y="427" on="1"/>
        <pt x="168" y="411" on="0"/>
        <pt x="130" y="349" on="0"/>
        <pt x="122" y="315" on="1"/>
        <pt x="341" y="325" on="1"/>
        <pt x="331" y="372" on="0"/>
        <pt x="253" y="431" on="0"/>
      </contour>
    </TTGlyph>
    <TTGlyph name="eacute" xMin="20" yMin="-15" xMax="428" yMax="734">
      <component glyphName="e" x="0" y="0" flags="0x204"/>
      <component glyphName="acutecomb" x="242" y="0" flags="0x4"/>
    </TTGlyph>
    <TTGlyph name="ecaron" xMin="20" yMin="-15" xMax="428" yMax="743">
      <component glyphName="e" x="0" y="0" flags="0x204"/>
      <component glyphName="uni030C" x="242" y="0" flags="0x4"/>
    </TTGlyph>
    <TTGlyph name="ecircumflex" xMin="20" yMin="-15" xMax="428" yMax="717">
      <component glyphName="e" x="0" y="0" flags="0x204"/>
      <component glyphName="uni0302" x="242" y="0" flags="0x4"/>
    </TTGlyph>
    <TTGlyph name="edieresis" xMin="20" yMin="-15" xMax="428" yMax="677">
      <component glyphName="e" x="0" y="0" flags="0x204"/>
      <component glyphName="uni0308" x="242" y="0" flags="0x4"/>
    </TTGlyph>
    <TTGlyph name="edotaccent" xMin="20" yMin="-15" xMax="428" yMax="677">
      <component glyphName="e" x="0" y="0" flags="0x204"/>
      <component glyphName="uni0307" x="242" y="0" flags="0x4"/>
    </TTGlyph>
    <TTGlyph name="egrave" xMin="20" yMin="-15" xMax="428" yMax="734">
      <component glyphName="e" x="0" y="0" flags="0x204"/>
      <component glyphName="gravecomb" x="242" y="0" flags="0x4"/>
    </TTGlyph>
    <TTGlyph name="eight" xMin="40" yMin="-20" xMax="465" yMax="668">
      <contour>
        <pt x="247" y="-20" on="1"/>
        <pt x="198" y="-20" on="0"/>
        <pt x="120" y="7" on="0"/>
        <pt x="68" y="54" on="0"/>
        <pt x="40" y="116" on="0"/>
        <pt x="40" y="150" on="1"/>
        <pt x="40" y="205" on="0"/>
        <pt x="113" y="296" on="0"/>
        <pt x="181" y="330" on="1"/>
        <pt x="119" y="363" on="0"/>
        <pt x="55" y="451" on="0"/>
        <pt x="55" y="502" on="1"/>
        <pt x="55" y="536" on="0"/>
        <pt x="83" y="597" on="0"/>
        <pt x="134" y="642" on="0"/>
        <pt x="209" y="668" on="0"/>
        <pt x="256" y="668" on="1"/>
        <pt x="345" y="668" on="0"/>
        <pt x="445" y="580" on="0"/>
        <pt x="445" y="518" on="1"/>
        <pt x="445" y="472" on="0"/>
        <pt x="384" y="386" on="0"/>
        <pt x="319" y="349" on="1"/>
        <pt x="347" y="333" on="0"/>
        <pt x="400" y="297" on="0"/>
        <pt x="440" y="253" on="0"/>
        <pt x="465" y="198" on="0"/>
        <pt x="465" y="164" on="1"/>
        <pt x="465" y="127" on="0"/>
        <pt x="436" y="60" on="0"/>
        <pt x="380" y="10" on="0"/>
        <pt x="298" y="-20" on="0"/>
      </contour>
      <contour>
        <pt x="144" y="512" on="1"/>
        <pt x="144" y="487" on="0"/>
        <pt x="166" y="447" on="0"/>
        <pt x="203" y="414" on="0"/>
        <pt x="250" y="386" on="0"/>
        <pt x="275" y="373" on="1"/>
        <pt x="332" y="412" on="0"/>
        <pt x="362" y="483" on="0"/>
        <pt x="362" y="504" on="1"/>
        <pt x="362" y="549" on="0"/>
        <pt x="300" y="613" on="0"/>
        <pt x="249" y="613" on="1"/>
        <pt x="233" y="613" on="0"/>
        <pt x="198" y="605" on="0"/>
        <pt x="179" y="598" on="1"/>
        <pt x="160" y="575" on="0"/>
        <pt x="144" y="531" on="0"/>
      </contour>
      <contour>
        <pt x="139" y="162" on="1"/>
        <pt x="139" y="114" on="0"/>
        <pt x="202" y="41" on="0"/>
        <pt x="262" y="41" on="1"/>
        <pt x="280" y="41" on="0"/>
        <pt x="321" y="49" on="0"/>
        <pt x="343" y="56" on="1"/>
        <pt x="358" y="81" on="0"/>
        <pt x="374" y="127" on="0"/>
        <pt x="374" y="148" on="1"/>
        <pt x="374" y="191" on="0"/>
        <pt x="303" y="269" on="0"/>
        <pt x="228" y="306" on="1"/>
        <pt x="183" y="282" on="0"/>
        <pt x="139" y="202" on="0"/>
      </contour>
    </TTGlyph>
    <TTGlyph name="ellipsis" xMin="81" yMin="-18" xMax="818" yMax="126">
      <contour>
        <pt x="757" y="-18" on="1"/>
        <pt x="730" y="-13" on="0"/>
        <pt x="691" y="18" on="0"/>
        <pt x="681" y="43" on="1"/>
        <pt x="685" y="71" on="0"/>
        <pt x="718" y="113" on="0"/>
        <pt x="745" y="126" on="1"/>
        <pt x="775" y="115" on="0"/>
        <pt x="814" y="78" on="0"/>
        <pt x="818" y="54" on="1"/>
        <pt x="811" y="29" on="0"/>
        <pt x="779" y="-8" on="0"/>
      </contour>
      <contour>
        <pt x="157" y="-18" on="1"/>
        <pt x="130" y="-13" on="0"/>
        <pt x="91" y="18" on="0"/>
        <pt x="81" y="43" on="1"/>
        <pt x="85" y="71" on="0"/>
        <pt x="118" y="113" on="0"/>
        <pt x="145" y="126" on="1"/>
        <pt x="175" y="115" on="0"/>
        <pt x="214" y="78" on="0"/>
        <pt x="218" y="54" on="1"/>
        <pt x="211" y="29" on="0"/>
        <pt x="179" y="-8" on="0"/>
      </contour>
      <contour>
        <pt x="457" y="-18" on="1"/>
        <pt x="430" y="-13" on="0"/>
        <pt x="391" y="18" on="0"/>
        <pt x="381" y="43" on="1"/>
        <pt x="385" y="71" on="0"/>
        <pt x="418" y="113" on="0"/>
        <pt x="445" y="126" on="1"/>
        <pt x="475" y="115" on="0"/>
        <pt x="514" y="78" on="0"/>
        <pt x="518" y="54" on="1"/>
        <pt x="511" y="29" on="0"/>
        <pt x="479" y="-8" on="0"/>
      </contour>
    </TTGlyph>
    <TTGlyph name="emacron" xMin="20" yMin="-15" xMax="433" yMax="631">
      <component glyphName="e" x="0" y="0" flags="0x204"/>
      <component glyphName="uni0304" x="241" y="0" flags="0x4"/>
    </TTGlyph>
    <TTGlyph name="emdash" xMin="30" yMin="219" xMax="923" yMax="296">
      <contour>
        <pt x="30" y="267" on="1"/>
        <pt x="59" y="282" on="0"/>
        <pt x="121" y="296" on="0"/>
        <pt x="144" y="296" on="1"/>
        <pt x="920" y="296" on="1"/>
        <pt x="923" y="267" on="1"/>
        <pt x="876" y="219" on="1"/>
        <pt x="37" y="219" on="1"/>
      </contour>
    </TTGlyph>
    <TTGlyph name="endash" xMin="30" yMin="219" xMax="501" yMax="296">
      <contour>
        <pt x="30" y="267" on="1"/>
        <pt x="59" y="282" on="0"/>
        <pt x="121" y="296" on="0"/>
        <pt x="143" y="296" on="1"/>
        <pt x="497" y="296" on="1"/>
        <pt x="501" y="267" on="1"/>
        <pt x="453" y="219" on="1"/>
        <pt x="37" y="219" on="1"/>
      </contour>
    </TTGlyph>
    <TTGlyph name="eogonek" xMin="20" yMin="-226" xMax="428" yMax="488">
      <contour>
        <pt x="300" y="-226" on="1"/>
        <pt x="244" y="-229" on="0"/>
        <pt x="182" y="-164" on="0"/>
        <pt x="182" y="-124" on="1"/>
        <pt x="182" y="-96" on="0"/>
        <pt x="214" y="-40" on="0"/>
        <pt x="243" y="-14" on="1"/>
        <pt x="187" y="-10" on="0"/>
        <pt x="103" y="32" on="0"/>
        <pt x="48" y="98" on="0"/>
        <pt x="20" y="182" on="0"/>
        <pt x="20" y="226" on="1"/>
        <pt x="20" y="276" on="0"/>
        <pt x="53" y="371" on="0"/>
        <pt x="113" y="444" on="0"/>
        <pt x="198" y="488" on="0"/>
        <pt x="249" y="488" on="1"/>
        <pt x="327" y="488" on="0"/>
        <pt x="429" y="388" on="0"/>
        <pt x="428" y="313" on="1"/>
        <pt x="371" y="257" on="1"/>
        <pt x="114" y="262" on="1"/>
        <pt x="114" y="258" on="0"/>
        <pt x="114" y="251" on="0"/>
        <pt x="114" y="247" on="1"/>
        <pt x="114" y="159" on="0"/>
        <pt x="209" y="61" on="0"/>
        <pt x="278" y="61" on="1"/>
        <pt x="308" y="61" on="0"/>
        <pt x="372" y="79" on="0"/>
        <pt x="406" y="94" on="1"/>
        <pt x="421" y="51" on="1"/>
        <pt x="374" y="28" on="1"/>
        <pt x="322" y="3" on="0"/>
        <pt x="255" y="-64" on="0"/>
        <pt x="255" y="-101" on="1"/>
        <pt x="255" y="-119" on="0"/>
        <pt x="274" y="-148" on="0"/>
        <pt x="310" y="-161" on="0"/>
        <pt x="364" y="-152" on="0"/>
        <pt x="399" y="-133" on="1"/>
        <pt x="416" y="-172" on="1"/>
      </contour>
      <contour>
        <pt x="199" y="427" on="1"/>
        <pt x="168" y="411" on="0"/>
        <pt x="130" y="349" on="0"/>
        <pt x="122" y="315" on="1"/>
        <pt x="341" y="325" on="1"/>
        <pt x="331" y="372" on="0"/>
        <pt x="253" y="431" on="0"/>
      </contour>
    </TTGlyph>
    <TTGlyph name="epsilon" xMin="38" yMin="-14" xMax="436" yMax="488">
      <contour>
        <pt x="227" y="-14" on="1"/>
        <pt x="143" y="-14" on="0"/>
        <pt x="38" y="66" on="0"/>
        <pt x="38" y="130" on="1"/>
        <pt x="38" y="162" on="0"/>
        <pt x="91" y="222" on="0"/>
        <pt x="133" y="239" on="1"/>
        <pt x="90" y="251" on="0"/>
        <pt x="44" y="306" on="0"/>
        <pt x="44" y="345" on="1"/>
        <pt x="44" y="408" on="0"/>
        <pt x="161" y="488" on="0"/>
        <pt x="253" y="488" on="1"/>
        <pt x="301" y="488" on="0"/>
        <pt x="389" y="471" on="0"/>
        <pt x="405" y="459" on="1"/>
        <pt x="409" y="444" on="0"/>
        <pt x="412" y="393" on="0"/>
        <pt x="409" y="377" on="1"/>
        <pt x="390" y="363" on="1"/>
        <pt x="353" y="379" on="0"/>
        <pt x="281" y="396" on="0"/>
        <pt x="243" y="396" on="1"/>
        <pt x="188" y="396" on="0"/>
        <pt x="111" y="362" on="0"/>
        <pt x="101" y="333" on="1"/>
        <pt x="105" y="310" on="0"/>
        <pt x="149" y="272" on="0"/>
        <pt x="181" y="264" on="1"/>
        <pt x="305" y="288" on="1"/>
        <pt x="326" y="274" on="1"/>
        <pt x="330" y="259" on="0"/>
        <pt x="328" y="205" on="0"/>
        <pt x="322" y="183" on="1"/>
        <pt x="190" y="200" on="1"/>
        <pt x="158" y="197" on="0"/>
        <pt x="98" y="158" on="0"/>
        <pt x="86" y="132" on="1"/>
        <pt x="97" y="107" on="0"/>
        <pt x="178" y="73" on="0"/>
        <pt x="227" y="73" on="1"/>
        <pt x="272" y="73" on="0"/>
        <pt x="374" y="95" on="0"/>
        <pt x="423" y="115" on="1"/>
        <pt x="436" y="84" on="1"/>
        <pt x="419" y="63" on="0"/>
        <pt x="370" y="27" on="0"/>
        <pt x="314" y="1" on="0"/>
        <pt x="254" y="-14" on="0"/>
      </contour>
    </TTGlyph>
    <TTGlyph name="epsilonacute" xMin="38" yMin="-14" xMax="436" yMax="765">
      <component glyphName="epsilon" x="0" y="0" flags="0x204"/>
      <component glyphName="grAcute" x="88" y="0" flags="0x4"/>
    </TTGlyph>
    <TTGlyph name="epsilonasper" xMin="38" yMin="-14" xMax="436" yMax="765">
      <component glyphName="epsilon" x="0" y="0" flags="0x204"/>
      <component glyphName="asper" x="32" y="0" flags="0x4"/>
    </TTGlyph>
    <TTGlyph name="epsilonasperacute" xMin="38" yMin="-14" xMax="436" yMax="765">
      <component glyphName="epsilon" x="0" y="0" flags="0x204"/>
      <component glyphName="asperacute" x="33" y="0" flags="0x4"/>
    </TTGlyph>
    <TTGlyph name="epsilonaspergrave" xMin="38" yMin="-14" xMax="436" yMax="765">
      <component glyphName="epsilon" x="0" y="0" flags="0x204"/>
      <component glyphName="aspergrave" x="30" y="0" flags="0x4"/>
    </TTGlyph>
    <TTGlyph name="epsilongrave" xMin="38" yMin="-14" xMax="436" yMax="765">
      <component glyphName="epsilon" x="0" y="0" flags="0x204"/>
      <component glyphName="grGrave" x="7" y="0" flags="0x4"/>
    </TTGlyph>
    <TTGlyph name="epsilonlenis" xMin="38" yMin="-14" xMax="436" yMax="765">
      <component glyphName="epsilon" x="0" y="0" flags="0x204"/>
      <component glyphName="lenis" x="49" y="0" flags="0x4"/>
    </TTGlyph>
    <TTGlyph name="epsilonlenisacute" xMin="38" yMin="-14" xMax="436" yMax="765">
      <component glyphName="epsilon" x="0" y="0" flags="0x204"/>
      <component glyphName="lenisacute" x="65" y="0" flags="0x4"/>
    </TTGlyph>
    <TTGlyph name="epsilonlenisgrave" xMin="38" yMin="-14" xMax="436" yMax="765">
      <component glyphName="epsilon" x="0" y="0" flags="0x204"/>
      <component glyphName="lenisgrave" x="28" y="0" flags="0x4"/>
    </TTGlyph>
    <TTGlyph name="epsilonwithtonos" xMin="38" yMin="-14" xMax="436" yMax="765">
      <component glyphName="epsilon" x="0" y="0" flags="0x204"/>
      <component glyphName="tonos" x="88" y="0" flags="0x4"/>
    </TTGlyph>
    <TTGlyph name="equal" xMin="60" yMin="124" xMax="532" yMax="369">
      <contour>
        <pt x="60" y="369" on="1"/>
        <pt x="532" y="369" on="1"/>
        <pt x="532" y="304" on="1"/>
        <pt x="60" y="304" on="1"/>
      </contour>
      <contour>
        <pt x="60" y="189" on="1"/>
        <pt x="532" y="189" on="1"/>
        <pt x="532" y="124" on="1"/>
        <pt x="60" y="124" on="1"/>
      </contour>
    </TTGlyph>
    <TTGlyph name="eta" xMin="6" yMin="-225" xMax="468" yMax="488">
      <contour>
        <pt x="95" y="5" on="1"/>
        <pt x="134" y="385" on="1"/>
        <pt x="21" y="378" on="1"/>
        <pt x="6" y="406" on="1"/>
        <pt x="24" y="443" on="0"/>
        <pt x="78" y="488" on="0"/>
        <pt x="104" y="488" on="1"/>
        <pt x="119" y="488" on="0"/>
        <pt x="147" y="468" on="0"/>
        <pt x="157" y="451" on="1"/>
        <pt x="165" y="438" on="0"/>
        <pt x="178" y="402" on="0"/>
        <pt x="182" y="382" on="1"/>
        <pt x="204" y="431" on="0"/>
        <pt x="278" y="488" on="0"/>
        <pt x="323" y="488" on="1"/>
        <pt x="396" y="488" on="0"/>
        <pt x="468" y="369" on="0"/>
        <pt x="468" y="250" on="1"/>
        <pt x="468" y="-213" on="1"/>
        <pt x="444" y="-225" on="1"/>
        <pt x="421" y="-225" on="0"/>
        <pt x="376" y="-211" on="0"/>
        <pt x="355" y="-198" on="1"/>
        <pt x="367" y="-101" on="0"/>
        <pt x="385" y="54" on="0"/>
        <pt x="396" y="179" on="0"/>
        <pt x="401" y="282" on="0"/>
        <pt x="401" y="327" on="1"/>
        <pt x="401" y="348" on="0"/>
        <pt x="399" y="370" on="0"/>
        <pt x="397" y="374" on="1"/>
        <pt x="389" y="386" on="0"/>
        <pt x="360" y="396" on="0"/>
        <pt x="335" y="396" on="1"/>
        <pt x="286" y="396" on="0"/>
        <pt x="200" y="303" on="0"/>
        <pt x="182" y="229" on="1"/>
        <pt x="193" y="0" on="1"/>
        <pt x="171" y="-4" on="0"/>
        <pt x="113" y="-6" on="0"/>
        <pt x="100" y="-2" on="1"/>
      </contour>
    </TTGlyph>
    <TTGlyph name="etaacute" xMin="6" yMin="-225" xMax="468" yMax="765">
      <component glyphName="eta" x="0" y="0" flags="0x4"/>
      <component glyphName="grAcute" x="138" y="0" flags="0x4"/>
    </TTGlyph>
    <TTGlyph name="etaacuteiotasub" xMin="6" yMin="-235" xMax="468" yMax="765">
      <component glyphName="eta" x="0" y="0" flags="0x4"/>
      <component glyphName="grAcute" x="138" y="0" flags="0x4"/>
      <component glyphName="iotaadscript" x="33" y="0" flags="0x4"/>
    </TTGlyph>
    <TTGlyph name="etaasper" xMin="6" yMin="-225" xMax="468" yMax="765">
      <component glyphName="eta" x="0" y="0" flags="0x4"/>
      <component glyphName="asper" x="74" y="0" flags="0x4"/>
    </TTGlyph>
    <TTGlyph name="etaasperacute" xMin="6" yMin="-225" xMax="468" yMax="765">
      <component glyphName="eta" x="0" y="0" flags="0x4"/>
      <component glyphName="asperacute" x="80" y="0" flags="0x4"/>
    </TTGlyph>
    <TTGlyph name="etaasperacuteiotasub" xMin="6" yMin="-235" xMax="468" yMax="765">
      <component glyphName="eta" x="0" y="0" flags="0x4"/>
      <component glyphName="asperacute" x="80" y="0" flags="0x4"/>
      <component glyphName="iotaadscript" x="33" y="0" flags="0x4"/>
    </TTGlyph>
    <TTGlyph name="etaaspergrave" xMin="6" yMin="-225" xMax="468" yMax="765">
      <component glyphName="eta" x="0" y="0" flags="0x4"/>
      <component glyphName="aspergrave" x="77" y="0" flags="0x4"/>
    </TTGlyph>
    <TTGlyph name="etaaspergraveiotasub" xMin="6" yMin="-235" xMax="468" yMax="765">
      <component glyphName="eta" x="0" y="0" flags="0x4"/>
      <component glyphName="aspergrave" x="77" y="0" flags="0x4"/>
      <component glyphName="iotaadscript" x="33" y="0" flags="0x4"/>
    </TTGlyph>
    <TTGlyph name="etaasperiotasub" xMin="6" yMin="-235" xMax="468" yMax="765">
      <component glyphName="eta" x="0" y="0" flags="0x4"/>
      <component glyphName="asper" x="74" y="0" flags="0x4"/>
      <component glyphName="iotaadscript" x="33" y="0" flags="0x4"/>
    </TTGlyph>
    <TTGlyph name="etaaspertilde" xMin="6" yMin="-225" xMax="468" yMax="900">
      <component glyphName="eta" x="0" y="0" flags="0x4"/>
      <component glyphName="aspertilde" x="82" y="0" flags="0x4"/>
    </TTGlyph>
    <TTGlyph name="etaaspertildeiotasub" xMin="6" yMin="-235" xMax="468" yMax="900">
      <component glyphName="eta" x="0" y="0" flags="0x4"/>
      <component glyphName="aspertilde" x="82" y="0" flags="0x4"/>
      <component glyphName="iotaadscript" x="33" y="0" flags="0x4"/>
    </TTGlyph>
    <TTGlyph name="etagrave" xMin="6" yMin="-225" xMax="468" yMax="765">
      <component glyphName="eta" x="0" y="0" flags="0x4"/>
      <component glyphName="grGrave" x="54" y="0" flags="0x4"/>
    </TTGlyph>
    <TTGlyph name="etagraveiotasub" xMin="6" yMin="-235" xMax="468" yMax="765">
      <component glyphName="eta" x="0" y="0" flags="0x4"/>
      <component glyphName="grGrave" x="54" y="0" flags="0x4"/>
      <component glyphName="iotaadscript" x="33" y="0" flags="0x4"/>
    </TTGlyph>
    <TTGlyph name="etaiotasub" xMin="6" yMin="-235" xMax="468" yMax="488">
      <component glyphName="eta" x="0" y="0" flags="0x4"/>
      <component glyphName="iotaadscript" x="33" y="0" flags="0x4"/>
    </TTGlyph>
    <TTGlyph name="etalenis" xMin="6" yMin="-225" xMax="468" yMax="765">
      <component glyphName="eta" x="0" y="0" flags="0x4"/>
      <component glyphName="lenis" x="91" y="0" flags="0x4"/>
    </TTGlyph>
    <TTGlyph name="etalenisacute" xMin="6" yMin="-225" xMax="468" yMax="765">
      <component glyphName="eta" x="0" y="0" flags="0x4"/>
      <component glyphName="lenisacute" x="112" y="0" flags="0x4"/>
    </TTGlyph>
    <TTGlyph name="etalenisacuteiotasub" xMin="6" yMin="-235" xMax="468" yMax="765">
      <component glyphName="eta" x="0" y="0" flags="0x4"/>
      <component glyphName="lenisacute" x="112" y="0" flags="0x4"/>
      <component glyphName="iotaadscript" x="33" y="0" flags="0x4"/>
    </TTGlyph>
    <TTGlyph name="etalenisgrave" xMin="6" yMin="-225" xMax="468" yMax="765">
      <component glyphName="eta" x="0" y="0" flags="0x4"/>
      <component glyphName="lenisgrave" x="75" y="0" flags="0x4"/>
    </TTGlyph>
    <TTGlyph name="etalenisgraveiotasub" xMin="6" yMin="-235" xMax="468" yMax="765">
      <component glyphName="eta" x="0" y="0" flags="0x4"/>
      <component glyphName="lenisgrave" x="75" y="0" flags="0x4"/>
      <component glyphName="iotaadscript" x="33" y="0" flags="0x4"/>
    </TTGlyph>
    <TTGlyph name="etalenisiotasub" xMin="6" yMin="-235" xMax="468" yMax="765">
      <component glyphName="eta" x="0" y="0" flags="0x4"/>
      <component glyphName="lenis" x="91" y="0" flags="0x4"/>
      <component glyphName="iotaadscript" x="33" y="0" flags="0x4"/>
    </TTGlyph>
    <TTGlyph name="etalenistilde" xMin="6" yMin="-225" xMax="468" yMax="900">
      <component glyphName="eta" x="0" y="0" flags="0x4"/>
      <component glyphName="lenistilde" x="82" y="0" flags="0x4"/>
    </TTGlyph>
    <TTGlyph name="etalenistildeiotasub" xMin="6" yMin="-235" xMax="468" yMax="900">
      <component glyphName="eta" x="0" y="0" flags="0x4"/>
      <component glyphName="iotaadscript" x="33" y="0" flags="0x4"/>
      <component glyphName="lenistilde" x="82" y="0" flags="0x4"/>
    </TTGlyph>
    <TTGlyph name="etatilde" xMin="6" yMin="-225" xMax="468" yMax="703">
      <component glyphName="eta" x="0" y="0" flags="0x4"/>
      <component glyphName="grTilde" x="102" y="0" flags="0x4"/>
    </TTGlyph>
    <TTGlyph name="etatildeiotasub" xMin="6" yMin="-235" xMax="468" yMax="703">
      <component glyphName="eta" x="0" y="0" flags="0x4"/>
      <component glyphName="grTilde" x="102" y="0" flags="0x4"/>
      <component glyphName="iotaadscript" x="33" y="0" flags="0x4"/>
    </TTGlyph>
    <TTGlyph name="etawithtonos" xMin="6" yMin="-225" xMax="468" yMax="765">
      <component glyphName="eta" x="0" y="0" flags="0x4"/>
      <component glyphName="tonos" x="138" y="0" flags="0x4"/>
    </TTGlyph>
</ttFont>
